<svg width="279" height="32" viewBox="0 0 279 32" fill="none" xmlns="http://www.w3.org/2000/svg">
<g clip-path="url(#clip0_193_1895)">
<path d="M67.8286 8.88463V12.1401L69.0717 10.2694C72.385 7.00574 78.5059 7.84746 80.1247 12.4171C82.2434 6.7288 90.7752 7.14964 93.1964 12.3139C93.3667 12.6777 94.0423 14.4969 94.0423 14.7223V31.1491H89.448V16.3514C89.448 16.2319 88.8184 14.3611 88.6913 14.1249C87.3699 11.6188 83.9055 11.9881 82.4651 14.2254C82.073 14.8336 81.0707 17.6411 81.0707 18.2547V31.1518H76.4764V16.0826C76.4764 15.9658 75.8441 14.0788 75.7224 13.8534C74.4199 11.4532 70.4715 12.1103 69.123 14.3965C68.5556 15.3603 67.8286 18.0022 67.8286 19.0693V31.1518H63.2344V8.88738H67.8286V8.88463Z" fill="#FDFDFD"/>
<path d="M187.006 21.3769H169.98C169.735 27.8254 179.253 30.6356 181.871 24.6351H186.06C186.16 24.6351 186.314 24.1002 186.727 24.7681C185.095 29.7423 180.577 32.0557 175.51 31.7054C161.992 30.766 162.065 9.73693 175.012 8.37936C183.247 7.51591 187.444 13.7119 187.006 21.3796V21.3769ZM182.412 17.8472C181.706 9.93244 170.945 10.261 169.98 17.8472H182.412Z" fill="#FDFDFD"/>
<path d="M278.074 21.3761H261.048C260.875 27.8463 270.304 30.6294 272.939 24.6342H277.804C274.606 34.6205 259.613 33.9364 256.903 23.7763C252.009 5.41627 279.617 2.02499 278.074 21.3761ZM273.48 17.8463C272.753 9.94245 262.075 10.2411 261.048 17.8463H273.48Z" fill="#FDFDFD"/>
<path d="M19.4576 12.143C15.7877 11.6216 14.4446 13.8209 13.115 16.7696C11.7259 19.854 11.1935 23.2534 10.0044 26.4057C5.33192 38.7681 1.19178 25.0047 0 19.4793C4.21851 20.226 5.83998 16.0935 7.03177 12.8299C7.92088 10.3917 9.89637 1.0026 12.5745 0.475851C14.6419 0.0685755 15.3337 1.24425 16.1768 2.81633C17.7145 5.67541 18.1659 9.16167 19.4576 12.143Z" fill="#FDFDFD"/>
<path d="M42.6981 12.1424C36.4719 11.4039 35.4529 20.7468 33.9071 25.1671C32.8072 28.3086 30.3696 34.654 26.9591 29.4516C26.2457 28.3629 23.0027 19.9865 23.5108 19.4761C24.1675 19.4299 24.8701 19.5602 25.5214 19.4571C29.9696 18.7457 31.5451 8.06963 33.0342 4.46932C37.6202 -6.61676 41.7359 7.42343 42.6981 12.1424Z" fill="#FDFDFD"/>
<path d="M208.086 31.1491H203.492V16.8944C203.492 16.6338 202.908 14.7359 202.735 14.3965C201.567 12.0913 198.292 11.8225 196.327 13.229C194.833 14.296 193.492 17.5814 193.492 19.3408V31.1518H188.898V8.8874H193.492V12.4171C194.344 11.5591 194.762 10.473 195.789 9.70195C198.714 7.51078 203.981 7.93977 206.305 10.8124C206.978 11.6433 208.086 13.9919 208.086 14.9965V31.1518V31.1491Z" fill="#FDFDFD"/>
<path d="M227.274 8.88672V23.1414C227.274 24.1433 228.171 26.1688 229.028 26.8096C231.992 29.0224 235.462 26.891 236.589 23.8147C236.719 23.4618 237.273 21.4498 237.273 21.2435V8.88943H241.867V31.1538H237.273L237.138 27.6214C234.873 33.0056 226.02 33.0979 223.625 27.8957C223.466 27.5508 222.68 25.2293 222.68 25.0447V8.88943H227.274V8.88672Z" fill="#FDFDFD"/>
<path d="M101.61 8.88672V23.1414C101.61 24.1433 102.507 26.1688 103.364 26.8096C106.328 29.0224 109.798 26.891 110.925 23.8147C111.055 23.4618 111.609 21.4498 111.609 21.2435V8.88943H116.203V31.1538H111.609L111.474 27.6214C109.242 33.0002 100.351 33.0898 97.9616 27.8957C97.8021 27.5508 97.0156 25.2293 97.0156 25.0447V8.88943H101.61V8.88672Z" fill="#FDFDFD"/>
<path d="M150.256 8.88672L155.663 25.9923L161.336 8.88672H166.47L158.469 31.1674L153.094 30.8796L145.121 8.88672H150.256Z" fill="#FDFDFD"/>
<path d="M217.006 1.82812V8.88757H221.33V12.6888H217.006V25.0429C217.006 25.1162 217.492 26.2511 217.579 26.3679C218.384 27.4838 220.103 27.4024 221.33 27.3508V31.152H217.141C215.828 31.152 213.652 29.3573 213.082 28.1708C212.974 27.9427 212.412 26.2376 212.412 26.1289V12.6888H208.898V8.88757H212.412V3.86449L217.006 1.82812Z" fill="#FDFDFD"/>
<path d="M133.232 1.82812V8.88757H137.556V12.6888H133.232V25.0429C133.232 25.1162 133.719 26.2511 133.805 26.3679C134.611 27.4838 136.329 27.4024 137.556 27.3508V31.152H133.367C131.905 31.152 129.846 29.2731 129.249 27.959C129.143 27.7309 128.638 26.224 128.638 26.1289V12.6888H125.125V8.88757H128.638V3.86449L133.232 1.82812Z" fill="#FDFDFD"/>
<path d="M124.039 0.470703H119.445V31.1522H124.039V0.470703Z" fill="#FDFDFD"/>
<path d="M256.46 8.61523V12.8238L256.012 13.1876C253.517 13.1659 251.523 14.0483 250.658 16.4974C250.496 16.9563 249.977 18.9953 249.977 19.3429V31.1539H245.383V8.88946H249.977V12.6907L251.185 10.7819C252.593 9.30758 254.428 8.59622 256.463 8.61795L256.46 8.61523Z" fill="#FDFDFD"/>
<path d="M143.77 8.88672H139.176V31.1511H143.77V8.88672Z" fill="#FDFDFD"/>
<path d="M55.6712 19.4746V31.1498C51.0094 31.8721 50.104 28.8609 48.7068 25.2498C48.015 23.4578 47.3259 21.3508 47.0234 19.4746H55.6712Z" fill="#FDFDFD"/>
<path d="M144.04 0.470703H139.176V5.08651H144.04V0.470703Z" fill="#FDFDFD"/>
</g>
<defs>
<clipPath id="clip0_193_1895">
<rect width="278.143" height="31.918" fill="white"/>
</clipPath>
</defs>
</svg>
