<svg width="244" height="28" viewBox="0 0 244 28" fill="none" xmlns="http://www.w3.org/2000/svg">
<g clip-path="url(#clip0_193_1914)">
<path d="M59.5069 7.79466V10.6505L60.5973 9.00941C63.504 6.14641 68.8734 6.88481 70.2936 10.8935C72.1522 5.90347 79.6367 6.27265 81.7607 10.803C81.9101 11.1222 82.5027 12.718 82.5027 12.9157V27.3261H78.4724V14.3448C78.4724 14.2401 77.9201 12.5989 77.8086 12.3917C76.6494 10.1932 73.6102 10.5172 72.3467 12.4798C72.0027 13.0134 71.1234 15.4763 71.1234 16.0145V27.3285H67.0931V14.109C67.0931 14.0066 66.5384 12.3512 66.4317 12.1535C65.289 10.0479 61.8253 10.6244 60.6424 12.6299C60.1446 13.4754 59.5069 15.793 59.5069 16.7291V27.3285H55.4766V7.79707H59.5069V7.79466Z" fill="#282828"/>
<path d="M164.049 18.753H149.113C148.898 24.41 157.247 26.8752 159.545 21.6112H163.219C163.307 21.6112 163.442 21.142 163.805 21.7279C162.373 26.0915 158.409 28.1209 153.964 27.8137C142.106 26.9895 142.17 8.54184 153.528 7.35092C160.751 6.59346 164.433 12.0289 164.049 18.7554V18.753ZM160.019 15.6565C159.4 8.71336 149.96 9.00155 149.113 15.6565H160.019Z" fill="#282828"/>
<path d="M243.942 18.7527H229.007C228.855 24.4287 237.127 26.8701 239.438 21.6109H243.705C240.901 30.3714 227.748 29.7712 225.37 20.8582C221.077 4.75199 245.296 1.777 243.942 18.7527ZM239.912 15.6562C239.275 8.72256 229.908 8.98457 229.007 15.6562H239.912Z" fill="#282828"/>
<path d="M17.0692 10.653C13.8497 10.1957 12.6715 12.125 11.5051 14.7117C10.2865 17.4175 9.8195 20.3997 8.77638 23.165C4.67742 34.0099 1.04549 21.936 0 17.0888C3.70068 17.7439 5.12311 14.1186 6.1686 11.2556C6.94857 9.11671 8.68157 0.880164 11.0309 0.418078C12.8445 0.0607967 13.4515 1.09215 14.1911 2.47126C15.54 4.97938 15.936 8.0377 17.0692 10.653Z" fill="#282828"/>
<path d="M37.4573 10.6517C31.9953 10.0038 31.1015 18.1998 29.7454 22.0776C28.7805 24.8334 26.6421 30.4 23.6503 25.8362C23.0245 24.881 20.1796 17.5329 20.6253 17.0851C21.2014 17.0446 21.8177 17.159 22.3891 17.0685C26.2913 16.4444 27.6734 7.07884 28.9797 3.92047C33.0028 -5.80476 36.6133 6.51196 37.4573 10.6517Z" fill="#282828"/>
<path d="M182.543 27.3256H178.513V14.8207C178.513 14.592 178 12.9271 177.849 12.6294C176.825 10.6072 173.952 10.3714 172.228 11.6052C170.917 12.5412 169.741 15.4233 169.741 16.9668V27.328H165.711V7.79656H169.741V10.893C170.488 10.1403 170.855 9.18756 171.756 8.51112C174.321 6.58892 178.942 6.96526 180.981 9.48529C181.571 10.2141 182.543 12.2745 182.543 13.1558V27.328V27.3256Z" fill="#282828"/>
<path d="M199.374 7.7959V20.3008C199.374 21.1797 200.161 22.9566 200.912 23.5187C203.513 25.4599 206.557 23.5901 207.546 20.8915C207.659 20.5818 208.146 18.8168 208.146 18.6358V7.79828H212.176V27.3297H208.146L208.027 24.2309C206.04 28.9541 198.274 29.0351 196.173 24.4714C196.034 24.1689 195.344 22.1324 195.344 21.9705V7.79828H199.374V7.7959Z" fill="#282828"/>
<path d="M89.1397 7.7959V20.3008C89.1397 21.1797 89.9268 22.9566 90.6784 23.5187C93.2791 25.4599 96.323 23.5901 97.3114 20.8915C97.4253 20.5818 97.9115 18.8168 97.9115 18.6358V7.79828H101.942V27.3297H97.9115L97.7929 24.2309C95.8347 28.9494 88.035 29.028 85.9392 24.4714C85.7993 24.1689 85.1094 22.1324 85.1094 21.9705V7.79828H89.1397V7.7959Z" fill="#282828"/>
<path d="M131.809 7.7959L136.553 22.8017L141.529 7.7959H146.033L139.014 27.3416L134.299 27.0891L127.305 7.7959H131.809Z" fill="#282828"/>
<path d="M190.366 1.60339V7.79627H194.159V11.1309H190.366V21.9685C190.366 22.0328 190.793 23.0284 190.869 23.1308C191.575 24.1098 193.083 24.0383 194.159 23.9931V27.3277H190.485C189.333 27.3277 187.424 25.7533 186.924 24.7124C186.829 24.5123 186.336 23.0165 186.336 22.9212V11.1309H183.254V7.79627H186.336V3.38978L190.366 1.60339Z" fill="#282828"/>
<path d="M116.878 1.60352V7.7964H120.671V11.131H116.878V21.9686C116.878 22.0329 117.304 23.0285 117.38 23.131C118.087 24.1099 119.594 24.0385 120.671 23.9932V27.3278H116.996C115.714 27.3278 113.907 25.6796 113.383 24.5267C113.291 24.3266 112.848 23.0047 112.848 22.9213V11.131H109.766V7.7964H112.848V3.38991L116.878 1.60352Z" fill="#282828"/>
<path d="M108.811 0.413086H104.781V27.3283H108.811V0.413086Z" fill="#282828"/>
<path d="M224.983 7.55762V11.2495L224.59 11.5687C222.402 11.5496 220.652 12.3238 219.893 14.4722C219.751 14.8748 219.296 16.6635 219.296 16.9684V27.3296H215.266V7.79818H219.296V11.1328L220.356 9.45834C221.591 8.16498 223.201 7.54094 224.986 7.56L224.983 7.55762Z" fill="#282828"/>
<path d="M126.124 7.7959H122.094V27.3273H126.124V7.7959Z" fill="#282828"/>
<path d="M48.8362 17.083V27.3251C44.7466 27.9587 43.9524 25.3172 42.7267 22.1493C42.1199 20.5772 41.5153 18.7289 41.25 17.083H48.8362Z" fill="#282828"/>
<path d="M126.361 0.413086H122.094V4.4623H126.361V0.413086Z" fill="#282828"/>
</g>
<defs>
<clipPath id="clip0_193_1914">
<rect width="244" height="28" fill="white"/>
</clipPath>
</defs>
</svg>
