<svg width="375" height="186" viewBox="0 0 375 186" fill="none" xmlns="http://www.w3.org/2000/svg">
<path d="M316.08 29.512L314.544 29.056L320.688 9.952L322.248 10.408L316.08 29.512ZM328.997 28.216C327.717 28.216 326.629 27.888 325.733 27.232C324.853 26.56 324.189 25.576 323.741 24.28C323.293 22.984 323.069 21.4 323.069 19.528C323.069 17.64 323.293 16.056 323.741 14.776C324.189 13.48 324.853 12.504 325.733 11.848C326.629 11.192 327.717 10.864 328.997 10.864C330.293 10.864 331.381 11.192 332.261 11.848C333.141 12.504 333.805 13.472 334.253 14.752C334.701 16.032 334.925 17.616 334.925 19.504C334.925 21.392 334.701 22.984 334.253 24.28C333.805 25.576 333.141 26.56 332.261 27.232C331.381 27.888 330.293 28.216 328.997 28.216ZM328.997 26.512C330.341 26.512 331.333 25.944 331.973 24.808C332.629 23.672 332.957 21.904 332.957 19.504C332.957 17.104 332.637 15.352 331.997 14.248C331.357 13.128 330.357 12.568 328.997 12.568C327.669 12.568 326.677 13.128 326.021 14.248C325.365 15.368 325.037 17.12 325.037 19.504C325.037 21.904 325.357 23.672 325.997 24.808C326.653 25.944 327.653 26.512 328.997 26.512ZM345.236 28V24.376H337.436V22.888L345.572 11.08H347.228V22.696H349.747V24.376H347.228V28H345.236ZM345.236 22.696V13.456H345.812L339.116 23.224V22.696H345.236Z" fill="#4C4648"/>
<path d="M275.555 0C282.182 0 287.555 5.37258 287.555 12V29C287.555 35.6274 292.927 41 299.555 41H363C369.627 41 375 46.3726 375 53V174C375 180.627 369.627 186 363 186H12C5.37259 186 0 180.627 0 174V12C0 5.37258 5.37258 0 12 0H275.555Z" fill="#E9E5E3"/>
<path d="M33.432 44.24C32.2 44.24 31.08 44.04 30.072 43.64C29.08 43.224 28.224 42.632 27.504 41.864C26.8 41.096 26.256 40.176 25.872 39.104C25.488 38.032 25.296 36.84 25.296 35.528C25.296 34.2 25.488 33.008 25.872 31.952C26.256 30.88 26.8 29.968 27.504 29.216C28.224 28.448 29.08 27.864 30.072 27.464C31.08 27.048 32.2 26.84 33.432 26.84C34.664 26.84 35.776 27.048 36.768 27.464C37.776 27.864 38.632 28.44 39.336 29.192C40.056 29.944 40.608 30.856 40.992 31.928C41.376 32.984 41.568 34.176 41.568 35.504C41.568 36.832 41.376 38.032 40.992 39.104C40.608 40.176 40.056 41.096 39.336 41.864C38.632 42.632 37.776 43.224 36.768 43.64C35.776 44.04 34.664 44.24 33.432 44.24ZM33.432 41.6C34.472 41.6 35.352 41.36 36.072 40.88C36.808 40.4 37.368 39.704 37.752 38.792C38.152 37.88 38.352 36.792 38.352 35.528C38.352 34.248 38.16 33.16 37.776 32.264C37.392 31.352 36.832 30.664 36.096 30.2C35.36 29.72 34.472 29.48 33.432 29.48C32.408 29.48 31.528 29.72 30.792 30.2C30.056 30.664 29.488 31.352 29.088 32.264C28.704 33.16 28.512 34.248 28.512 35.528C28.512 36.792 28.704 37.88 29.088 38.792C29.488 39.704 30.056 40.4 30.792 40.88C31.528 41.36 32.408 41.6 33.432 41.6ZM44.4038 48.32V32.264H47.3318V34.736H47.0918C47.3318 33.92 47.8198 33.264 48.5558 32.768C49.3078 32.272 50.1798 32.024 51.1718 32.024C52.1958 32.024 53.0918 32.272 53.8598 32.768C54.6438 33.264 55.2518 33.968 55.6838 34.88C56.1158 35.776 56.3318 36.856 56.3318 38.12C56.3318 39.368 56.1158 40.456 55.6838 41.384C55.2518 42.296 54.6518 43 53.8838 43.496C53.1158 43.992 52.2118 44.24 51.1718 44.24C50.1958 44.24 49.3398 44 48.6038 43.52C47.8678 43.024 47.3718 42.384 47.1158 41.6H47.4038V48.32H44.4038ZM50.3318 41.96C51.2278 41.96 51.9478 41.64 52.4918 41C53.0358 40.344 53.3078 39.384 53.3078 38.12C53.3078 36.84 53.0358 35.888 52.4918 35.264C51.9478 34.624 51.2278 34.304 50.3318 34.304C49.4358 34.304 48.7158 34.624 48.1718 35.264C47.6278 35.888 47.3558 36.84 47.3558 38.12C47.3558 39.384 47.6278 40.344 48.1718 41C48.7158 41.64 49.4358 41.96 50.3318 41.96ZM64.0532 44.24C62.4852 44.24 61.3172 43.848 60.5492 43.064C59.7812 42.28 59.3972 41.136 59.3972 39.632V34.52H57.1412V32.264H59.3972V28.76H62.3972V32.264H65.9492V34.52H62.3972V39.464C62.3972 40.232 62.5652 40.808 62.9012 41.192C63.2372 41.576 63.7812 41.768 64.5332 41.768C64.7572 41.768 64.9892 41.744 65.2292 41.696C65.4692 41.632 65.7172 41.568 65.9732 41.504L66.4292 43.712C66.1412 43.872 65.7732 44 65.3252 44.096C64.8932 44.192 64.4692 44.24 64.0532 44.24ZM67.6961 29.744V26.816H71.0561V29.744H67.6961ZM67.8881 44V32.264H70.8881V44H67.8881ZM74.0533 44V32.264H76.9813V34.616H76.7173C76.9253 34.072 77.2133 33.608 77.5813 33.224C77.9493 32.84 78.3893 32.544 78.9013 32.336C79.4133 32.128 79.9813 32.024 80.6053 32.024C81.5493 32.024 82.3253 32.248 82.9333 32.696C83.5413 33.144 83.9653 33.832 84.2053 34.76H83.8693C84.1893 33.912 84.7173 33.248 85.4533 32.768C86.1893 32.272 87.0373 32.024 87.9973 32.024C88.8933 32.024 89.6293 32.2 90.2053 32.552C90.7973 32.904 91.2373 33.44 91.5253 34.16C91.8133 34.864 91.9573 35.76 91.9573 36.848V44H88.9573V36.968C88.9573 36.072 88.8053 35.416 88.5013 35C88.2133 34.584 87.7173 34.376 87.0133 34.376C86.5013 34.376 86.0533 34.504 85.6693 34.76C85.2853 35 84.9893 35.352 84.7813 35.816C84.5893 36.28 84.4933 36.84 84.4933 37.496V44H81.4933V36.968C81.4933 36.072 81.3413 35.416 81.0373 35C80.7493 34.584 80.2613 34.376 79.5733 34.376C79.0453 34.376 78.5893 34.504 78.2053 34.76C77.8373 35 77.5493 35.352 77.3413 35.816C77.1493 36.28 77.0533 36.84 77.0533 37.496V44H74.0533ZM94.8602 29.744V26.816H98.2202V29.744H94.8602ZM95.0522 44V32.264H98.0522V44H95.0522ZM100.785 44V42.056L107.409 33.8V34.52H100.785V32.264H110.097V34.208L103.401 42.536V41.744H110.361V44H100.785ZM118.086 44.24C116.758 44.24 115.614 43.992 114.654 43.496C113.694 43 112.95 42.296 112.422 41.384C111.91 40.472 111.654 39.392 111.654 38.144C111.654 36.928 111.902 35.864 112.398 34.952C112.91 34.04 113.606 33.328 114.486 32.816C115.382 32.288 116.398 32.024 117.534 32.024C118.654 32.024 119.614 32.264 120.414 32.744C121.214 33.224 121.83 33.904 122.262 34.784C122.71 35.664 122.934 36.712 122.934 37.928V38.816H114.078V37.088H120.822L120.438 37.448C120.438 36.36 120.198 35.528 119.718 34.952C119.238 34.36 118.55 34.064 117.654 34.064C116.982 34.064 116.406 34.224 115.926 34.544C115.462 34.848 115.102 35.288 114.846 35.864C114.606 36.424 114.486 37.096 114.486 37.88V38.048C114.486 38.928 114.622 39.656 114.894 40.232C115.166 40.808 115.574 41.24 116.118 41.528C116.662 41.816 117.334 41.96 118.134 41.96C118.79 41.96 119.446 41.864 120.102 41.672C120.758 41.464 121.358 41.144 121.902 40.712L122.742 42.728C122.182 43.192 121.478 43.56 120.63 43.832C119.782 44.104 118.934 44.24 118.086 44.24ZM31.224 68.24C30.024 68.24 28.984 68.048 28.104 67.664C27.224 67.28 26.544 66.752 26.064 66.08C25.6 65.392 25.368 64.592 25.368 63.68C25.368 62.96 25.504 62.304 25.776 61.712C26.048 61.104 26.44 60.552 26.952 60.056C27.464 59.544 28.08 59.08 28.8 58.664L29.616 58.184L29.184 58.832C28.48 58.128 27.968 57.464 27.648 56.84C27.344 56.2 27.192 55.544 27.192 54.872C27.192 54.072 27.384 53.368 27.768 52.76C28.152 52.152 28.696 51.68 29.4 51.344C30.104 51.008 30.928 50.84 31.872 50.84C32.752 50.84 33.504 50.992 34.128 51.296C34.768 51.6 35.264 52.032 35.616 52.592C35.968 53.136 36.144 53.784 36.144 54.536C36.144 55.144 36.024 55.72 35.784 56.264C35.544 56.808 35.16 57.328 34.632 57.824C34.104 58.32 33.4 58.808 32.52 59.288L32.544 58.568L36.624 62.912H35.976C36.36 62.256 36.664 61.488 36.888 60.608C37.112 59.728 37.248 58.808 37.296 57.848H39.792C39.744 59.16 39.536 60.4 39.168 61.568C38.816 62.736 38.328 63.768 37.704 64.664L37.68 63.92L41.736 68H38.088L36.024 65.816H36.72C36.016 66.568 35.184 67.16 34.224 67.592C33.28 68.024 32.28 68.24 31.224 68.24ZM31.392 65.864C32.16 65.864 32.84 65.72 33.432 65.432C34.04 65.128 34.592 64.68 35.088 64.088L35.016 64.856L30.072 59.744L31.32 59.864L30.624 60.272C30.08 60.592 29.64 60.912 29.304 61.232C28.968 61.536 28.72 61.872 28.56 62.24C28.416 62.592 28.344 62.992 28.344 63.44C28.344 64.192 28.608 64.784 29.136 65.216C29.664 65.648 30.416 65.864 31.392 65.864ZM31.872 52.976C31.296 52.976 30.832 53.144 30.48 53.48C30.128 53.8 29.952 54.24 29.952 54.8C29.952 55.104 30 55.392 30.096 55.664C30.192 55.92 30.36 56.208 30.6 56.528C30.84 56.832 31.168 57.208 31.584 57.656L30.912 57.608C31.584 57.224 32.112 56.88 32.496 56.576C32.896 56.272 33.184 55.968 33.36 55.664C33.536 55.36 33.624 55.024 33.624 54.656C33.624 54.112 33.464 53.696 33.144 53.408C32.824 53.12 32.4 52.976 31.872 52.976ZM55.5628 68.24C54.6828 68.24 53.8348 68.16 53.0188 68C52.2188 67.856 51.4748 67.64 50.7868 67.352C50.1148 67.064 49.5148 66.72 48.9868 66.32L49.9228 63.896C50.4508 64.264 51.0028 64.584 51.5788 64.856C52.1708 65.112 52.7948 65.312 53.4508 65.456C54.1228 65.584 54.8268 65.648 55.5628 65.648C56.8268 65.648 57.7468 65.44 58.3228 65.024C58.8988 64.592 59.1868 64.04 59.1868 63.368C59.1868 63 59.0988 62.688 58.9228 62.432C58.7468 62.16 58.4588 61.928 58.0588 61.736C57.6588 61.544 57.1308 61.384 56.4748 61.256L53.8348 60.704C52.3148 60.384 51.1788 59.848 50.4268 59.096C49.6908 58.328 49.3228 57.32 49.3228 56.072C49.3228 55.016 49.6028 54.096 50.1628 53.312C50.7228 52.528 51.4988 51.92 52.4908 51.488C53.4828 51.056 54.6268 50.84 55.9228 50.84C56.6908 50.84 57.4268 50.92 58.1308 51.08C58.8508 51.224 59.5068 51.448 60.0988 51.752C60.7068 52.04 61.2348 52.392 61.6828 52.808L60.7468 55.112C60.0748 54.552 59.3388 54.136 58.5388 53.864C57.7388 53.576 56.8588 53.432 55.8988 53.432C55.1628 53.432 54.5308 53.536 54.0028 53.744C53.4748 53.952 53.0668 54.248 52.7788 54.632C52.5068 55 52.3708 55.44 52.3708 55.952C52.3708 56.528 52.5628 56.992 52.9468 57.344C53.3308 57.68 53.9868 57.944 54.9148 58.136L57.5308 58.688C59.1148 59.024 60.2908 59.552 61.0588 60.272C61.8428 60.992 62.2348 61.952 62.2348 63.152C62.2348 64.16 61.9628 65.048 61.4188 65.816C60.8748 66.584 60.0988 67.184 59.0908 67.616C58.0988 68.032 56.9228 68.24 55.5628 68.24ZM70.0074 68.24C68.7754 68.24 67.7034 67.992 66.7914 67.496C65.8794 66.984 65.1754 66.264 64.6794 65.336C64.1834 64.408 63.9354 63.32 63.9354 62.072C63.9354 60.824 64.1834 59.752 64.6794 58.856C65.1754 57.944 65.8794 57.248 66.7914 56.768C67.7034 56.272 68.7754 56.024 70.0074 56.024C70.7594 56.024 71.5034 56.144 72.2394 56.384C72.9754 56.624 73.5834 56.96 74.0634 57.392L73.1754 59.48C72.7594 59.112 72.2874 58.832 71.7594 58.64C71.2474 58.448 70.7514 58.352 70.2714 58.352C69.2314 58.352 68.4234 58.68 67.8474 59.336C67.2874 59.976 67.0074 60.896 67.0074 62.096C67.0074 63.28 67.2874 64.216 67.8474 64.904C68.4234 65.576 69.2314 65.912 70.2714 65.912C70.7354 65.912 71.2314 65.816 71.7594 65.624C72.2874 65.432 72.7594 65.144 73.1754 64.76L74.0634 66.872C73.5834 67.288 72.9674 67.624 72.2154 67.88C71.4794 68.12 70.7434 68.24 70.0074 68.24ZM79.6974 68.24C78.8494 68.24 78.0894 68.08 77.4174 67.76C76.7614 67.424 76.2414 66.976 75.8574 66.416C75.4894 65.856 75.3054 65.224 75.3054 64.52C75.3054 63.656 75.5294 62.976 75.9774 62.48C76.4254 61.968 77.1534 61.6 78.1614 61.376C79.1694 61.152 80.5214 61.04 82.2174 61.04H83.4174V62.768H82.2414C81.4894 62.768 80.8574 62.8 80.3454 62.864C79.8334 62.912 79.4174 63 79.0974 63.128C78.7934 63.24 78.5694 63.4 78.4254 63.608C78.2974 63.816 78.2334 64.072 78.2334 64.376C78.2334 64.904 78.4174 65.336 78.7854 65.672C79.1534 66.008 79.6654 66.176 80.3214 66.176C80.8494 66.176 81.3134 66.056 81.7134 65.816C82.1294 65.56 82.4574 65.216 82.6974 64.784C82.9374 64.352 83.0574 63.856 83.0574 63.296V60.536C83.0574 59.736 82.8814 59.16 82.5294 58.808C82.1774 58.456 81.5854 58.28 80.7534 58.28C80.0974 58.28 79.4254 58.384 78.7374 58.592C78.0494 58.784 77.3534 59.088 76.6494 59.504L75.7854 57.464C76.2014 57.176 76.6894 56.928 77.2494 56.72C77.8254 56.496 78.4254 56.328 79.0494 56.216C79.6894 56.088 80.2894 56.024 80.8494 56.024C82.0014 56.024 82.9454 56.2 83.6814 56.552C84.4334 56.904 84.9934 57.44 85.3614 58.16C85.7294 58.864 85.9134 59.776 85.9134 60.896V68H83.1054V65.504H83.2974C83.1854 66.064 82.9614 66.552 82.6254 66.968C82.3054 67.368 81.8974 67.68 81.4014 67.904C80.9054 68.128 80.3374 68.24 79.6974 68.24ZM93.0384 68.24C91.6464 68.24 90.6144 67.864 89.9424 67.112C89.2864 66.344 88.9584 65.224 88.9584 63.752V51.08H91.9584V63.608C91.9584 64.072 92.0224 64.472 92.1504 64.808C92.2944 65.128 92.5024 65.368 92.7744 65.528C93.0464 65.688 93.3824 65.768 93.7824 65.768C93.9584 65.768 94.1344 65.76 94.3104 65.744C94.4864 65.728 94.6544 65.696 94.8144 65.648L94.7664 68.024C94.4784 68.088 94.1904 68.136 93.9024 68.168C93.6304 68.216 93.3424 68.24 93.0384 68.24ZM102.289 68.24C100.961 68.24 99.8173 67.992 98.8573 67.496C97.8973 67 97.1533 66.296 96.6253 65.384C96.1133 64.472 95.8573 63.392 95.8573 62.144C95.8573 60.928 96.1053 59.864 96.6013 58.952C97.1133 58.04 97.8093 57.328 98.6893 56.816C99.5853 56.288 100.601 56.024 101.737 56.024C102.857 56.024 103.817 56.264 104.617 56.744C105.417 57.224 106.033 57.904 106.465 58.784C106.913 59.664 107.137 60.712 107.137 61.928V62.816H98.2813V61.088H105.025L104.641 61.448C104.641 60.36 104.401 59.528 103.921 58.952C103.441 58.36 102.753 58.064 101.857 58.064C101.185 58.064 100.609 58.224 100.129 58.544C99.6653 58.848 99.3053 59.288 99.0493 59.864C98.8093 60.424 98.6893 61.096 98.6893 61.88V62.048C98.6893 62.928 98.8253 63.656 99.0973 64.232C99.3693 64.808 99.7773 65.24 100.321 65.528C100.865 65.816 101.537 65.96 102.337 65.96C102.993 65.96 103.649 65.864 104.305 65.672C104.961 65.464 105.561 65.144 106.105 64.712L106.945 66.728C106.385 67.192 105.681 67.56 104.833 67.832C103.985 68.104 103.137 68.24 102.289 68.24Z" fill="#282828"/>
<path d="M25.5625 123.578H28.7969C30.224 123.578 31.2969 123.792 32.0156 124.219C32.7344 124.646 33.0938 125.372 33.0938 126.398C33.0938 126.841 33.0078 127.24 32.8359 127.594C32.6693 127.943 32.4245 128.232 32.1016 128.461C31.7786 128.69 31.3802 128.849 30.9062 128.938V129.016C31.4062 129.094 31.849 129.237 32.2344 129.445C32.6198 129.654 32.9219 129.945 33.1406 130.32C33.3594 130.695 33.4688 131.172 33.4688 131.75C33.4688 132.453 33.3047 133.047 32.9766 133.531C32.6536 134.016 32.1953 134.383 31.6016 134.633C31.0078 134.878 30.3047 135 29.4922 135H25.5625V123.578ZM26.8906 128.477H29.0781C30.0729 128.477 30.7604 128.312 31.1406 127.984C31.526 127.656 31.7188 127.177 31.7188 126.547C31.7188 125.896 31.4896 125.427 31.0312 125.141C30.5781 124.854 29.8542 124.711 28.8594 124.711H26.8906V128.477ZM26.8906 129.594V133.867H29.2656C30.2812 133.867 31 133.669 31.4219 133.273C31.8438 132.872 32.0547 132.333 32.0547 131.656C32.0547 131.224 31.9583 130.854 31.7656 130.547C31.5781 130.24 31.2708 130.005 30.8438 129.844C30.4219 129.677 29.8568 129.594 29.1484 129.594H26.8906ZM38.9141 126.297C39.9349 126.297 40.6927 126.526 41.1875 126.984C41.6823 127.443 41.9297 128.174 41.9297 129.18V135H40.9844L40.7344 133.734H40.6719C40.4323 134.047 40.1823 134.31 39.9219 134.523C39.6615 134.732 39.3594 134.891 39.0156 135C38.6771 135.104 38.2604 135.156 37.7656 135.156C37.2448 135.156 36.7812 135.065 36.375 134.883C35.974 134.701 35.6562 134.424 35.4219 134.055C35.1927 133.685 35.0781 133.216 35.0781 132.648C35.0781 131.794 35.4167 131.138 36.0938 130.68C36.7708 130.221 37.8021 129.971 39.1875 129.93L40.6641 129.867V129.344C40.6641 128.604 40.5052 128.086 40.1875 127.789C39.8698 127.492 39.4219 127.344 38.8438 127.344C38.3958 127.344 37.9688 127.409 37.5625 127.539C37.1562 127.669 36.7708 127.823 36.4062 128L36.0078 127.016C36.3932 126.818 36.8359 126.648 37.3359 126.508C37.8359 126.367 38.362 126.297 38.9141 126.297ZM40.6484 130.781L39.3438 130.836C38.276 130.878 37.5234 131.052 37.0859 131.359C36.6484 131.667 36.4297 132.102 36.4297 132.664C36.4297 133.154 36.5781 133.516 36.875 133.75C37.1719 133.984 37.5651 134.102 38.0547 134.102C38.8151 134.102 39.4375 133.891 39.9219 133.469C40.4062 133.047 40.6484 132.414 40.6484 131.57V130.781ZM50.1406 132.656C50.1406 133.203 50.0026 133.664 49.7266 134.039C49.4557 134.409 49.0651 134.688 48.5547 134.875C48.0495 135.062 47.4453 135.156 46.7422 135.156C46.1432 135.156 45.625 135.109 45.1875 135.016C44.75 134.922 44.3672 134.789 44.0391 134.617V133.422C44.388 133.594 44.8047 133.75 45.2891 133.891C45.7734 134.031 46.2682 134.102 46.7734 134.102C47.513 134.102 48.0495 133.982 48.3828 133.742C48.7161 133.503 48.8828 133.177 48.8828 132.766C48.8828 132.531 48.8151 132.326 48.6797 132.148C48.5495 131.966 48.3281 131.792 48.0156 131.625C47.7031 131.453 47.2708 131.266 46.7188 131.062C46.1719 130.854 45.6979 130.648 45.2969 130.445C44.901 130.237 44.5938 129.984 44.375 129.688C44.1615 129.391 44.0547 129.005 44.0547 128.531C44.0547 127.807 44.3464 127.253 44.9297 126.867C45.5182 126.477 46.2891 126.281 47.2422 126.281C47.7578 126.281 48.2396 126.333 48.6875 126.438C49.1406 126.536 49.5625 126.672 49.9531 126.844L49.5156 127.883C49.1615 127.732 48.7839 127.604 48.3828 127.5C47.9818 127.396 47.5729 127.344 47.1562 127.344C46.5573 127.344 46.0964 127.443 45.7734 127.641C45.4557 127.839 45.2969 128.109 45.2969 128.453C45.2969 128.719 45.3698 128.938 45.5156 129.109C45.6667 129.281 45.9062 129.443 46.2344 129.594C46.5625 129.745 46.9948 129.922 47.5312 130.125C48.0677 130.323 48.5312 130.529 48.9219 130.742C49.3125 130.951 49.612 131.206 49.8203 131.508C50.0339 131.805 50.1406 132.188 50.1406 132.656ZM55.5234 126.281C56.2526 126.281 56.8776 126.443 57.3984 126.766C57.9193 127.089 58.3177 127.542 58.5938 128.125C58.8698 128.703 59.0078 129.38 59.0078 130.156V130.961H53.0938C53.1094 131.966 53.3594 132.732 53.8438 133.258C54.3281 133.784 55.0104 134.047 55.8906 134.047C56.4323 134.047 56.9115 133.997 57.3281 133.898C57.7448 133.799 58.1771 133.654 58.625 133.461V134.602C58.1927 134.794 57.763 134.935 57.3359 135.023C56.9141 135.112 56.4141 135.156 55.8359 135.156C55.013 135.156 54.2943 134.99 53.6797 134.656C53.0703 134.318 52.5964 133.823 52.2578 133.172C51.9193 132.521 51.75 131.724 51.75 130.781C51.75 129.859 51.9036 129.062 52.2109 128.391C52.5234 127.714 52.9609 127.193 53.5234 126.828C54.0911 126.464 54.7578 126.281 55.5234 126.281ZM55.5078 127.344C54.8151 127.344 54.263 127.57 53.8516 128.023C53.4401 128.477 53.1953 129.109 53.1172 129.922H57.6484C57.6432 129.411 57.5625 128.964 57.4062 128.578C57.2552 128.188 57.0234 127.885 56.7109 127.672C56.3984 127.453 55.9974 127.344 55.5078 127.344ZM64.2578 135.156C63.1745 135.156 62.3151 134.786 61.6797 134.047C61.0495 133.307 60.7344 132.208 60.7344 130.75C60.7344 129.276 61.0573 128.164 61.7031 127.414C62.349 126.659 63.2083 126.281 64.2812 126.281C64.7344 126.281 65.1302 126.341 65.4688 126.461C65.8073 126.581 66.099 126.742 66.3438 126.945C66.5885 127.143 66.7943 127.37 66.9609 127.625H67.0547C67.0339 127.464 67.013 127.242 66.9922 126.961C66.9714 126.68 66.9609 126.451 66.9609 126.273V122.844H68.2578V135H67.2109L67.0156 133.781H66.9609C66.7995 134.036 66.5938 134.268 66.3438 134.477C66.099 134.685 65.8047 134.852 65.4609 134.977C65.1224 135.096 64.7214 135.156 64.2578 135.156ZM64.4609 134.078C65.3776 134.078 66.026 133.818 66.4062 133.297C66.7865 132.776 66.9766 132.003 66.9766 130.977V130.742C66.9766 129.654 66.7943 128.818 66.4297 128.234C66.0703 127.651 65.4141 127.359 64.4609 127.359C63.6641 127.359 63.0677 127.667 62.6719 128.281C62.276 128.891 62.0781 129.724 62.0781 130.781C62.0781 131.833 62.2734 132.646 62.6641 133.219C63.0599 133.792 63.6589 134.078 64.4609 134.078ZM82.5469 130.703C82.5469 131.406 82.4557 132.034 82.2734 132.586C82.0911 133.138 81.8281 133.604 81.4844 133.984C81.1406 134.365 80.724 134.656 80.2344 134.859C79.75 135.057 79.2005 135.156 78.5859 135.156C78.013 135.156 77.487 135.057 77.0078 134.859C76.5339 134.656 76.1224 134.365 75.7734 133.984C75.4297 133.604 75.1615 133.138 74.9688 132.586C74.7812 132.034 74.6875 131.406 74.6875 130.703C74.6875 129.766 74.8464 128.969 75.1641 128.312C75.4818 127.651 75.9349 127.148 76.5234 126.805C77.1172 126.456 77.8229 126.281 78.6406 126.281C79.4219 126.281 80.1042 126.456 80.6875 126.805C81.276 127.154 81.7318 127.659 82.0547 128.32C82.3828 128.977 82.5469 129.771 82.5469 130.703ZM76.0312 130.703C76.0312 131.391 76.1224 131.987 76.3047 132.492C76.487 132.997 76.7682 133.388 77.1484 133.664C77.5286 133.94 78.0182 134.078 78.6172 134.078C79.2109 134.078 79.6979 133.94 80.0781 133.664C80.4635 133.388 80.7474 132.997 80.9297 132.492C81.112 131.987 81.2031 131.391 81.2031 130.703C81.2031 130.021 81.112 129.432 80.9297 128.938C80.7474 128.438 80.4661 128.052 80.0859 127.781C79.7057 127.51 79.2135 127.375 78.6094 127.375C77.7188 127.375 77.0651 127.669 76.6484 128.258C76.237 128.846 76.0312 129.661 76.0312 130.703ZM88.8438 126.281C89.8594 126.281 90.6276 126.531 91.1484 127.031C91.6693 127.526 91.9297 128.323 91.9297 129.422V135H90.6484V129.508C90.6484 128.794 90.4844 128.26 90.1562 127.906C89.8333 127.552 89.3359 127.375 88.6641 127.375C87.7161 127.375 87.0495 127.643 86.6641 128.18C86.2786 128.716 86.0859 129.495 86.0859 130.516V135H84.7891V126.438H85.8359L86.0312 127.672H86.1016C86.2839 127.37 86.5156 127.117 86.7969 126.914C87.0781 126.706 87.3932 126.549 87.7422 126.445C88.0911 126.336 88.4583 126.281 88.8438 126.281ZM102.648 126.281C102.82 126.281 103 126.292 103.188 126.312C103.375 126.328 103.542 126.352 103.688 126.383L103.523 127.586C103.383 127.549 103.227 127.521 103.055 127.5C102.883 127.479 102.721 127.469 102.57 127.469C102.227 127.469 101.901 127.539 101.594 127.68C101.292 127.815 101.026 128.013 100.797 128.273C100.568 128.529 100.388 128.839 100.258 129.203C100.128 129.562 100.062 129.964 100.062 130.406V135H98.7578V126.438H99.8359L99.9766 128.016H100.031C100.208 127.698 100.422 127.409 100.672 127.148C100.922 126.883 101.211 126.672 101.539 126.516C101.872 126.359 102.242 126.281 102.648 126.281ZM108.602 126.281C109.331 126.281 109.956 126.443 110.477 126.766C110.997 127.089 111.396 127.542 111.672 128.125C111.948 128.703 112.086 129.38 112.086 130.156V130.961H106.172C106.188 131.966 106.438 132.732 106.922 133.258C107.406 133.784 108.089 134.047 108.969 134.047C109.51 134.047 109.99 133.997 110.406 133.898C110.823 133.799 111.255 133.654 111.703 133.461V134.602C111.271 134.794 110.841 134.935 110.414 135.023C109.992 135.112 109.492 135.156 108.914 135.156C108.091 135.156 107.372 134.99 106.758 134.656C106.148 134.318 105.674 133.823 105.336 133.172C104.997 132.521 104.828 131.724 104.828 130.781C104.828 129.859 104.982 129.062 105.289 128.391C105.602 127.714 106.039 127.193 106.602 126.828C107.169 126.464 107.836 126.281 108.602 126.281ZM108.586 127.344C107.893 127.344 107.341 127.57 106.93 128.023C106.518 128.477 106.273 129.109 106.195 129.922H110.727C110.721 129.411 110.641 128.964 110.484 128.578C110.333 128.188 110.102 127.885 109.789 127.672C109.477 127.453 109.076 127.344 108.586 127.344ZM117.492 126.297C118.513 126.297 119.271 126.526 119.766 126.984C120.26 127.443 120.508 128.174 120.508 129.18V135H119.562L119.312 133.734H119.25C119.01 134.047 118.76 134.31 118.5 134.523C118.24 134.732 117.938 134.891 117.594 135C117.255 135.104 116.839 135.156 116.344 135.156C115.823 135.156 115.359 135.065 114.953 134.883C114.552 134.701 114.234 134.424 114 134.055C113.771 133.685 113.656 133.216 113.656 132.648C113.656 131.794 113.995 131.138 114.672 130.68C115.349 130.221 116.38 129.971 117.766 129.93L119.242 129.867V129.344C119.242 128.604 119.083 128.086 118.766 127.789C118.448 127.492 118 127.344 117.422 127.344C116.974 127.344 116.547 127.409 116.141 127.539C115.734 127.669 115.349 127.823 114.984 128L114.586 127.016C114.971 126.818 115.414 126.648 115.914 126.508C116.414 126.367 116.94 126.297 117.492 126.297ZM119.227 130.781L117.922 130.836C116.854 130.878 116.102 131.052 115.664 131.359C115.227 131.667 115.008 132.102 115.008 132.664C115.008 133.154 115.156 133.516 115.453 133.75C115.75 133.984 116.143 134.102 116.633 134.102C117.393 134.102 118.016 133.891 118.5 133.469C118.984 133.047 119.227 132.414 119.227 131.57V130.781ZM124.484 135H123.18V122.844H124.484V135ZM126.5 131.281V130.125H130.375V131.281H126.5ZM135.148 134.094C135.362 134.094 135.581 134.076 135.805 134.039C136.029 134.003 136.211 133.958 136.352 133.906V134.914C136.201 134.982 135.99 135.039 135.719 135.086C135.453 135.133 135.193 135.156 134.938 135.156C134.484 135.156 134.073 135.078 133.703 134.922C133.333 134.76 133.036 134.49 132.812 134.109C132.594 133.729 132.484 133.203 132.484 132.531V127.453H131.266V126.82L132.492 126.312L133.008 124.453H133.789V126.438H136.297V127.453H133.789V132.492C133.789 133.029 133.911 133.43 134.156 133.695C134.406 133.961 134.737 134.094 135.148 134.094ZM139.383 126.438V135H138.086V126.438H139.383ZM138.75 123.234C138.964 123.234 139.146 123.305 139.297 123.445C139.453 123.581 139.531 123.794 139.531 124.086C139.531 124.372 139.453 124.586 139.297 124.727C139.146 124.867 138.964 124.938 138.75 124.938C138.526 124.938 138.339 124.867 138.188 124.727C138.042 124.586 137.969 124.372 137.969 124.086C137.969 123.794 138.042 123.581 138.188 123.445C138.339 123.305 138.526 123.234 138.75 123.234ZM151.43 126.281C152.372 126.281 153.083 126.529 153.562 127.023C154.042 127.513 154.281 128.302 154.281 129.391V135H153V129.453C153 128.76 152.849 128.242 152.547 127.898C152.25 127.549 151.807 127.375 151.219 127.375C150.391 127.375 149.789 127.615 149.414 128.094C149.039 128.573 148.852 129.279 148.852 130.211V135H147.562V129.453C147.562 128.99 147.495 128.604 147.359 128.297C147.229 127.99 147.031 127.76 146.766 127.609C146.505 127.453 146.174 127.375 145.773 127.375C145.206 127.375 144.75 127.492 144.406 127.727C144.062 127.961 143.812 128.31 143.656 128.773C143.505 129.232 143.43 129.797 143.43 130.469V135H142.133V126.438H143.18L143.375 127.648H143.445C143.617 127.352 143.833 127.102 144.094 126.898C144.354 126.695 144.646 126.542 144.969 126.438C145.292 126.333 145.635 126.281 146 126.281C146.651 126.281 147.195 126.404 147.633 126.648C148.076 126.888 148.396 127.255 148.594 127.75H148.664C148.945 127.255 149.331 126.888 149.82 126.648C150.31 126.404 150.846 126.281 151.43 126.281ZM160.242 126.281C160.971 126.281 161.596 126.443 162.117 126.766C162.638 127.089 163.036 127.542 163.312 128.125C163.589 128.703 163.727 129.38 163.727 130.156V130.961H157.812C157.828 131.966 158.078 132.732 158.562 133.258C159.047 133.784 159.729 134.047 160.609 134.047C161.151 134.047 161.63 133.997 162.047 133.898C162.464 133.799 162.896 133.654 163.344 133.461V134.602C162.911 134.794 162.482 134.935 162.055 135.023C161.633 135.112 161.133 135.156 160.555 135.156C159.732 135.156 159.013 134.99 158.398 134.656C157.789 134.318 157.315 133.823 156.977 133.172C156.638 132.521 156.469 131.724 156.469 130.781C156.469 129.859 156.622 129.062 156.93 128.391C157.242 127.714 157.68 127.193 158.242 126.828C158.81 126.464 159.477 126.281 160.242 126.281ZM160.227 127.344C159.534 127.344 158.982 127.57 158.57 128.023C158.159 128.477 157.914 129.109 157.836 129.922H162.367C162.362 129.411 162.281 128.964 162.125 128.578C161.974 128.188 161.742 127.885 161.43 127.672C161.117 127.453 160.716 127.344 160.227 127.344ZM173.133 135.156C172.049 135.156 171.19 134.786 170.555 134.047C169.924 133.307 169.609 132.208 169.609 130.75C169.609 129.276 169.932 128.164 170.578 127.414C171.224 126.659 172.083 126.281 173.156 126.281C173.609 126.281 174.005 126.341 174.344 126.461C174.682 126.581 174.974 126.742 175.219 126.945C175.464 127.143 175.669 127.37 175.836 127.625H175.93C175.909 127.464 175.888 127.242 175.867 126.961C175.846 126.68 175.836 126.451 175.836 126.273V122.844H177.133V135H176.086L175.891 133.781H175.836C175.674 134.036 175.469 134.268 175.219 134.477C174.974 134.685 174.68 134.852 174.336 134.977C173.997 135.096 173.596 135.156 173.133 135.156ZM173.336 134.078C174.253 134.078 174.901 133.818 175.281 133.297C175.661 132.776 175.852 132.003 175.852 130.977V130.742C175.852 129.654 175.669 128.818 175.305 128.234C174.945 127.651 174.289 127.359 173.336 127.359C172.539 127.359 171.943 127.667 171.547 128.281C171.151 128.891 170.953 129.724 170.953 130.781C170.953 131.833 171.148 132.646 171.539 133.219C171.935 133.792 172.534 134.078 173.336 134.078ZM183.086 126.297C184.107 126.297 184.865 126.526 185.359 126.984C185.854 127.443 186.102 128.174 186.102 129.18V135H185.156L184.906 133.734H184.844C184.604 134.047 184.354 134.31 184.094 134.523C183.833 134.732 183.531 134.891 183.188 135C182.849 135.104 182.432 135.156 181.938 135.156C181.417 135.156 180.953 135.065 180.547 134.883C180.146 134.701 179.828 134.424 179.594 134.055C179.365 133.685 179.25 133.216 179.25 132.648C179.25 131.794 179.589 131.138 180.266 130.68C180.943 130.221 181.974 129.971 183.359 129.93L184.836 129.867V129.344C184.836 128.604 184.677 128.086 184.359 127.789C184.042 127.492 183.594 127.344 183.016 127.344C182.568 127.344 182.141 127.409 181.734 127.539C181.328 127.669 180.943 127.823 180.578 128L180.18 127.016C180.565 126.818 181.008 126.648 181.508 126.508C182.008 126.367 182.534 126.297 183.086 126.297ZM184.82 130.781L183.516 130.836C182.448 130.878 181.695 131.052 181.258 131.359C180.82 131.667 180.602 132.102 180.602 132.664C180.602 133.154 180.75 133.516 181.047 133.75C181.344 133.984 181.737 134.102 182.227 134.102C182.987 134.102 183.609 133.891 184.094 133.469C184.578 133.047 184.82 132.414 184.82 131.57V130.781ZM191.539 134.094C191.753 134.094 191.971 134.076 192.195 134.039C192.419 134.003 192.602 133.958 192.742 133.906V134.914C192.591 134.982 192.38 135.039 192.109 135.086C191.844 135.133 191.583 135.156 191.328 135.156C190.875 135.156 190.464 135.078 190.094 134.922C189.724 134.76 189.427 134.49 189.203 134.109C188.984 133.729 188.875 133.203 188.875 132.531V127.453H187.656V126.82L188.883 126.312L189.398 124.453H190.18V126.438H192.688V127.453H190.18V132.492C190.18 133.029 190.302 133.43 190.547 133.695C190.797 133.961 191.128 134.094 191.539 134.094ZM197.68 126.297C198.701 126.297 199.458 126.526 199.953 126.984C200.448 127.443 200.695 128.174 200.695 129.18V135H199.75L199.5 133.734H199.438C199.198 134.047 198.948 134.31 198.688 134.523C198.427 134.732 198.125 134.891 197.781 135C197.443 135.104 197.026 135.156 196.531 135.156C196.01 135.156 195.547 135.065 195.141 134.883C194.74 134.701 194.422 134.424 194.188 134.055C193.958 133.685 193.844 133.216 193.844 132.648C193.844 131.794 194.182 131.138 194.859 130.68C195.536 130.221 196.568 129.971 197.953 129.93L199.43 129.867V129.344C199.43 128.604 199.271 128.086 198.953 127.789C198.635 127.492 198.188 127.344 197.609 127.344C197.161 127.344 196.734 127.409 196.328 127.539C195.922 127.669 195.536 127.823 195.172 128L194.773 127.016C195.159 126.818 195.602 126.648 196.102 126.508C196.602 126.367 197.128 126.297 197.68 126.297ZM199.414 130.781L198.109 130.836C197.042 130.878 196.289 131.052 195.852 131.359C195.414 131.667 195.195 132.102 195.195 132.664C195.195 133.154 195.344 133.516 195.641 133.75C195.938 133.984 196.331 134.102 196.82 134.102C197.581 134.102 198.203 133.891 198.688 133.469C199.172 133.047 199.414 132.414 199.414 131.57V130.781ZM204.852 133.141L204.953 133.32C204.859 133.701 204.74 134.107 204.594 134.539C204.453 134.971 204.297 135.404 204.125 135.836C203.958 136.273 203.789 136.682 203.617 137.062H202.648C202.758 136.646 202.865 136.206 202.969 135.742C203.073 135.284 203.167 134.831 203.25 134.383C203.339 133.93 203.409 133.516 203.461 133.141H204.852ZM218.633 134.984L217.109 130C217.042 129.786 216.977 129.578 216.914 129.375C216.857 129.167 216.802 128.969 216.75 128.781C216.703 128.589 216.659 128.411 216.617 128.25C216.581 128.083 216.549 127.94 216.523 127.82H216.469C216.448 127.94 216.419 128.083 216.383 128.25C216.346 128.411 216.302 128.589 216.25 128.781C216.203 128.974 216.151 129.177 216.094 129.391C216.036 129.599 215.971 129.81 215.898 130.023L214.305 134.984H212.844L210.484 126.422H211.828L213.062 131.148C213.146 131.461 213.224 131.771 213.297 132.078C213.375 132.38 213.44 132.667 213.492 132.938C213.549 133.203 213.591 133.435 213.617 133.633H213.68C213.711 133.503 213.745 133.346 213.781 133.164C213.823 132.982 213.867 132.789 213.914 132.586C213.966 132.378 214.021 132.172 214.078 131.969C214.135 131.76 214.193 131.565 214.25 131.383L215.828 126.422H217.227L218.75 131.375C218.828 131.625 218.904 131.885 218.977 132.156C219.055 132.427 219.125 132.69 219.188 132.945C219.25 133.195 219.294 133.419 219.32 133.617H219.383C219.404 133.44 219.443 133.221 219.5 132.961C219.557 132.701 219.622 132.414 219.695 132.102C219.773 131.789 219.854 131.471 219.938 131.148L221.188 126.422H222.508L220.141 134.984H218.633ZM227.367 126.281C228.096 126.281 228.721 126.443 229.242 126.766C229.763 127.089 230.161 127.542 230.438 128.125C230.714 128.703 230.852 129.38 230.852 130.156V130.961H224.938C224.953 131.966 225.203 132.732 225.688 133.258C226.172 133.784 226.854 134.047 227.734 134.047C228.276 134.047 228.755 133.997 229.172 133.898C229.589 133.799 230.021 133.654 230.469 133.461V134.602C230.036 134.794 229.607 134.935 229.18 135.023C228.758 135.112 228.258 135.156 227.68 135.156C226.857 135.156 226.138 134.99 225.523 134.656C224.914 134.318 224.44 133.823 224.102 133.172C223.763 132.521 223.594 131.724 223.594 130.781C223.594 129.859 223.747 129.062 224.055 128.391C224.367 127.714 224.805 127.193 225.367 126.828C225.935 126.464 226.602 126.281 227.367 126.281ZM227.352 127.344C226.659 127.344 226.107 127.57 225.695 128.023C225.284 128.477 225.039 129.109 224.961 129.922H229.492C229.487 129.411 229.406 128.964 229.25 128.578C229.099 128.188 228.867 127.885 228.555 127.672C228.242 127.453 227.841 127.344 227.352 127.344ZM241.102 126.281C241.273 126.281 241.453 126.292 241.641 126.312C241.828 126.328 241.995 126.352 242.141 126.383L241.977 127.586C241.836 127.549 241.68 127.521 241.508 127.5C241.336 127.479 241.174 127.469 241.023 127.469C240.68 127.469 240.354 127.539 240.047 127.68C239.745 127.815 239.479 128.013 239.25 128.273C239.021 128.529 238.841 128.839 238.711 129.203C238.581 129.562 238.516 129.964 238.516 130.406V135H237.211V126.438H238.289L238.43 128.016H238.484C238.661 127.698 238.875 127.409 239.125 127.148C239.375 126.883 239.664 126.672 239.992 126.516C240.326 126.359 240.695 126.281 241.102 126.281ZM247.055 126.281C247.784 126.281 248.409 126.443 248.93 126.766C249.451 127.089 249.849 127.542 250.125 128.125C250.401 128.703 250.539 129.38 250.539 130.156V130.961H244.625C244.641 131.966 244.891 132.732 245.375 133.258C245.859 133.784 246.542 134.047 247.422 134.047C247.964 134.047 248.443 133.997 248.859 133.898C249.276 133.799 249.708 133.654 250.156 133.461V134.602C249.724 134.794 249.294 134.935 248.867 135.023C248.445 135.112 247.945 135.156 247.367 135.156C246.544 135.156 245.826 134.99 245.211 134.656C244.602 134.318 244.128 133.823 243.789 133.172C243.451 132.521 243.281 131.724 243.281 130.781C243.281 129.859 243.435 129.062 243.742 128.391C244.055 127.714 244.492 127.193 245.055 126.828C245.622 126.464 246.289 126.281 247.055 126.281ZM247.039 127.344C246.346 127.344 245.794 127.57 245.383 128.023C244.971 128.477 244.727 129.109 244.648 129.922H249.18C249.174 129.411 249.094 128.964 248.938 128.578C248.786 128.188 248.555 127.885 248.242 127.672C247.93 127.453 247.529 127.344 247.039 127.344ZM256.555 127.453H254.422V135H253.125V127.453H251.609V126.828L253.125 126.398V125.828C253.125 125.109 253.232 124.526 253.445 124.078C253.659 123.625 253.969 123.292 254.375 123.078C254.781 122.865 255.276 122.758 255.859 122.758C256.188 122.758 256.487 122.786 256.758 122.844C257.034 122.901 257.276 122.966 257.484 123.039L257.148 124.062C256.971 124.005 256.771 123.953 256.547 123.906C256.328 123.854 256.104 123.828 255.875 123.828C255.38 123.828 255.013 123.99 254.773 124.312C254.539 124.63 254.422 125.13 254.422 125.812V126.438H256.555V127.453ZM259.422 126.438V135H258.125V126.438H259.422ZM258.789 123.234C259.003 123.234 259.185 123.305 259.336 123.445C259.492 123.581 259.57 123.794 259.57 124.086C259.57 124.372 259.492 124.586 259.336 124.727C259.185 124.867 259.003 124.938 258.789 124.938C258.565 124.938 258.378 124.867 258.227 124.727C258.081 124.586 258.008 124.372 258.008 124.086C258.008 123.794 258.081 123.581 258.227 123.445C258.378 123.305 258.565 123.234 258.789 123.234ZM266.219 126.281C267.234 126.281 268.003 126.531 268.523 127.031C269.044 127.526 269.305 128.323 269.305 129.422V135H268.023V129.508C268.023 128.794 267.859 128.26 267.531 127.906C267.208 127.552 266.711 127.375 266.039 127.375C265.091 127.375 264.424 127.643 264.039 128.18C263.654 128.716 263.461 129.495 263.461 130.516V135H262.164V126.438H263.211L263.406 127.672H263.477C263.659 127.37 263.891 127.117 264.172 126.914C264.453 126.706 264.768 126.549 265.117 126.445C265.466 126.336 265.833 126.281 266.219 126.281ZM275.273 126.281C276.003 126.281 276.628 126.443 277.148 126.766C277.669 127.089 278.068 127.542 278.344 128.125C278.62 128.703 278.758 129.38 278.758 130.156V130.961H272.844C272.859 131.966 273.109 132.732 273.594 133.258C274.078 133.784 274.76 134.047 275.641 134.047C276.182 134.047 276.661 133.997 277.078 133.898C277.495 133.799 277.927 133.654 278.375 133.461V134.602C277.943 134.794 277.513 134.935 277.086 135.023C276.664 135.112 276.164 135.156 275.586 135.156C274.763 135.156 274.044 134.99 273.43 134.656C272.82 134.318 272.346 133.823 272.008 133.172C271.669 132.521 271.5 131.724 271.5 130.781C271.5 129.859 271.654 129.062 271.961 128.391C272.273 127.714 272.711 127.193 273.273 126.828C273.841 126.464 274.508 126.281 275.273 126.281ZM275.258 127.344C274.565 127.344 274.013 127.57 273.602 128.023C273.19 128.477 272.945 129.109 272.867 129.922H277.398C277.393 129.411 277.312 128.964 277.156 128.578C277.005 128.188 276.773 127.885 276.461 127.672C276.148 127.453 275.747 127.344 275.258 127.344ZM282.445 133.141L282.547 133.32C282.453 133.701 282.333 134.107 282.188 134.539C282.047 134.971 281.891 135.404 281.719 135.836C281.552 136.273 281.383 136.682 281.211 137.062H280.242C280.352 136.646 280.458 136.206 280.562 135.742C280.667 135.284 280.76 134.831 280.844 134.383C280.932 133.93 281.003 133.516 281.055 133.141H282.445ZM29.2578 148.281C29.4297 148.281 29.6094 148.292 29.7969 148.312C29.9844 148.328 30.151 148.352 30.2969 148.383L30.1328 149.586C29.9922 149.549 29.8359 149.521 29.6641 149.5C29.4922 149.479 29.3307 149.469 29.1797 149.469C28.8359 149.469 28.5104 149.539 28.2031 149.68C27.901 149.815 27.6354 150.013 27.4062 150.273C27.1771 150.529 26.9974 150.839 26.8672 151.203C26.737 151.562 26.6719 151.964 26.6719 152.406V157H25.3672V148.438H26.4453L26.5859 150.016H26.6406C26.8177 149.698 27.0312 149.409 27.2812 149.148C27.5312 148.883 27.8203 148.672 28.1484 148.516C28.4818 148.359 28.8516 148.281 29.2578 148.281ZM35.2109 148.281C35.9401 148.281 36.5651 148.443 37.0859 148.766C37.6068 149.089 38.0052 149.542 38.2812 150.125C38.5573 150.703 38.6953 151.38 38.6953 152.156V152.961H32.7812C32.7969 153.966 33.0469 154.732 33.5312 155.258C34.0156 155.784 34.6979 156.047 35.5781 156.047C36.1198 156.047 36.599 155.997 37.0156 155.898C37.4323 155.799 37.8646 155.654 38.3125 155.461V156.602C37.8802 156.794 37.4505 156.935 37.0234 157.023C36.6016 157.112 36.1016 157.156 35.5234 157.156C34.7005 157.156 33.9818 156.99 33.3672 156.656C32.7578 156.318 32.2839 155.823 31.9453 155.172C31.6068 154.521 31.4375 153.724 31.4375 152.781C31.4375 151.859 31.5911 151.062 31.8984 150.391C32.2109 149.714 32.6484 149.193 33.2109 148.828C33.7786 148.464 34.4453 148.281 35.2109 148.281ZM35.1953 149.344C34.5026 149.344 33.9505 149.57 33.5391 150.023C33.1276 150.477 32.8828 151.109 32.8047 151.922H37.3359C37.3307 151.411 37.25 150.964 37.0938 150.578C36.9427 150.188 36.7109 149.885 36.3984 149.672C36.0859 149.453 35.6849 149.344 35.1953 149.344ZM43.6641 156.094C43.8776 156.094 44.0964 156.076 44.3203 156.039C44.5443 156.003 44.7266 155.958 44.8672 155.906V156.914C44.7161 156.982 44.5052 157.039 44.2344 157.086C43.9688 157.133 43.7083 157.156 43.4531 157.156C43 157.156 42.5885 157.078 42.2188 156.922C41.849 156.76 41.5521 156.49 41.3281 156.109C41.1094 155.729 41 155.203 41 154.531V149.453H39.7812V148.82L41.0078 148.312L41.5234 146.453H42.3047V148.438H44.8125V149.453H42.3047V154.492C42.3047 155.029 42.4271 155.43 42.6719 155.695C42.9219 155.961 43.2526 156.094 43.6641 156.094ZM49.8047 148.297C50.8255 148.297 51.5833 148.526 52.0781 148.984C52.5729 149.443 52.8203 150.174 52.8203 151.18V157H51.875L51.625 155.734H51.5625C51.3229 156.047 51.0729 156.31 50.8125 156.523C50.5521 156.732 50.25 156.891 49.9062 157C49.5677 157.104 49.151 157.156 48.6562 157.156C48.1354 157.156 47.6719 157.065 47.2656 156.883C46.8646 156.701 46.5469 156.424 46.3125 156.055C46.0833 155.685 45.9688 155.216 45.9688 154.648C45.9688 153.794 46.3073 153.138 46.9844 152.68C47.6615 152.221 48.6927 151.971 50.0781 151.93L51.5547 151.867V151.344C51.5547 150.604 51.3958 150.086 51.0781 149.789C50.7604 149.492 50.3125 149.344 49.7344 149.344C49.2865 149.344 48.8594 149.409 48.4531 149.539C48.0469 149.669 47.6615 149.823 47.2969 150L46.8984 149.016C47.2839 148.818 47.7266 148.648 48.2266 148.508C48.7266 148.367 49.2526 148.297 49.8047 148.297ZM51.5391 152.781L50.2344 152.836C49.1667 152.878 48.4141 153.052 47.9766 153.359C47.5391 153.667 47.3203 154.102 47.3203 154.664C47.3203 155.154 47.4688 155.516 47.7656 155.75C48.0625 155.984 48.4557 156.102 48.9453 156.102C49.7057 156.102 50.3281 155.891 50.8125 155.469C51.2969 155.047 51.5391 154.414 51.5391 153.57V152.781ZM59.3828 148.281C59.5547 148.281 59.7344 148.292 59.9219 148.312C60.1094 148.328 60.276 148.352 60.4219 148.383L60.2578 149.586C60.1172 149.549 59.9609 149.521 59.7891 149.5C59.6172 149.479 59.4557 149.469 59.3047 149.469C58.9609 149.469 58.6354 149.539 58.3281 149.68C58.026 149.815 57.7604 150.013 57.5312 150.273C57.3021 150.529 57.1224 150.839 56.9922 151.203C56.862 151.562 56.7969 151.964 56.7969 152.406V157H55.4922V148.438H56.5703L56.7109 150.016H56.7656C56.9427 149.698 57.1562 149.409 57.4062 149.148C57.6562 148.883 57.9453 148.672 58.2734 148.516C58.6068 148.359 58.9766 148.281 59.3828 148.281ZM64.4297 160.844C63.3047 160.844 62.4375 160.633 61.8281 160.211C61.2188 159.794 60.9141 159.208 60.9141 158.453C60.9141 157.917 61.0833 157.458 61.4219 157.078C61.7656 156.698 62.2396 156.445 62.8438 156.32C62.6198 156.216 62.4271 156.06 62.2656 155.852C62.1094 155.643 62.0312 155.404 62.0312 155.133C62.0312 154.82 62.1172 154.547 62.2891 154.312C62.4661 154.073 62.7344 153.844 63.0938 153.625C62.6458 153.443 62.2812 153.135 62 152.703C61.724 152.266 61.5859 151.758 61.5859 151.18C61.5859 150.565 61.7135 150.042 61.9688 149.609C62.224 149.172 62.5938 148.839 63.0781 148.609C63.5625 148.38 64.1484 148.266 64.8359 148.266C64.987 148.266 65.138 148.273 65.2891 148.289C65.4453 148.299 65.5938 148.318 65.7344 148.344C65.875 148.365 65.9974 148.391 66.1016 148.422H69.0391V149.258L67.4609 149.453C67.6172 149.656 67.7474 149.901 67.8516 150.188C67.9557 150.474 68.0078 150.792 68.0078 151.141C68.0078 151.995 67.7188 152.674 67.1406 153.18C66.5625 153.68 65.7682 153.93 64.7578 153.93C64.5182 153.93 64.2734 153.909 64.0234 153.867C63.7682 154.008 63.5729 154.164 63.4375 154.336C63.3073 154.508 63.2422 154.706 63.2422 154.93C63.2422 155.096 63.2917 155.229 63.3906 155.328C63.4948 155.427 63.6432 155.5 63.8359 155.547C64.0286 155.589 64.2604 155.609 64.5312 155.609H66.0391C66.9714 155.609 67.6849 155.805 68.1797 156.195C68.6797 156.586 68.9297 157.156 68.9297 157.906C68.9297 158.854 68.5443 159.581 67.7734 160.086C67.0026 160.591 65.888 160.844 64.4297 160.844ZM64.4688 159.828C65.1771 159.828 65.763 159.755 66.2266 159.609C66.6953 159.469 67.0443 159.263 67.2734 158.992C67.5078 158.727 67.625 158.409 67.625 158.039C67.625 157.695 67.5469 157.435 67.3906 157.258C67.2344 157.086 67.0052 156.971 66.7031 156.914C66.401 156.852 66.0312 156.82 65.5938 156.82H64.1094C63.724 156.82 63.388 156.88 63.1016 157C62.8151 157.12 62.5938 157.297 62.4375 157.531C62.2865 157.766 62.2109 158.057 62.2109 158.406C62.2109 158.87 62.4062 159.221 62.7969 159.461C63.1875 159.706 63.7448 159.828 64.4688 159.828ZM64.8047 152.984C65.4245 152.984 65.8906 152.828 66.2031 152.516C66.5156 152.203 66.6719 151.747 66.6719 151.148C66.6719 150.508 66.513 150.029 66.1953 149.711C65.8776 149.388 65.4089 149.227 64.7891 149.227C64.1953 149.227 63.737 149.393 63.4141 149.727C63.0964 150.055 62.9375 150.536 62.9375 151.172C62.9375 151.755 63.099 152.203 63.4219 152.516C63.7448 152.828 64.2057 152.984 64.8047 152.984ZM74.0234 148.281C74.7526 148.281 75.3776 148.443 75.8984 148.766C76.4193 149.089 76.8177 149.542 77.0938 150.125C77.3698 150.703 77.5078 151.38 77.5078 152.156V152.961H71.5938C71.6094 153.966 71.8594 154.732 72.3438 155.258C72.8281 155.784 73.5104 156.047 74.3906 156.047C74.9323 156.047 75.4115 155.997 75.8281 155.898C76.2448 155.799 76.6771 155.654 77.125 155.461V156.602C76.6927 156.794 76.263 156.935 75.8359 157.023C75.4141 157.112 74.9141 157.156 74.3359 157.156C73.513 157.156 72.7943 156.99 72.1797 156.656C71.5703 156.318 71.0964 155.823 70.7578 155.172C70.4193 154.521 70.25 153.724 70.25 152.781C70.25 151.859 70.4036 151.062 70.7109 150.391C71.0234 149.714 71.4609 149.193 72.0234 148.828C72.5911 148.464 73.2578 148.281 74.0234 148.281ZM74.0078 149.344C73.3151 149.344 72.763 149.57 72.3516 150.023C71.9401 150.477 71.6953 151.109 71.6172 151.922H76.1484C76.1432 151.411 76.0625 150.964 75.9062 150.578C75.7552 150.188 75.5234 149.885 75.2109 149.672C74.8984 149.453 74.4974 149.344 74.0078 149.344ZM82.4766 156.094C82.6901 156.094 82.9089 156.076 83.1328 156.039C83.3568 156.003 83.5391 155.958 83.6797 155.906V156.914C83.5286 156.982 83.3177 157.039 83.0469 157.086C82.7812 157.133 82.5208 157.156 82.2656 157.156C81.8125 157.156 81.401 157.078 81.0312 156.922C80.6615 156.76 80.3646 156.49 80.1406 156.109C79.9219 155.729 79.8125 155.203 79.8125 154.531V149.453H78.5938V148.82L79.8203 148.312L80.3359 146.453H81.1172V148.438H83.625V149.453H81.1172V154.492C81.1172 155.029 81.2396 155.43 81.4844 155.695C81.7344 155.961 82.0651 156.094 82.4766 156.094ZM86.8984 155.141L87 155.32C86.9062 155.701 86.7865 156.107 86.6406 156.539C86.5 156.971 86.3438 157.404 86.1719 157.836C86.0052 158.273 85.8359 158.682 85.6641 159.062H84.6953C84.8047 158.646 84.9115 158.206 85.0156 157.742C85.1198 157.284 85.2135 156.831 85.2969 156.383C85.3854 155.93 85.4557 155.516 85.5078 155.141H86.8984ZM96.9141 148.297C97.9349 148.297 98.6927 148.526 99.1875 148.984C99.6823 149.443 99.9297 150.174 99.9297 151.18V157H98.9844L98.7344 155.734H98.6719C98.4323 156.047 98.1823 156.31 97.9219 156.523C97.6615 156.732 97.3594 156.891 97.0156 157C96.6771 157.104 96.2604 157.156 95.7656 157.156C95.2448 157.156 94.7812 157.065 94.375 156.883C93.974 156.701 93.6562 156.424 93.4219 156.055C93.1927 155.685 93.0781 155.216 93.0781 154.648C93.0781 153.794 93.4167 153.138 94.0938 152.68C94.7708 152.221 95.8021 151.971 97.1875 151.93L98.6641 151.867V151.344C98.6641 150.604 98.5052 150.086 98.1875 149.789C97.8698 149.492 97.4219 149.344 96.8438 149.344C96.3958 149.344 95.9688 149.409 95.5625 149.539C95.1562 149.669 94.7708 149.823 94.4062 150L94.0078 149.016C94.3932 148.818 94.8359 148.648 95.3359 148.508C95.8359 148.367 96.362 148.297 96.9141 148.297ZM98.6484 152.781L97.3438 152.836C96.276 152.878 95.5234 153.052 95.0859 153.359C94.6484 153.667 94.4297 154.102 94.4297 154.664C94.4297 155.154 94.5781 155.516 94.875 155.75C95.1719 155.984 95.5651 156.102 96.0547 156.102C96.8151 156.102 97.4375 155.891 97.9219 155.469C98.4062 155.047 98.6484 154.414 98.6484 153.57V152.781ZM106.656 148.281C107.672 148.281 108.44 148.531 108.961 149.031C109.482 149.526 109.742 150.323 109.742 151.422V157H108.461V151.508C108.461 150.794 108.297 150.26 107.969 149.906C107.646 149.552 107.148 149.375 106.477 149.375C105.529 149.375 104.862 149.643 104.477 150.18C104.091 150.716 103.898 151.495 103.898 152.516V157H102.602V148.438H103.648L103.844 149.672H103.914C104.096 149.37 104.328 149.117 104.609 148.914C104.891 148.706 105.206 148.549 105.555 148.445C105.904 148.336 106.271 148.281 106.656 148.281ZM115.461 157.156C114.378 157.156 113.518 156.786 112.883 156.047C112.253 155.307 111.938 154.208 111.938 152.75C111.938 151.276 112.26 150.164 112.906 149.414C113.552 148.659 114.411 148.281 115.484 148.281C115.938 148.281 116.333 148.341 116.672 148.461C117.01 148.581 117.302 148.742 117.547 148.945C117.792 149.143 117.997 149.37 118.164 149.625H118.258C118.237 149.464 118.216 149.242 118.195 148.961C118.174 148.68 118.164 148.451 118.164 148.273V144.844H119.461V157H118.414L118.219 155.781H118.164C118.003 156.036 117.797 156.268 117.547 156.477C117.302 156.685 117.008 156.852 116.664 156.977C116.326 157.096 115.924 157.156 115.461 157.156ZM115.664 156.078C116.581 156.078 117.229 155.818 117.609 155.297C117.99 154.776 118.18 154.003 118.18 152.977V152.742C118.18 151.654 117.997 150.818 117.633 150.234C117.273 149.651 116.617 149.359 115.664 149.359C114.867 149.359 114.271 149.667 113.875 150.281C113.479 150.891 113.281 151.724 113.281 152.781C113.281 153.833 113.477 154.646 113.867 155.219C114.263 155.792 114.862 156.078 115.664 156.078ZM129.664 148.281C130.393 148.281 131.018 148.443 131.539 148.766C132.06 149.089 132.458 149.542 132.734 150.125C133.01 150.703 133.148 151.38 133.148 152.156V152.961H127.234C127.25 153.966 127.5 154.732 127.984 155.258C128.469 155.784 129.151 156.047 130.031 156.047C130.573 156.047 131.052 155.997 131.469 155.898C131.885 155.799 132.318 155.654 132.766 155.461V156.602C132.333 156.794 131.904 156.935 131.477 157.023C131.055 157.112 130.555 157.156 129.977 157.156C129.154 157.156 128.435 156.99 127.82 156.656C127.211 156.318 126.737 155.823 126.398 155.172C126.06 154.521 125.891 153.724 125.891 152.781C125.891 151.859 126.044 151.062 126.352 150.391C126.664 149.714 127.102 149.193 127.664 148.828C128.232 148.464 128.898 148.281 129.664 148.281ZM129.648 149.344C128.956 149.344 128.404 149.57 127.992 150.023C127.581 150.477 127.336 151.109 127.258 151.922H131.789C131.784 151.411 131.703 150.964 131.547 150.578C131.396 150.188 131.164 149.885 130.852 149.672C130.539 149.453 130.138 149.344 129.648 149.344ZM137.391 152.617L134.43 148.438H135.914L138.172 151.734L140.422 148.438H141.891L138.93 152.617L142.055 157H140.57L138.172 153.508L135.758 157H134.289L137.391 152.617ZM147.75 148.281C148.818 148.281 149.669 148.648 150.305 149.383C150.94 150.117 151.258 151.221 151.258 152.695C151.258 153.669 151.112 154.487 150.82 155.148C150.529 155.81 150.117 156.31 149.586 156.648C149.06 156.987 148.438 157.156 147.719 157.156C147.266 157.156 146.867 157.096 146.523 156.977C146.18 156.857 145.885 156.695 145.641 156.492C145.396 156.289 145.193 156.068 145.031 155.828H144.938C144.953 156.031 144.971 156.276 144.992 156.562C145.018 156.849 145.031 157.099 145.031 157.312V160.828H143.727V148.438H144.797L144.969 149.703H145.031C145.198 149.443 145.401 149.206 145.641 148.992C145.88 148.773 146.172 148.602 146.516 148.477C146.865 148.346 147.276 148.281 147.75 148.281ZM147.523 149.375C146.93 149.375 146.451 149.49 146.086 149.719C145.727 149.948 145.464 150.292 145.297 150.75C145.13 151.203 145.042 151.773 145.031 152.461V152.711C145.031 153.435 145.109 154.047 145.266 154.547C145.427 155.047 145.69 155.427 146.055 155.688C146.424 155.948 146.919 156.078 147.539 156.078C148.07 156.078 148.513 155.935 148.867 155.648C149.221 155.362 149.484 154.964 149.656 154.453C149.833 153.938 149.922 153.346 149.922 152.68C149.922 151.669 149.724 150.867 149.328 150.273C148.938 149.674 148.336 149.375 147.523 149.375ZM156.727 148.297C157.747 148.297 158.505 148.526 159 148.984C159.495 149.443 159.742 150.174 159.742 151.18V157H158.797L158.547 155.734H158.484C158.245 156.047 157.995 156.31 157.734 156.523C157.474 156.732 157.172 156.891 156.828 157C156.49 157.104 156.073 157.156 155.578 157.156C155.057 157.156 154.594 157.065 154.188 156.883C153.786 156.701 153.469 156.424 153.234 156.055C153.005 155.685 152.891 155.216 152.891 154.648C152.891 153.794 153.229 153.138 153.906 152.68C154.583 152.221 155.615 151.971 157 151.93L158.477 151.867V151.344C158.477 150.604 158.318 150.086 158 149.789C157.682 149.492 157.234 149.344 156.656 149.344C156.208 149.344 155.781 149.409 155.375 149.539C154.969 149.669 154.583 149.823 154.219 150L153.82 149.016C154.206 148.818 154.648 148.648 155.148 148.508C155.648 148.367 156.174 148.297 156.727 148.297ZM158.461 152.781L157.156 152.836C156.089 152.878 155.336 153.052 154.898 153.359C154.461 153.667 154.242 154.102 154.242 154.664C154.242 155.154 154.391 155.516 154.688 155.75C154.984 155.984 155.378 156.102 155.867 156.102C156.628 156.102 157.25 155.891 157.734 155.469C158.219 155.047 158.461 154.414 158.461 153.57V152.781ZM166.469 148.281C167.484 148.281 168.253 148.531 168.773 149.031C169.294 149.526 169.555 150.323 169.555 151.422V157H168.273V151.508C168.273 150.794 168.109 150.26 167.781 149.906C167.458 149.552 166.961 149.375 166.289 149.375C165.341 149.375 164.674 149.643 164.289 150.18C163.904 150.716 163.711 151.495 163.711 152.516V157H162.414V148.438H163.461L163.656 149.672H163.727C163.909 149.37 164.141 149.117 164.422 148.914C164.703 148.706 165.018 148.549 165.367 148.445C165.716 148.336 166.083 148.281 166.469 148.281ZM175.273 157.156C174.19 157.156 173.331 156.786 172.695 156.047C172.065 155.307 171.75 154.208 171.75 152.75C171.75 151.276 172.073 150.164 172.719 149.414C173.365 148.659 174.224 148.281 175.297 148.281C175.75 148.281 176.146 148.341 176.484 148.461C176.823 148.581 177.115 148.742 177.359 148.945C177.604 149.143 177.81 149.37 177.977 149.625H178.07C178.049 149.464 178.029 149.242 178.008 148.961C177.987 148.68 177.977 148.451 177.977 148.273V144.844H179.273V157H178.227L178.031 155.781H177.977C177.815 156.036 177.609 156.268 177.359 156.477C177.115 156.685 176.82 156.852 176.477 156.977C176.138 157.096 175.737 157.156 175.273 157.156ZM175.477 156.078C176.393 156.078 177.042 155.818 177.422 155.297C177.802 154.776 177.992 154.003 177.992 152.977V152.742C177.992 151.654 177.81 150.818 177.445 150.234C177.086 149.651 176.43 149.359 175.477 149.359C174.68 149.359 174.083 149.667 173.688 150.281C173.292 150.891 173.094 151.724 173.094 152.781C173.094 153.833 173.289 154.646 173.68 155.219C174.076 155.792 174.674 156.078 175.477 156.078ZM189.992 149.453H187.859V157H186.562V149.453H185.047V148.828L186.562 148.398V147.828C186.562 147.109 186.669 146.526 186.883 146.078C187.096 145.625 187.406 145.292 187.812 145.078C188.219 144.865 188.714 144.758 189.297 144.758C189.625 144.758 189.924 144.786 190.195 144.844C190.471 144.901 190.714 144.966 190.922 145.039L190.586 146.062C190.409 146.005 190.208 145.953 189.984 145.906C189.766 145.854 189.542 145.828 189.312 145.828C188.818 145.828 188.451 145.99 188.211 146.312C187.977 146.63 187.859 147.13 187.859 147.812V148.438H189.992V149.453ZM198.953 152.703C198.953 153.406 198.862 154.034 198.68 154.586C198.497 155.138 198.234 155.604 197.891 155.984C197.547 156.365 197.13 156.656 196.641 156.859C196.156 157.057 195.607 157.156 194.992 157.156C194.419 157.156 193.893 157.057 193.414 156.859C192.94 156.656 192.529 156.365 192.18 155.984C191.836 155.604 191.568 155.138 191.375 154.586C191.188 154.034 191.094 153.406 191.094 152.703C191.094 151.766 191.253 150.969 191.57 150.312C191.888 149.651 192.341 149.148 192.93 148.805C193.523 148.456 194.229 148.281 195.047 148.281C195.828 148.281 196.51 148.456 197.094 148.805C197.682 149.154 198.138 149.659 198.461 150.32C198.789 150.977 198.953 151.771 198.953 152.703ZM192.438 152.703C192.438 153.391 192.529 153.987 192.711 154.492C192.893 154.997 193.174 155.388 193.555 155.664C193.935 155.94 194.424 156.078 195.023 156.078C195.617 156.078 196.104 155.94 196.484 155.664C196.87 155.388 197.154 154.997 197.336 154.492C197.518 153.987 197.609 153.391 197.609 152.703C197.609 152.021 197.518 151.432 197.336 150.938C197.154 150.438 196.872 150.052 196.492 149.781C196.112 149.51 195.62 149.375 195.016 149.375C194.125 149.375 193.471 149.669 193.055 150.258C192.643 150.846 192.438 151.661 192.438 152.703ZM205.086 148.281C205.258 148.281 205.438 148.292 205.625 148.312C205.812 148.328 205.979 148.352 206.125 148.383L205.961 149.586C205.82 149.549 205.664 149.521 205.492 149.5C205.32 149.479 205.159 149.469 205.008 149.469C204.664 149.469 204.339 149.539 204.031 149.68C203.729 149.815 203.464 150.013 203.234 150.273C203.005 150.529 202.826 150.839 202.695 151.203C202.565 151.562 202.5 151.964 202.5 152.406V157H201.195V148.438H202.273L202.414 150.016H202.469C202.646 149.698 202.859 149.409 203.109 149.148C203.359 148.883 203.648 148.672 203.977 148.516C204.31 148.359 204.68 148.281 205.086 148.281ZM217.438 154.656C217.438 155.203 217.299 155.664 217.023 156.039C216.753 156.409 216.362 156.688 215.852 156.875C215.346 157.062 214.742 157.156 214.039 157.156C213.44 157.156 212.922 157.109 212.484 157.016C212.047 156.922 211.664 156.789 211.336 156.617V155.422C211.685 155.594 212.102 155.75 212.586 155.891C213.07 156.031 213.565 156.102 214.07 156.102C214.81 156.102 215.346 155.982 215.68 155.742C216.013 155.503 216.18 155.177 216.18 154.766C216.18 154.531 216.112 154.326 215.977 154.148C215.846 153.966 215.625 153.792 215.312 153.625C215 153.453 214.568 153.266 214.016 153.062C213.469 152.854 212.995 152.648 212.594 152.445C212.198 152.237 211.891 151.984 211.672 151.688C211.458 151.391 211.352 151.005 211.352 150.531C211.352 149.807 211.643 149.253 212.227 148.867C212.815 148.477 213.586 148.281 214.539 148.281C215.055 148.281 215.536 148.333 215.984 148.438C216.438 148.536 216.859 148.672 217.25 148.844L216.812 149.883C216.458 149.732 216.081 149.604 215.68 149.5C215.279 149.396 214.87 149.344 214.453 149.344C213.854 149.344 213.393 149.443 213.07 149.641C212.753 149.839 212.594 150.109 212.594 150.453C212.594 150.719 212.667 150.938 212.812 151.109C212.964 151.281 213.203 151.443 213.531 151.594C213.859 151.745 214.292 151.922 214.828 152.125C215.365 152.323 215.828 152.529 216.219 152.742C216.609 152.951 216.909 153.206 217.117 153.508C217.331 153.805 217.438 154.188 217.438 154.656ZM226.594 148.438V157H225.531L225.344 155.797H225.273C225.096 156.094 224.867 156.344 224.586 156.547C224.305 156.75 223.987 156.901 223.633 157C223.284 157.104 222.911 157.156 222.516 157.156C221.839 157.156 221.271 157.047 220.812 156.828C220.354 156.609 220.008 156.271 219.773 155.812C219.544 155.354 219.43 154.766 219.43 154.047V148.438H220.742V153.953C220.742 154.667 220.904 155.201 221.227 155.555C221.549 155.904 222.042 156.078 222.703 156.078C223.339 156.078 223.844 155.958 224.219 155.719C224.599 155.479 224.872 155.128 225.039 154.664C225.206 154.195 225.289 153.622 225.289 152.945V148.438H226.594ZM234.875 154.656C234.875 155.203 234.737 155.664 234.461 156.039C234.19 156.409 233.799 156.688 233.289 156.875C232.784 157.062 232.18 157.156 231.477 157.156C230.878 157.156 230.359 157.109 229.922 157.016C229.484 156.922 229.102 156.789 228.773 156.617V155.422C229.122 155.594 229.539 155.75 230.023 155.891C230.508 156.031 231.003 156.102 231.508 156.102C232.247 156.102 232.784 155.982 233.117 155.742C233.451 155.503 233.617 155.177 233.617 154.766C233.617 154.531 233.549 154.326 233.414 154.148C233.284 153.966 233.062 153.792 232.75 153.625C232.438 153.453 232.005 153.266 231.453 153.062C230.906 152.854 230.432 152.648 230.031 152.445C229.635 152.237 229.328 151.984 229.109 151.688C228.896 151.391 228.789 151.005 228.789 150.531C228.789 149.807 229.081 149.253 229.664 148.867C230.253 148.477 231.023 148.281 231.977 148.281C232.492 148.281 232.974 148.333 233.422 148.438C233.875 148.536 234.297 148.672 234.688 148.844L234.25 149.883C233.896 149.732 233.518 149.604 233.117 149.5C232.716 149.396 232.307 149.344 231.891 149.344C231.292 149.344 230.831 149.443 230.508 149.641C230.19 149.839 230.031 150.109 230.031 150.453C230.031 150.719 230.104 150.938 230.25 151.109C230.401 151.281 230.641 151.443 230.969 151.594C231.297 151.745 231.729 151.922 232.266 152.125C232.802 152.323 233.266 152.529 233.656 152.742C234.047 152.951 234.346 153.206 234.555 153.508C234.768 153.805 234.875 154.188 234.875 154.656ZM239.727 156.094C239.94 156.094 240.159 156.076 240.383 156.039C240.607 156.003 240.789 155.958 240.93 155.906V156.914C240.779 156.982 240.568 157.039 240.297 157.086C240.031 157.133 239.771 157.156 239.516 157.156C239.062 157.156 238.651 157.078 238.281 156.922C237.911 156.76 237.615 156.49 237.391 156.109C237.172 155.729 237.062 155.203 237.062 154.531V149.453H235.844V148.82L237.07 148.312L237.586 146.453H238.367V148.438H240.875V149.453H238.367V154.492C238.367 155.029 238.49 155.43 238.734 155.695C238.984 155.961 239.315 156.094 239.727 156.094ZM245.867 148.297C246.888 148.297 247.646 148.526 248.141 148.984C248.635 149.443 248.883 150.174 248.883 151.18V157H247.938L247.688 155.734H247.625C247.385 156.047 247.135 156.31 246.875 156.523C246.615 156.732 246.312 156.891 245.969 157C245.63 157.104 245.214 157.156 244.719 157.156C244.198 157.156 243.734 157.065 243.328 156.883C242.927 156.701 242.609 156.424 242.375 156.055C242.146 155.685 242.031 155.216 242.031 154.648C242.031 153.794 242.37 153.138 243.047 152.68C243.724 152.221 244.755 151.971 246.141 151.93L247.617 151.867V151.344C247.617 150.604 247.458 150.086 247.141 149.789C246.823 149.492 246.375 149.344 245.797 149.344C245.349 149.344 244.922 149.409 244.516 149.539C244.109 149.669 243.724 149.823 243.359 150L242.961 149.016C243.346 148.818 243.789 148.648 244.289 148.508C244.789 148.367 245.315 148.297 245.867 148.297ZM247.602 152.781L246.297 152.836C245.229 152.878 244.477 153.052 244.039 153.359C243.602 153.667 243.383 154.102 243.383 154.664C243.383 155.154 243.531 155.516 243.828 155.75C244.125 155.984 244.518 156.102 245.008 156.102C245.768 156.102 246.391 155.891 246.875 155.469C247.359 155.047 247.602 154.414 247.602 153.57V152.781ZM252.852 148.438V157H251.555V148.438H252.852ZM252.219 145.234C252.432 145.234 252.615 145.305 252.766 145.445C252.922 145.581 253 145.794 253 146.086C253 146.372 252.922 146.586 252.766 146.727C252.615 146.867 252.432 146.938 252.219 146.938C251.995 146.938 251.807 146.867 251.656 146.727C251.51 146.586 251.438 146.372 251.438 146.086C251.438 145.794 251.51 145.581 251.656 145.445C251.807 145.305 251.995 145.234 252.219 145.234ZM259.656 148.281C260.672 148.281 261.44 148.531 261.961 149.031C262.482 149.526 262.742 150.323 262.742 151.422V157H261.461V151.508C261.461 150.794 261.297 150.26 260.969 149.906C260.646 149.552 260.148 149.375 259.477 149.375C258.529 149.375 257.862 149.643 257.477 150.18C257.091 150.716 256.898 151.495 256.898 152.516V157H255.602V148.438H256.648L256.844 149.672H256.914C257.096 149.37 257.328 149.117 257.609 148.914C257.891 148.706 258.206 148.549 258.555 148.445C258.904 148.336 259.271 148.281 259.656 148.281ZM268.711 148.281C269.44 148.281 270.065 148.443 270.586 148.766C271.107 149.089 271.505 149.542 271.781 150.125C272.057 150.703 272.195 151.38 272.195 152.156V152.961H266.281C266.297 153.966 266.547 154.732 267.031 155.258C267.516 155.784 268.198 156.047 269.078 156.047C269.62 156.047 270.099 155.997 270.516 155.898C270.932 155.799 271.365 155.654 271.812 155.461V156.602C271.38 156.794 270.951 156.935 270.523 157.023C270.102 157.112 269.602 157.156 269.023 157.156C268.201 157.156 267.482 156.99 266.867 156.656C266.258 156.318 265.784 155.823 265.445 155.172C265.107 154.521 264.938 153.724 264.938 152.781C264.938 151.859 265.091 151.062 265.398 150.391C265.711 149.714 266.148 149.193 266.711 148.828C267.279 148.464 267.945 148.281 268.711 148.281ZM268.695 149.344C268.003 149.344 267.451 149.57 267.039 150.023C266.628 150.477 266.383 151.109 266.305 151.922H270.836C270.831 151.411 270.75 150.964 270.594 150.578C270.443 150.188 270.211 149.885 269.898 149.672C269.586 149.453 269.185 149.344 268.695 149.344ZM277.445 157.156C276.362 157.156 275.503 156.786 274.867 156.047C274.237 155.307 273.922 154.208 273.922 152.75C273.922 151.276 274.245 150.164 274.891 149.414C275.536 148.659 276.396 148.281 277.469 148.281C277.922 148.281 278.318 148.341 278.656 148.461C278.995 148.581 279.286 148.742 279.531 148.945C279.776 149.143 279.982 149.37 280.148 149.625H280.242C280.221 149.464 280.201 149.242 280.18 148.961C280.159 148.68 280.148 148.451 280.148 148.273V144.844H281.445V157H280.398L280.203 155.781H280.148C279.987 156.036 279.781 156.268 279.531 156.477C279.286 156.685 278.992 156.852 278.648 156.977C278.31 157.096 277.909 157.156 277.445 157.156ZM277.648 156.078C278.565 156.078 279.214 155.818 279.594 155.297C279.974 154.776 280.164 154.003 280.164 152.977V152.742C280.164 151.654 279.982 150.818 279.617 150.234C279.258 149.651 278.602 149.359 277.648 149.359C276.852 149.359 276.255 149.667 275.859 150.281C275.464 150.891 275.266 151.724 275.266 152.781C275.266 153.833 275.461 154.646 275.852 155.219C276.247 155.792 276.846 156.078 277.648 156.078ZM290.742 160.844C289.617 160.844 288.75 160.633 288.141 160.211C287.531 159.794 287.227 159.208 287.227 158.453C287.227 157.917 287.396 157.458 287.734 157.078C288.078 156.698 288.552 156.445 289.156 156.32C288.932 156.216 288.74 156.06 288.578 155.852C288.422 155.643 288.344 155.404 288.344 155.133C288.344 154.82 288.43 154.547 288.602 154.312C288.779 154.073 289.047 153.844 289.406 153.625C288.958 153.443 288.594 153.135 288.312 152.703C288.036 152.266 287.898 151.758 287.898 151.18C287.898 150.565 288.026 150.042 288.281 149.609C288.536 149.172 288.906 148.839 289.391 148.609C289.875 148.38 290.461 148.266 291.148 148.266C291.299 148.266 291.451 148.273 291.602 148.289C291.758 148.299 291.906 148.318 292.047 148.344C292.188 148.365 292.31 148.391 292.414 148.422H295.352V149.258L293.773 149.453C293.93 149.656 294.06 149.901 294.164 150.188C294.268 150.474 294.32 150.792 294.32 151.141C294.32 151.995 294.031 152.674 293.453 153.18C292.875 153.68 292.081 153.93 291.07 153.93C290.831 153.93 290.586 153.909 290.336 153.867C290.081 154.008 289.885 154.164 289.75 154.336C289.62 154.508 289.555 154.706 289.555 154.93C289.555 155.096 289.604 155.229 289.703 155.328C289.807 155.427 289.956 155.5 290.148 155.547C290.341 155.589 290.573 155.609 290.844 155.609H292.352C293.284 155.609 293.997 155.805 294.492 156.195C294.992 156.586 295.242 157.156 295.242 157.906C295.242 158.854 294.857 159.581 294.086 160.086C293.315 160.591 292.201 160.844 290.742 160.844ZM290.781 159.828C291.49 159.828 292.076 159.755 292.539 159.609C293.008 159.469 293.357 159.263 293.586 158.992C293.82 158.727 293.938 158.409 293.938 158.039C293.938 157.695 293.859 157.435 293.703 157.258C293.547 157.086 293.318 156.971 293.016 156.914C292.714 156.852 292.344 156.82 291.906 156.82H290.422C290.036 156.82 289.701 156.88 289.414 157C289.128 157.12 288.906 157.297 288.75 157.531C288.599 157.766 288.523 158.057 288.523 158.406C288.523 158.87 288.719 159.221 289.109 159.461C289.5 159.706 290.057 159.828 290.781 159.828ZM291.117 152.984C291.737 152.984 292.203 152.828 292.516 152.516C292.828 152.203 292.984 151.747 292.984 151.148C292.984 150.508 292.826 150.029 292.508 149.711C292.19 149.388 291.721 149.227 291.102 149.227C290.508 149.227 290.049 149.393 289.727 149.727C289.409 150.055 289.25 150.536 289.25 151.172C289.25 151.755 289.411 152.203 289.734 152.516C290.057 152.828 290.518 152.984 291.117 152.984ZM300.93 148.281C301.102 148.281 301.281 148.292 301.469 148.312C301.656 148.328 301.823 148.352 301.969 148.383L301.805 149.586C301.664 149.549 301.508 149.521 301.336 149.5C301.164 149.479 301.003 149.469 300.852 149.469C300.508 149.469 300.182 149.539 299.875 149.68C299.573 149.815 299.307 150.013 299.078 150.273C298.849 150.529 298.669 150.839 298.539 151.203C298.409 151.562 298.344 151.964 298.344 152.406V157H297.039V148.438H298.117L298.258 150.016H298.312C298.49 149.698 298.703 149.409 298.953 149.148C299.203 148.883 299.492 148.672 299.82 148.516C300.154 148.359 300.523 148.281 300.93 148.281ZM310.969 152.703C310.969 153.406 310.878 154.034 310.695 154.586C310.513 155.138 310.25 155.604 309.906 155.984C309.562 156.365 309.146 156.656 308.656 156.859C308.172 157.057 307.622 157.156 307.008 157.156C306.435 157.156 305.909 157.057 305.43 156.859C304.956 156.656 304.544 156.365 304.195 155.984C303.852 155.604 303.583 155.138 303.391 154.586C303.203 154.034 303.109 153.406 303.109 152.703C303.109 151.766 303.268 150.969 303.586 150.312C303.904 149.651 304.357 149.148 304.945 148.805C305.539 148.456 306.245 148.281 307.062 148.281C307.844 148.281 308.526 148.456 309.109 148.805C309.698 149.154 310.154 149.659 310.477 150.32C310.805 150.977 310.969 151.771 310.969 152.703ZM304.453 152.703C304.453 153.391 304.544 153.987 304.727 154.492C304.909 154.997 305.19 155.388 305.57 155.664C305.951 155.94 306.44 156.078 307.039 156.078C307.633 156.078 308.12 155.94 308.5 155.664C308.885 155.388 309.169 154.997 309.352 154.492C309.534 153.987 309.625 153.391 309.625 152.703C309.625 152.021 309.534 151.432 309.352 150.938C309.169 150.438 308.888 150.052 308.508 149.781C308.128 149.51 307.635 149.375 307.031 149.375C306.141 149.375 305.487 149.669 305.07 150.258C304.659 150.846 304.453 151.661 304.453 152.703ZM320.18 156.984L318.656 152C318.589 151.786 318.523 151.578 318.461 151.375C318.404 151.167 318.349 150.969 318.297 150.781C318.25 150.589 318.206 150.411 318.164 150.25C318.128 150.083 318.096 149.94 318.07 149.82H318.016C317.995 149.94 317.966 150.083 317.93 150.25C317.893 150.411 317.849 150.589 317.797 150.781C317.75 150.974 317.698 151.177 317.641 151.391C317.583 151.599 317.518 151.81 317.445 152.023L315.852 156.984H314.391L312.031 148.422H313.375L314.609 153.148C314.693 153.461 314.771 153.771 314.844 154.078C314.922 154.38 314.987 154.667 315.039 154.938C315.096 155.203 315.138 155.435 315.164 155.633H315.227C315.258 155.503 315.292 155.346 315.328 155.164C315.37 154.982 315.414 154.789 315.461 154.586C315.513 154.378 315.568 154.172 315.625 153.969C315.682 153.76 315.74 153.565 315.797 153.383L317.375 148.422H318.773L320.297 153.375C320.375 153.625 320.451 153.885 320.523 154.156C320.602 154.427 320.672 154.69 320.734 154.945C320.797 155.195 320.841 155.419 320.867 155.617H320.93C320.951 155.44 320.99 155.221 321.047 154.961C321.104 154.701 321.169 154.414 321.242 154.102C321.32 153.789 321.401 153.471 321.484 153.148L322.734 148.422H324.055L321.688 156.984H320.18ZM328.383 156.094C328.596 156.094 328.815 156.076 329.039 156.039C329.263 156.003 329.445 155.958 329.586 155.906V156.914C329.435 156.982 329.224 157.039 328.953 157.086C328.688 157.133 328.427 157.156 328.172 157.156C327.719 157.156 327.307 157.078 326.938 156.922C326.568 156.76 326.271 156.49 326.047 156.109C325.828 155.729 325.719 155.203 325.719 154.531V149.453H324.5V148.82L325.727 148.312L326.242 146.453H327.023V148.438H329.531V149.453H327.023V154.492C327.023 155.029 327.146 155.43 327.391 155.695C327.641 155.961 327.971 156.094 328.383 156.094ZM332.617 144.844V148.477C332.617 148.685 332.612 148.896 332.602 149.109C332.591 149.318 332.573 149.51 332.547 149.688H332.633C332.81 149.385 333.034 149.133 333.305 148.93C333.581 148.721 333.893 148.565 334.242 148.461C334.591 148.352 334.961 148.297 335.352 148.297C336.039 148.297 336.612 148.406 337.07 148.625C337.534 148.844 337.88 149.182 338.109 149.641C338.344 150.099 338.461 150.693 338.461 151.422V157H337.18V151.508C337.18 150.794 337.016 150.26 336.688 149.906C336.365 149.552 335.867 149.375 335.195 149.375C334.56 149.375 334.052 149.497 333.672 149.742C333.297 149.982 333.026 150.336 332.859 150.805C332.698 151.273 332.617 151.846 332.617 152.523V157H331.32V144.844H332.617Z" fill="#4C4648"/>
</svg>
