<svg width="375" height="186" viewBox="0 0 375 186" fill="none" xmlns="http://www.w3.org/2000/svg">
<path d="M316.08 29.512L314.544 29.056L320.688 9.952L322.248 10.408L316.08 29.512ZM328.997 28.216C327.717 28.216 326.629 27.888 325.733 27.232C324.853 26.56 324.189 25.576 323.741 24.28C323.293 22.984 323.069 21.4 323.069 19.528C323.069 17.64 323.293 16.056 323.741 14.776C324.189 13.48 324.853 12.504 325.733 11.848C326.629 11.192 327.717 10.864 328.997 10.864C330.293 10.864 331.381 11.192 332.261 11.848C333.141 12.504 333.805 13.472 334.253 14.752C334.701 16.032 334.925 17.616 334.925 19.504C334.925 21.392 334.701 22.984 334.253 24.28C333.805 25.576 333.141 26.56 332.261 27.232C331.381 27.888 330.293 28.216 328.997 28.216ZM328.997 26.512C330.341 26.512 331.333 25.944 331.973 24.808C332.629 23.672 332.957 21.904 332.957 19.504C332.957 17.104 332.637 15.352 331.997 14.248C331.357 13.128 330.357 12.568 328.997 12.568C327.669 12.568 326.677 13.128 326.021 14.248C325.365 15.368 325.037 17.12 325.037 19.504C325.037 21.904 325.357 23.672 325.997 24.808C326.653 25.944 327.653 26.512 328.997 26.512ZM343.196 28.216C342.444 28.216 341.716 28.136 341.012 27.976C340.324 27.816 339.676 27.592 339.068 27.304C338.46 27 337.924 26.632 337.46 26.2L338.18 24.64C338.964 25.28 339.756 25.744 340.556 26.032C341.356 26.32 342.22 26.464 343.148 26.464C343.964 26.464 344.652 26.344 345.212 26.104C345.772 25.864 346.196 25.512 346.484 25.048C346.772 24.568 346.916 23.984 346.916 23.296C346.916 22.304 346.588 21.552 345.932 21.04C345.276 20.528 344.324 20.272 343.076 20.272H340.58V18.568H342.908C343.644 18.568 344.268 18.44 344.78 18.184C345.308 17.928 345.716 17.568 346.004 17.104C346.292 16.624 346.436 16.048 346.436 15.376C346.436 14.48 346.148 13.8 345.572 13.336C344.996 12.856 344.164 12.616 343.076 12.616C342.18 12.616 341.356 12.776 340.604 13.096C339.852 13.4 339.14 13.88 338.468 14.536L337.748 13C338.388 12.328 339.188 11.808 340.148 11.44C341.124 11.056 342.14 10.864 343.196 10.864C344.284 10.864 345.212 11.04 345.98 11.392C346.764 11.728 347.364 12.224 347.78 12.88C348.196 13.52 348.404 14.296 348.404 15.208C348.404 16.248 348.116 17.144 347.54 17.896C346.964 18.632 346.18 19.136 345.188 19.408V19.144C345.972 19.272 346.636 19.528 347.18 19.912C347.74 20.296 348.164 20.792 348.452 21.4C348.74 21.992 348.884 22.672 348.884 23.44C348.884 24.416 348.652 25.264 348.188 25.984C347.74 26.688 347.092 27.24 346.244 27.64C345.396 28.024 344.38 28.216 343.196 28.216Z" fill="#4C4648"/>
<path d="M276.027 0C282.655 0 288.027 5.37258 288.027 12V29C288.027 35.6274 293.4 41 300.027 41H363C369.627 41 375 46.3726 375 53V174C375 180.627 369.627 186 363 186H12C5.37259 186 0 180.627 0 174V12C0 5.37258 5.37258 0 12 0H276.027Z" fill="#E9E5E3"/>
<path d="M25.848 44V27.08H28.92V41.384H37.032V44H25.848ZM42.9006 44.24C42.0526 44.24 41.2926 44.08 40.6206 43.76C39.9646 43.424 39.4446 42.976 39.0606 42.416C38.6926 41.856 38.5086 41.224 38.5086 40.52C38.5086 39.656 38.7326 38.976 39.1806 38.48C39.6286 37.968 40.3566 37.6 41.3646 37.376C42.3726 37.152 43.7246 37.04 45.4206 37.04H46.6206V38.768H45.4446C44.6926 38.768 44.0606 38.8 43.5486 38.864C43.0366 38.912 42.6206 39 42.3006 39.128C41.9966 39.24 41.7726 39.4 41.6286 39.608C41.5006 39.816 41.4366 40.072 41.4366 40.376C41.4366 40.904 41.6206 41.336 41.9886 41.672C42.3566 42.008 42.8686 42.176 43.5246 42.176C44.0526 42.176 44.5166 42.056 44.9166 41.816C45.3326 41.56 45.6606 41.216 45.9006 40.784C46.1406 40.352 46.2606 39.856 46.2606 39.296V36.536C46.2606 35.736 46.0846 35.16 45.7326 34.808C45.3806 34.456 44.7886 34.28 43.9566 34.28C43.3006 34.28 42.6286 34.384 41.9406 34.592C41.2526 34.784 40.5566 35.088 39.8526 35.504L38.9886 33.464C39.4046 33.176 39.8926 32.928 40.4526 32.72C41.0286 32.496 41.6286 32.328 42.2526 32.216C42.8926 32.088 43.4926 32.024 44.0526 32.024C45.2046 32.024 46.1486 32.2 46.8846 32.552C47.6366 32.904 48.1966 33.44 48.5646 34.16C48.9326 34.864 49.1166 35.776 49.1166 36.896V44H46.3086V41.504H46.5006C46.3886 42.064 46.1646 42.552 45.8286 42.968C45.5086 43.368 45.1006 43.68 44.6046 43.904C44.1086 44.128 43.5406 44.24 42.9006 44.24ZM56.4096 44.24C55.4336 44.24 54.6256 44.064 53.9856 43.712C53.3456 43.344 52.8656 42.8 52.5456 42.08C52.2416 41.36 52.0896 40.464 52.0896 39.392V32.264H55.0896V39.44C55.0896 39.984 55.1616 40.44 55.3056 40.808C55.4656 41.176 55.6976 41.448 56.0016 41.624C56.3216 41.8 56.7216 41.888 57.2016 41.888C57.7456 41.888 58.2176 41.768 58.6176 41.528C59.0336 41.272 59.3536 40.92 59.5776 40.472C59.8176 40.008 59.9376 39.472 59.9376 38.864V32.264H62.9376V44H60.0096V41.552H60.3456C60.0096 42.416 59.4976 43.08 58.8096 43.544C58.1376 44.008 57.3376 44.24 56.4096 44.24ZM66.06 44V32.264H68.988V34.616H68.724C69.076 33.768 69.62 33.128 70.356 32.696C71.108 32.248 71.956 32.024 72.9 32.024C73.844 32.024 74.62 32.2 75.228 32.552C75.836 32.904 76.292 33.44 76.596 34.16C76.9 34.864 77.052 35.76 77.052 36.848V44H74.052V36.992C74.052 36.384 73.972 35.888 73.812 35.504C73.668 35.12 73.436 34.84 73.116 34.664C72.812 34.472 72.42 34.376 71.94 34.376C71.364 34.376 70.86 34.504 70.428 34.76C69.996 35 69.66 35.352 69.42 35.816C69.18 36.264 69.06 36.792 69.06 37.4V44H66.06ZM85.5231 44.24C84.2911 44.24 83.2191 43.992 82.3071 43.496C81.3951 42.984 80.6911 42.264 80.1951 41.336C79.6991 40.408 79.4511 39.32 79.4511 38.072C79.4511 36.824 79.6991 35.752 80.1951 34.856C80.6911 33.944 81.3951 33.248 82.3071 32.768C83.2191 32.272 84.2911 32.024 85.5231 32.024C86.2751 32.024 87.0191 32.144 87.7551 32.384C88.4911 32.624 89.0991 32.96 89.5791 33.392L88.6911 35.48C88.2751 35.112 87.8031 34.832 87.2751 34.64C86.7631 34.448 86.2671 34.352 85.7871 34.352C84.7471 34.352 83.9391 34.68 83.3631 35.336C82.8031 35.976 82.5231 36.896 82.5231 38.096C82.5231 39.28 82.8031 40.216 83.3631 40.904C83.9391 41.576 84.7471 41.912 85.7871 41.912C86.2511 41.912 86.7471 41.816 87.2751 41.624C87.8031 41.432 88.2751 41.144 88.6911 40.76L89.5791 42.872C89.0991 43.288 88.4831 43.624 87.7311 43.88C86.9951 44.12 86.2591 44.24 85.5231 44.24ZM91.4194 44V27.08H94.4194V34.616H94.0834C94.4354 33.768 94.9794 33.128 95.7154 32.696C96.4674 32.248 97.3154 32.024 98.2594 32.024C99.2034 32.024 99.9794 32.2 100.587 32.552C101.195 32.904 101.651 33.44 101.955 34.16C102.259 34.864 102.411 35.76 102.411 36.848V44H99.4114V36.992C99.4114 36.384 99.3314 35.888 99.1714 35.504C99.0274 35.12 98.7954 34.84 98.4754 34.664C98.1714 34.472 97.7794 34.376 97.2994 34.376C96.7234 34.376 96.2194 34.504 95.7874 34.76C95.3554 35 95.0194 35.352 94.7794 35.816C94.5394 36.264 94.4194 36.792 94.4194 37.4V44H91.4194ZM31.224 68.24C30.024 68.24 28.984 68.048 28.104 67.664C27.224 67.28 26.544 66.752 26.064 66.08C25.6 65.392 25.368 64.592 25.368 63.68C25.368 62.96 25.504 62.304 25.776 61.712C26.048 61.104 26.44 60.552 26.952 60.056C27.464 59.544 28.08 59.08 28.8 58.664L29.616 58.184L29.184 58.832C28.48 58.128 27.968 57.464 27.648 56.84C27.344 56.2 27.192 55.544 27.192 54.872C27.192 54.072 27.384 53.368 27.768 52.76C28.152 52.152 28.696 51.68 29.4 51.344C30.104 51.008 30.928 50.84 31.872 50.84C32.752 50.84 33.504 50.992 34.128 51.296C34.768 51.6 35.264 52.032 35.616 52.592C35.968 53.136 36.144 53.784 36.144 54.536C36.144 55.144 36.024 55.72 35.784 56.264C35.544 56.808 35.16 57.328 34.632 57.824C34.104 58.32 33.4 58.808 32.52 59.288L32.544 58.568L36.624 62.912H35.976C36.36 62.256 36.664 61.488 36.888 60.608C37.112 59.728 37.248 58.808 37.296 57.848H39.792C39.744 59.16 39.536 60.4 39.168 61.568C38.816 62.736 38.328 63.768 37.704 64.664L37.68 63.92L41.736 68H38.088L36.024 65.816H36.72C36.016 66.568 35.184 67.16 34.224 67.592C33.28 68.024 32.28 68.24 31.224 68.24ZM31.392 65.864C32.16 65.864 32.84 65.72 33.432 65.432C34.04 65.128 34.592 64.68 35.088 64.088L35.016 64.856L30.072 59.744L31.32 59.864L30.624 60.272C30.08 60.592 29.64 60.912 29.304 61.232C28.968 61.536 28.72 61.872 28.56 62.24C28.416 62.592 28.344 62.992 28.344 63.44C28.344 64.192 28.608 64.784 29.136 65.216C29.664 65.648 30.416 65.864 31.392 65.864ZM31.872 52.976C31.296 52.976 30.832 53.144 30.48 53.48C30.128 53.8 29.952 54.24 29.952 54.8C29.952 55.104 30 55.392 30.096 55.664C30.192 55.92 30.36 56.208 30.6 56.528C30.84 56.832 31.168 57.208 31.584 57.656L30.912 57.608C31.584 57.224 32.112 56.88 32.496 56.576C32.896 56.272 33.184 55.968 33.36 55.664C33.536 55.36 33.624 55.024 33.624 54.656C33.624 54.112 33.464 53.696 33.144 53.408C32.824 53.12 32.4 52.976 31.872 52.976ZM49.7788 68V51.08H52.3468L58.7308 62.864H57.9628L64.3228 51.08H66.8428V68H64.0588V55.64H64.5868L59.2108 65.432H57.4108L51.9868 55.616H52.5628V68H49.7788ZM75.6308 68.24C74.4148 68.24 73.3588 67.992 72.4628 67.496C71.5668 67 70.8708 66.296 70.3748 65.384C69.8788 64.456 69.6308 63.368 69.6308 62.12C69.6308 60.872 69.8788 59.792 70.3748 58.88C70.8708 57.968 71.5668 57.264 72.4628 56.768C73.3588 56.272 74.4148 56.024 75.6308 56.024C76.8468 56.024 77.9028 56.272 78.7988 56.768C79.6948 57.264 80.3908 57.968 80.8868 58.88C81.3828 59.792 81.6308 60.872 81.6308 62.12C81.6308 63.368 81.3828 64.456 80.8868 65.384C80.3908 66.296 79.6948 67 78.7988 67.496C77.9028 67.992 76.8468 68.24 75.6308 68.24ZM75.6308 65.96C76.5268 65.96 77.2468 65.64 77.7908 65C78.3348 64.344 78.6068 63.384 78.6068 62.12C78.6068 60.84 78.3348 59.888 77.7908 59.264C77.2468 58.624 76.5268 58.304 75.6308 58.304C74.7348 58.304 74.0148 58.624 73.4708 59.264C72.9268 59.888 72.6548 60.84 72.6548 62.12C72.6548 63.384 72.9268 64.344 73.4708 65C74.0148 65.64 74.7348 65.96 75.6308 65.96ZM84.1069 68V56.264H87.0349V58.616H86.7709C87.1229 57.768 87.6669 57.128 88.4029 56.696C89.1549 56.248 90.0029 56.024 90.9469 56.024C91.8909 56.024 92.6669 56.2 93.2749 56.552C93.8829 56.904 94.3389 57.44 94.6429 58.16C94.9469 58.864 95.0989 59.76 95.0989 60.848V68H92.0989V60.992C92.0989 60.384 92.0189 59.888 91.8589 59.504C91.7149 59.12 91.4829 58.84 91.1629 58.664C90.8589 58.472 90.4669 58.376 89.9869 58.376C89.4109 58.376 88.9069 58.504 88.4749 58.76C88.0429 59 87.7069 59.352 87.4669 59.816C87.2269 60.264 87.1069 60.792 87.1069 61.4V68H84.1069ZM97.9539 53.744V50.816H101.314V53.744H97.9539ZM98.1459 68V56.264H101.146V68H98.1459ZM109.639 68.24C108.071 68.24 106.903 67.848 106.135 67.064C105.367 66.28 104.983 65.136 104.983 63.632V58.52H102.727V56.264H104.983V52.76H107.983V56.264H111.535V58.52H107.983V63.464C107.983 64.232 108.151 64.808 108.487 65.192C108.823 65.576 109.367 65.768 110.119 65.768C110.343 65.768 110.575 65.744 110.815 65.696C111.055 65.632 111.303 65.568 111.559 65.504L112.015 67.712C111.727 67.872 111.359 68 110.911 68.096C110.479 68.192 110.055 68.24 109.639 68.24ZM118.709 68.24C117.493 68.24 116.437 67.992 115.541 67.496C114.645 67 113.949 66.296 113.453 65.384C112.957 64.456 112.709 63.368 112.709 62.12C112.709 60.872 112.957 59.792 113.453 58.88C113.949 57.968 114.645 57.264 115.541 56.768C116.437 56.272 117.493 56.024 118.709 56.024C119.925 56.024 120.981 56.272 121.877 56.768C122.773 57.264 123.469 57.968 123.965 58.88C124.461 59.792 124.709 60.872 124.709 62.12C124.709 63.368 124.461 64.456 123.965 65.384C123.469 66.296 122.773 67 121.877 67.496C120.981 67.992 119.925 68.24 118.709 68.24ZM118.709 65.96C119.605 65.96 120.325 65.64 120.869 65C121.413 64.344 121.685 63.384 121.685 62.12C121.685 60.84 121.413 59.888 120.869 59.264C120.325 58.624 119.605 58.304 118.709 58.304C117.813 58.304 117.093 58.624 116.549 59.264C116.005 59.888 115.733 60.84 115.733 62.12C115.733 63.384 116.005 64.344 116.549 65C117.093 65.64 117.813 65.96 118.709 65.96ZM127.185 68V56.264H130.113V59.096H129.873C130.097 58.136 130.537 57.408 131.193 56.912C131.849 56.4 132.721 56.104 133.809 56.024L134.721 55.952L134.913 58.496L133.185 58.664C132.209 58.76 131.473 59.064 130.977 59.576C130.481 60.072 130.233 60.776 130.233 61.688V68H127.185Z" fill="#282828"/>
<path d="M30.4453 124.586C29.8151 124.586 29.2474 124.695 28.7422 124.914C28.2422 125.128 27.8151 125.44 27.4609 125.852C27.112 126.258 26.8438 126.75 26.6562 127.328C26.4688 127.906 26.375 128.557 26.375 129.281C26.375 130.24 26.5234 131.073 26.8203 131.781C27.1224 132.484 27.5703 133.029 28.1641 133.414C28.763 133.799 29.5104 133.992 30.4062 133.992C30.9167 133.992 31.3958 133.951 31.8438 133.867C32.2969 133.779 32.737 133.669 33.1641 133.539V134.695C32.7474 134.852 32.3099 134.966 31.8516 135.039C31.3932 135.117 30.849 135.156 30.2188 135.156C29.0573 135.156 28.0859 134.917 27.3047 134.438C26.5286 133.953 25.9453 133.271 25.5547 132.391C25.1693 131.51 24.9766 130.471 24.9766 129.273C24.9766 128.409 25.0964 127.62 25.3359 126.906C25.5807 126.188 25.9349 125.568 26.3984 125.047C26.8672 124.526 27.4401 124.125 28.1172 123.844C28.7995 123.557 29.5807 123.414 30.4609 123.414C31.0391 123.414 31.5964 123.471 32.1328 123.586C32.6693 123.701 33.1536 123.865 33.5859 124.078L33.0547 125.203C32.6901 125.036 32.2891 124.893 31.8516 124.773C31.4193 124.648 30.9505 124.586 30.4453 124.586ZM38.6484 126.297C39.6693 126.297 40.4271 126.526 40.9219 126.984C41.4167 127.443 41.6641 128.174 41.6641 129.18V135H40.7188L40.4688 133.734H40.4062C40.1667 134.047 39.9167 134.31 39.6562 134.523C39.3958 134.732 39.0938 134.891 38.75 135C38.4115 135.104 37.9948 135.156 37.5 135.156C36.9792 135.156 36.5156 135.065 36.1094 134.883C35.7083 134.701 35.3906 134.424 35.1562 134.055C34.9271 133.685 34.8125 133.216 34.8125 132.648C34.8125 131.794 35.151 131.138 35.8281 130.68C36.5052 130.221 37.5365 129.971 38.9219 129.93L40.3984 129.867V129.344C40.3984 128.604 40.2396 128.086 39.9219 127.789C39.6042 127.492 39.1562 127.344 38.5781 127.344C38.1302 127.344 37.7031 127.409 37.2969 127.539C36.8906 127.669 36.5052 127.823 36.1406 128L35.7422 127.016C36.1276 126.818 36.5703 126.648 37.0703 126.508C37.5703 126.367 38.0964 126.297 38.6484 126.297ZM40.3828 130.781L39.0781 130.836C38.0104 130.878 37.2578 131.052 36.8203 131.359C36.3828 131.667 36.1641 132.102 36.1641 132.664C36.1641 133.154 36.3125 133.516 36.6094 133.75C36.9062 133.984 37.2995 134.102 37.7891 134.102C38.5495 134.102 39.1719 133.891 39.6562 133.469C40.1406 133.047 40.3828 132.414 40.3828 131.57V130.781ZM53.6328 126.281C54.5755 126.281 55.2865 126.529 55.7656 127.023C56.2448 127.513 56.4844 128.302 56.4844 129.391V135H55.2031V129.453C55.2031 128.76 55.0521 128.242 54.75 127.898C54.4531 127.549 54.0104 127.375 53.4219 127.375C52.5938 127.375 51.9922 127.615 51.6172 128.094C51.2422 128.573 51.0547 129.279 51.0547 130.211V135H49.7656V129.453C49.7656 128.99 49.6979 128.604 49.5625 128.297C49.4323 127.99 49.2344 127.76 48.9688 127.609C48.7083 127.453 48.3776 127.375 47.9766 127.375C47.4089 127.375 46.9531 127.492 46.6094 127.727C46.2656 127.961 46.0156 128.31 45.8594 128.773C45.7083 129.232 45.6328 129.797 45.6328 130.469V135H44.3359V126.438H45.3828L45.5781 127.648H45.6484C45.8203 127.352 46.0365 127.102 46.2969 126.898C46.5573 126.695 46.849 126.542 47.1719 126.438C47.4948 126.333 47.8385 126.281 48.2031 126.281C48.8542 126.281 49.3984 126.404 49.8359 126.648C50.2786 126.888 50.599 127.255 50.7969 127.75H50.8672C51.1484 127.255 51.5339 126.888 52.0234 126.648C52.513 126.404 53.0495 126.281 53.6328 126.281ZM63.1719 126.281C64.2396 126.281 65.0911 126.648 65.7266 127.383C66.362 128.117 66.6797 129.221 66.6797 130.695C66.6797 131.669 66.5339 132.487 66.2422 133.148C65.9505 133.81 65.5391 134.31 65.0078 134.648C64.4818 134.987 63.8594 135.156 63.1406 135.156C62.6875 135.156 62.2891 135.096 61.9453 134.977C61.6016 134.857 61.3073 134.695 61.0625 134.492C60.8177 134.289 60.6146 134.068 60.4531 133.828H60.3594C60.375 134.031 60.3932 134.276 60.4141 134.562C60.4401 134.849 60.4531 135.099 60.4531 135.312V138.828H59.1484V126.438H60.2188L60.3906 127.703H60.4531C60.6198 127.443 60.8229 127.206 61.0625 126.992C61.3021 126.773 61.5938 126.602 61.9375 126.477C62.2865 126.346 62.6979 126.281 63.1719 126.281ZM62.9453 127.375C62.3516 127.375 61.8724 127.49 61.5078 127.719C61.1484 127.948 60.8854 128.292 60.7188 128.75C60.5521 129.203 60.4635 129.773 60.4531 130.461V130.711C60.4531 131.435 60.5312 132.047 60.6875 132.547C60.849 133.047 61.112 133.427 61.4766 133.688C61.8464 133.948 62.3411 134.078 62.9609 134.078C63.4922 134.078 63.9349 133.935 64.2891 133.648C64.6432 133.362 64.9062 132.964 65.0781 132.453C65.2552 131.938 65.3438 131.346 65.3438 130.68C65.3438 129.669 65.1458 128.867 64.75 128.273C64.3594 127.674 63.7578 127.375 62.9453 127.375ZM72.1484 126.297C73.1693 126.297 73.9271 126.526 74.4219 126.984C74.9167 127.443 75.1641 128.174 75.1641 129.18V135H74.2188L73.9688 133.734H73.9062C73.6667 134.047 73.4167 134.31 73.1562 134.523C72.8958 134.732 72.5938 134.891 72.25 135C71.9115 135.104 71.4948 135.156 71 135.156C70.4792 135.156 70.0156 135.065 69.6094 134.883C69.2083 134.701 68.8906 134.424 68.6562 134.055C68.4271 133.685 68.3125 133.216 68.3125 132.648C68.3125 131.794 68.651 131.138 69.3281 130.68C70.0052 130.221 71.0365 129.971 72.4219 129.93L73.8984 129.867V129.344C73.8984 128.604 73.7396 128.086 73.4219 127.789C73.1042 127.492 72.6562 127.344 72.0781 127.344C71.6302 127.344 71.2031 127.409 70.7969 127.539C70.3906 127.669 70.0052 127.823 69.6406 128L69.2422 127.016C69.6276 126.818 70.0703 126.648 70.5703 126.508C71.0703 126.367 71.5964 126.297 72.1484 126.297ZM73.8828 130.781L72.5781 130.836C71.5104 130.878 70.7578 131.052 70.3203 131.359C69.8828 131.667 69.6641 132.102 69.6641 132.664C69.6641 133.154 69.8125 133.516 70.1094 133.75C70.4062 133.984 70.7995 134.102 71.2891 134.102C72.0495 134.102 72.6719 133.891 73.1562 133.469C73.6406 133.047 73.8828 132.414 73.8828 131.57V130.781ZM79.1328 126.438V135H77.8359V126.438H79.1328ZM78.5 123.234C78.7135 123.234 78.8958 123.305 79.0469 123.445C79.2031 123.581 79.2812 123.794 79.2812 124.086C79.2812 124.372 79.2031 124.586 79.0469 124.727C78.8958 124.867 78.7135 124.938 78.5 124.938C78.276 124.938 78.0885 124.867 77.9375 124.727C77.7917 124.586 77.7188 124.372 77.7188 124.086C77.7188 123.794 77.7917 123.581 77.9375 123.445C78.0885 123.305 78.276 123.234 78.5 123.234ZM84.2734 138.844C83.1484 138.844 82.2812 138.633 81.6719 138.211C81.0625 137.794 80.7578 137.208 80.7578 136.453C80.7578 135.917 80.9271 135.458 81.2656 135.078C81.6094 134.698 82.0833 134.445 82.6875 134.32C82.4635 134.216 82.2708 134.06 82.1094 133.852C81.9531 133.643 81.875 133.404 81.875 133.133C81.875 132.82 81.9609 132.547 82.1328 132.312C82.3099 132.073 82.5781 131.844 82.9375 131.625C82.4896 131.443 82.125 131.135 81.8438 130.703C81.5677 130.266 81.4297 129.758 81.4297 129.18C81.4297 128.565 81.5573 128.042 81.8125 127.609C82.0677 127.172 82.4375 126.839 82.9219 126.609C83.4062 126.38 83.9922 126.266 84.6797 126.266C84.8307 126.266 84.9818 126.273 85.1328 126.289C85.2891 126.299 85.4375 126.318 85.5781 126.344C85.7188 126.365 85.8411 126.391 85.9453 126.422H88.8828V127.258L87.3047 127.453C87.4609 127.656 87.5911 127.901 87.6953 128.188C87.7995 128.474 87.8516 128.792 87.8516 129.141C87.8516 129.995 87.5625 130.674 86.9844 131.18C86.4062 131.68 85.612 131.93 84.6016 131.93C84.362 131.93 84.1172 131.909 83.8672 131.867C83.612 132.008 83.4167 132.164 83.2812 132.336C83.151 132.508 83.0859 132.706 83.0859 132.93C83.0859 133.096 83.1354 133.229 83.2344 133.328C83.3385 133.427 83.487 133.5 83.6797 133.547C83.8724 133.589 84.1042 133.609 84.375 133.609H85.8828C86.8151 133.609 87.5286 133.805 88.0234 134.195C88.5234 134.586 88.7734 135.156 88.7734 135.906C88.7734 136.854 88.388 137.581 87.6172 138.086C86.8464 138.591 85.7318 138.844 84.2734 138.844ZM84.3125 137.828C85.0208 137.828 85.6068 137.755 86.0703 137.609C86.5391 137.469 86.888 137.263 87.1172 136.992C87.3516 136.727 87.4688 136.409 87.4688 136.039C87.4688 135.695 87.3906 135.435 87.2344 135.258C87.0781 135.086 86.849 134.971 86.5469 134.914C86.2448 134.852 85.875 134.82 85.4375 134.82H83.9531C83.5677 134.82 83.2318 134.88 82.9453 135C82.6589 135.12 82.4375 135.297 82.2812 135.531C82.1302 135.766 82.0547 136.057 82.0547 136.406C82.0547 136.87 82.25 137.221 82.6406 137.461C83.0312 137.706 83.5885 137.828 84.3125 137.828ZM84.6484 130.984C85.2682 130.984 85.7344 130.828 86.0469 130.516C86.3594 130.203 86.5156 129.747 86.5156 129.148C86.5156 128.508 86.3568 128.029 86.0391 127.711C85.7214 127.388 85.2526 127.227 84.6328 127.227C84.0391 127.227 83.5807 127.393 83.2578 127.727C82.9401 128.055 82.7812 128.536 82.7812 129.172C82.7812 129.755 82.9427 130.203 83.2656 130.516C83.5885 130.828 84.0495 130.984 84.6484 130.984ZM94.625 126.281C95.6406 126.281 96.4089 126.531 96.9297 127.031C97.4505 127.526 97.7109 128.323 97.7109 129.422V135H96.4297V129.508C96.4297 128.794 96.2656 128.26 95.9375 127.906C95.6146 127.552 95.1172 127.375 94.4453 127.375C93.4974 127.375 92.8307 127.643 92.4453 128.18C92.0599 128.716 91.8672 129.495 91.8672 130.516V135H90.5703V126.438H91.6172L91.8125 127.672H91.8828C92.0651 127.37 92.2969 127.117 92.5781 126.914C92.8594 126.706 93.1745 126.549 93.5234 126.445C93.8724 126.336 94.2396 126.281 94.625 126.281ZM105.922 132.656C105.922 133.203 105.784 133.664 105.508 134.039C105.237 134.409 104.846 134.688 104.336 134.875C103.831 135.062 103.227 135.156 102.523 135.156C101.924 135.156 101.406 135.109 100.969 135.016C100.531 134.922 100.148 134.789 99.8203 134.617V133.422C100.169 133.594 100.586 133.75 101.07 133.891C101.555 134.031 102.049 134.102 102.555 134.102C103.294 134.102 103.831 133.982 104.164 133.742C104.497 133.503 104.664 133.177 104.664 132.766C104.664 132.531 104.596 132.326 104.461 132.148C104.331 131.966 104.109 131.792 103.797 131.625C103.484 131.453 103.052 131.266 102.5 131.062C101.953 130.854 101.479 130.648 101.078 130.445C100.682 130.237 100.375 129.984 100.156 129.688C99.9427 129.391 99.8359 129.005 99.8359 128.531C99.8359 127.807 100.128 127.253 100.711 126.867C101.299 126.477 102.07 126.281 103.023 126.281C103.539 126.281 104.021 126.333 104.469 126.438C104.922 126.536 105.344 126.672 105.734 126.844L105.297 127.883C104.943 127.732 104.565 127.604 104.164 127.5C103.763 127.396 103.354 127.344 102.938 127.344C102.339 127.344 101.878 127.443 101.555 127.641C101.237 127.839 101.078 128.109 101.078 128.453C101.078 128.719 101.151 128.938 101.297 129.109C101.448 129.281 101.688 129.443 102.016 129.594C102.344 129.745 102.776 129.922 103.312 130.125C103.849 130.323 104.312 130.529 104.703 130.742C105.094 130.951 105.393 131.206 105.602 131.508C105.815 131.805 105.922 132.188 105.922 132.656ZM114.555 138.844C113.43 138.844 112.562 138.633 111.953 138.211C111.344 137.794 111.039 137.208 111.039 136.453C111.039 135.917 111.208 135.458 111.547 135.078C111.891 134.698 112.365 134.445 112.969 134.32C112.745 134.216 112.552 134.06 112.391 133.852C112.234 133.643 112.156 133.404 112.156 133.133C112.156 132.82 112.242 132.547 112.414 132.312C112.591 132.073 112.859 131.844 113.219 131.625C112.771 131.443 112.406 131.135 112.125 130.703C111.849 130.266 111.711 129.758 111.711 129.18C111.711 128.565 111.839 128.042 112.094 127.609C112.349 127.172 112.719 126.839 113.203 126.609C113.688 126.38 114.273 126.266 114.961 126.266C115.112 126.266 115.263 126.273 115.414 126.289C115.57 126.299 115.719 126.318 115.859 126.344C116 126.365 116.122 126.391 116.227 126.422H119.164V127.258L117.586 127.453C117.742 127.656 117.872 127.901 117.977 128.188C118.081 128.474 118.133 128.792 118.133 129.141C118.133 129.995 117.844 130.674 117.266 131.18C116.688 131.68 115.893 131.93 114.883 131.93C114.643 131.93 114.398 131.909 114.148 131.867C113.893 132.008 113.698 132.164 113.562 132.336C113.432 132.508 113.367 132.706 113.367 132.93C113.367 133.096 113.417 133.229 113.516 133.328C113.62 133.427 113.768 133.5 113.961 133.547C114.154 133.589 114.385 133.609 114.656 133.609H116.164C117.096 133.609 117.81 133.805 118.305 134.195C118.805 134.586 119.055 135.156 119.055 135.906C119.055 136.854 118.669 137.581 117.898 138.086C117.128 138.591 116.013 138.844 114.555 138.844ZM114.594 137.828C115.302 137.828 115.888 137.755 116.352 137.609C116.82 137.469 117.169 137.263 117.398 136.992C117.633 136.727 117.75 136.409 117.75 136.039C117.75 135.695 117.672 135.435 117.516 135.258C117.359 135.086 117.13 134.971 116.828 134.914C116.526 134.852 116.156 134.82 115.719 134.82H114.234C113.849 134.82 113.513 134.88 113.227 135C112.94 135.12 112.719 135.297 112.562 135.531C112.411 135.766 112.336 136.057 112.336 136.406C112.336 136.87 112.531 137.221 112.922 137.461C113.312 137.706 113.87 137.828 114.594 137.828ZM114.93 130.984C115.549 130.984 116.016 130.828 116.328 130.516C116.641 130.203 116.797 129.747 116.797 129.148C116.797 128.508 116.638 128.029 116.32 127.711C116.003 127.388 115.534 127.227 114.914 127.227C114.32 127.227 113.862 127.393 113.539 127.727C113.221 128.055 113.062 128.536 113.062 129.172C113.062 129.755 113.224 130.203 113.547 130.516C113.87 130.828 114.331 130.984 114.93 130.984ZM128.234 130.703C128.234 131.406 128.143 132.034 127.961 132.586C127.779 133.138 127.516 133.604 127.172 133.984C126.828 134.365 126.411 134.656 125.922 134.859C125.438 135.057 124.888 135.156 124.273 135.156C123.701 135.156 123.174 135.057 122.695 134.859C122.221 134.656 121.81 134.365 121.461 133.984C121.117 133.604 120.849 133.138 120.656 132.586C120.469 132.034 120.375 131.406 120.375 130.703C120.375 129.766 120.534 128.969 120.852 128.312C121.169 127.651 121.622 127.148 122.211 126.805C122.805 126.456 123.51 126.281 124.328 126.281C125.109 126.281 125.792 126.456 126.375 126.805C126.964 127.154 127.419 127.659 127.742 128.32C128.07 128.977 128.234 129.771 128.234 130.703ZM121.719 130.703C121.719 131.391 121.81 131.987 121.992 132.492C122.174 132.997 122.456 133.388 122.836 133.664C123.216 133.94 123.706 134.078 124.305 134.078C124.898 134.078 125.385 133.94 125.766 133.664C126.151 133.388 126.435 132.997 126.617 132.492C126.799 131.987 126.891 131.391 126.891 130.703C126.891 130.021 126.799 129.432 126.617 128.938C126.435 128.438 126.154 128.052 125.773 127.781C125.393 127.51 124.901 127.375 124.297 127.375C123.406 127.375 122.753 127.669 122.336 128.258C121.924 128.846 121.719 129.661 121.719 130.703ZM135.938 135H134.633V122.844H135.938V135ZM139.977 126.438V135H138.68V126.438H139.977ZM139.344 123.234C139.557 123.234 139.74 123.305 139.891 123.445C140.047 123.581 140.125 123.794 140.125 124.086C140.125 124.372 140.047 124.586 139.891 124.727C139.74 124.867 139.557 124.938 139.344 124.938C139.12 124.938 138.932 124.867 138.781 124.727C138.635 124.586 138.562 124.372 138.562 124.086C138.562 123.794 138.635 123.581 138.781 123.445C138.932 123.305 139.12 123.234 139.344 123.234ZM144.609 135L141.359 126.438H142.75L144.633 131.617C144.763 131.971 144.896 132.362 145.031 132.789C145.167 133.216 145.26 133.56 145.312 133.82H145.367C145.43 133.56 145.534 133.216 145.68 132.789C145.826 132.357 145.958 131.966 146.078 131.617L147.961 126.438H149.352L146.094 135H144.609ZM154.023 126.281C154.753 126.281 155.378 126.443 155.898 126.766C156.419 127.089 156.818 127.542 157.094 128.125C157.37 128.703 157.508 129.38 157.508 130.156V130.961H151.594C151.609 131.966 151.859 132.732 152.344 133.258C152.828 133.784 153.51 134.047 154.391 134.047C154.932 134.047 155.411 133.997 155.828 133.898C156.245 133.799 156.677 133.654 157.125 133.461V134.602C156.693 134.794 156.263 134.935 155.836 135.023C155.414 135.112 154.914 135.156 154.336 135.156C153.513 135.156 152.794 134.99 152.18 134.656C151.57 134.318 151.096 133.823 150.758 133.172C150.419 132.521 150.25 131.724 150.25 130.781C150.25 129.859 150.404 129.062 150.711 128.391C151.023 127.714 151.461 127.193 152.023 126.828C152.591 126.464 153.258 126.281 154.023 126.281ZM154.008 127.344C153.315 127.344 152.763 127.57 152.352 128.023C151.94 128.477 151.695 129.109 151.617 129.922H156.148C156.143 129.411 156.062 128.964 155.906 128.578C155.755 128.188 155.523 127.885 155.211 127.672C154.898 127.453 154.497 127.344 154.008 127.344ZM170.836 134.984L169.312 130C169.245 129.786 169.18 129.578 169.117 129.375C169.06 129.167 169.005 128.969 168.953 128.781C168.906 128.589 168.862 128.411 168.82 128.25C168.784 128.083 168.753 127.94 168.727 127.82H168.672C168.651 127.94 168.622 128.083 168.586 128.25C168.549 128.411 168.505 128.589 168.453 128.781C168.406 128.974 168.354 129.177 168.297 129.391C168.24 129.599 168.174 129.81 168.102 130.023L166.508 134.984H165.047L162.688 126.422H164.031L165.266 131.148C165.349 131.461 165.427 131.771 165.5 132.078C165.578 132.38 165.643 132.667 165.695 132.938C165.753 133.203 165.794 133.435 165.82 133.633H165.883C165.914 133.503 165.948 133.346 165.984 133.164C166.026 132.982 166.07 132.789 166.117 132.586C166.169 132.378 166.224 132.172 166.281 131.969C166.339 131.76 166.396 131.565 166.453 131.383L168.031 126.422H169.43L170.953 131.375C171.031 131.625 171.107 131.885 171.18 132.156C171.258 132.427 171.328 132.69 171.391 132.945C171.453 133.195 171.497 133.419 171.523 133.617H171.586C171.607 133.44 171.646 133.221 171.703 132.961C171.76 132.701 171.826 132.414 171.898 132.102C171.977 131.789 172.057 131.471 172.141 131.148L173.391 126.422H174.711L172.344 134.984H170.836ZM177.57 126.438V135H176.273V126.438H177.57ZM176.938 123.234C177.151 123.234 177.333 123.305 177.484 123.445C177.641 123.581 177.719 123.794 177.719 124.086C177.719 124.372 177.641 124.586 177.484 124.727C177.333 124.867 177.151 124.938 176.938 124.938C176.714 124.938 176.526 124.867 176.375 124.727C176.229 124.586 176.156 124.372 176.156 124.086C176.156 123.794 176.229 123.581 176.375 123.445C176.526 123.305 176.714 123.234 176.938 123.234ZM183.086 134.094C183.299 134.094 183.518 134.076 183.742 134.039C183.966 134.003 184.148 133.958 184.289 133.906V134.914C184.138 134.982 183.927 135.039 183.656 135.086C183.391 135.133 183.13 135.156 182.875 135.156C182.422 135.156 182.01 135.078 181.641 134.922C181.271 134.76 180.974 134.49 180.75 134.109C180.531 133.729 180.422 133.203 180.422 132.531V127.453H179.203V126.82L180.43 126.312L180.945 124.453H181.727V126.438H184.234V127.453H181.727V132.492C181.727 133.029 181.849 133.43 182.094 133.695C182.344 133.961 182.674 134.094 183.086 134.094ZM187.32 122.844V126.477C187.32 126.685 187.315 126.896 187.305 127.109C187.294 127.318 187.276 127.51 187.25 127.688H187.336C187.513 127.385 187.737 127.133 188.008 126.93C188.284 126.721 188.596 126.565 188.945 126.461C189.294 126.352 189.664 126.297 190.055 126.297C190.742 126.297 191.315 126.406 191.773 126.625C192.237 126.844 192.583 127.182 192.812 127.641C193.047 128.099 193.164 128.693 193.164 129.422V135H191.883V129.508C191.883 128.794 191.719 128.26 191.391 127.906C191.068 127.552 190.57 127.375 189.898 127.375C189.263 127.375 188.755 127.497 188.375 127.742C188 127.982 187.729 128.336 187.562 128.805C187.401 129.273 187.32 129.846 187.32 130.523V135H186.023V122.844H187.32ZM203.805 127.453H201.672V135H200.375V127.453H198.859V126.828L200.375 126.398V125.828C200.375 125.109 200.482 124.526 200.695 124.078C200.909 123.625 201.219 123.292 201.625 123.078C202.031 122.865 202.526 122.758 203.109 122.758C203.438 122.758 203.737 122.786 204.008 122.844C204.284 122.901 204.526 122.966 204.734 123.039L204.398 124.062C204.221 124.005 204.021 123.953 203.797 123.906C203.578 123.854 203.354 123.828 203.125 123.828C202.63 123.828 202.263 123.99 202.023 124.312C201.789 124.63 201.672 125.13 201.672 125.812V126.438H203.805V127.453ZM212.453 126.438V135H211.391L211.203 133.797H211.133C210.956 134.094 210.727 134.344 210.445 134.547C210.164 134.75 209.846 134.901 209.492 135C209.143 135.104 208.771 135.156 208.375 135.156C207.698 135.156 207.13 135.047 206.672 134.828C206.214 134.609 205.867 134.271 205.633 133.812C205.404 133.354 205.289 132.766 205.289 132.047V126.438H206.602V131.953C206.602 132.667 206.763 133.201 207.086 133.555C207.409 133.904 207.901 134.078 208.562 134.078C209.198 134.078 209.703 133.958 210.078 133.719C210.458 133.479 210.732 133.128 210.898 132.664C211.065 132.195 211.148 131.622 211.148 130.945V126.438H212.453ZM216.5 135H215.195V122.844H216.5V135ZM220.547 135H219.242V122.844H220.547V135ZM231.469 126.281C232.536 126.281 233.388 126.648 234.023 127.383C234.659 128.117 234.977 129.221 234.977 130.695C234.977 131.669 234.831 132.487 234.539 133.148C234.247 133.81 233.836 134.31 233.305 134.648C232.779 134.987 232.156 135.156 231.438 135.156C230.984 135.156 230.586 135.096 230.242 134.977C229.898 134.857 229.604 134.695 229.359 134.492C229.115 134.289 228.911 134.068 228.75 133.828H228.656C228.672 134.031 228.69 134.276 228.711 134.562C228.737 134.849 228.75 135.099 228.75 135.312V138.828H227.445V126.438H228.516L228.688 127.703H228.75C228.917 127.443 229.12 127.206 229.359 126.992C229.599 126.773 229.891 126.602 230.234 126.477C230.583 126.346 230.995 126.281 231.469 126.281ZM231.242 127.375C230.648 127.375 230.169 127.49 229.805 127.719C229.445 127.948 229.182 128.292 229.016 128.75C228.849 129.203 228.76 129.773 228.75 130.461V130.711C228.75 131.435 228.828 132.047 228.984 132.547C229.146 133.047 229.409 133.427 229.773 133.688C230.143 133.948 230.638 134.078 231.258 134.078C231.789 134.078 232.232 133.935 232.586 133.648C232.94 133.362 233.203 132.964 233.375 132.453C233.552 131.938 233.641 131.346 233.641 130.68C233.641 129.669 233.443 128.867 233.047 128.273C232.656 127.674 232.055 127.375 231.242 127.375ZM240.539 126.281C241.268 126.281 241.893 126.443 242.414 126.766C242.935 127.089 243.333 127.542 243.609 128.125C243.885 128.703 244.023 129.38 244.023 130.156V130.961H238.109C238.125 131.966 238.375 132.732 238.859 133.258C239.344 133.784 240.026 134.047 240.906 134.047C241.448 134.047 241.927 133.997 242.344 133.898C242.76 133.799 243.193 133.654 243.641 133.461V134.602C243.208 134.794 242.779 134.935 242.352 135.023C241.93 135.112 241.43 135.156 240.852 135.156C240.029 135.156 239.31 134.99 238.695 134.656C238.086 134.318 237.612 133.823 237.273 133.172C236.935 132.521 236.766 131.724 236.766 130.781C236.766 129.859 236.919 129.062 237.227 128.391C237.539 127.714 237.977 127.193 238.539 126.828C239.107 126.464 239.773 126.281 240.539 126.281ZM240.523 127.344C239.831 127.344 239.279 127.57 238.867 128.023C238.456 128.477 238.211 129.109 238.133 129.922H242.664C242.659 129.411 242.578 128.964 242.422 128.578C242.271 128.188 242.039 127.885 241.727 127.672C241.414 127.453 241.013 127.344 240.523 127.344ZM250.117 126.281C250.289 126.281 250.469 126.292 250.656 126.312C250.844 126.328 251.01 126.352 251.156 126.383L250.992 127.586C250.852 127.549 250.695 127.521 250.523 127.5C250.352 127.479 250.19 127.469 250.039 127.469C249.695 127.469 249.37 127.539 249.062 127.68C248.76 127.815 248.495 128.013 248.266 128.273C248.036 128.529 247.857 128.839 247.727 129.203C247.596 129.562 247.531 129.964 247.531 130.406V135H246.227V126.438H247.305L247.445 128.016H247.5C247.677 127.698 247.891 127.409 248.141 127.148C248.391 126.883 248.68 126.672 249.008 126.516C249.341 126.359 249.711 126.281 250.117 126.281ZM256.586 127.453H254.453V135H253.156V127.453H251.641V126.828L253.156 126.398V125.828C253.156 125.109 253.263 124.526 253.477 124.078C253.69 123.625 254 123.292 254.406 123.078C254.812 122.865 255.307 122.758 255.891 122.758C256.219 122.758 256.518 122.786 256.789 122.844C257.065 122.901 257.307 122.966 257.516 123.039L257.18 124.062C257.003 124.005 256.802 123.953 256.578 123.906C256.359 123.854 256.135 123.828 255.906 123.828C255.411 123.828 255.044 123.99 254.805 124.312C254.57 124.63 254.453 125.13 254.453 125.812V126.438H256.586V127.453ZM265.547 130.703C265.547 131.406 265.456 132.034 265.273 132.586C265.091 133.138 264.828 133.604 264.484 133.984C264.141 134.365 263.724 134.656 263.234 134.859C262.75 135.057 262.201 135.156 261.586 135.156C261.013 135.156 260.487 135.057 260.008 134.859C259.534 134.656 259.122 134.365 258.773 133.984C258.43 133.604 258.161 133.138 257.969 132.586C257.781 132.034 257.688 131.406 257.688 130.703C257.688 129.766 257.846 128.969 258.164 128.312C258.482 127.651 258.935 127.148 259.523 126.805C260.117 126.456 260.823 126.281 261.641 126.281C262.422 126.281 263.104 126.456 263.688 126.805C264.276 127.154 264.732 127.659 265.055 128.32C265.383 128.977 265.547 129.771 265.547 130.703ZM259.031 130.703C259.031 131.391 259.122 131.987 259.305 132.492C259.487 132.997 259.768 133.388 260.148 133.664C260.529 133.94 261.018 134.078 261.617 134.078C262.211 134.078 262.698 133.94 263.078 133.664C263.464 133.388 263.747 132.997 263.93 132.492C264.112 131.987 264.203 131.391 264.203 130.703C264.203 130.021 264.112 129.432 263.93 128.938C263.747 128.438 263.466 128.052 263.086 127.781C262.706 127.51 262.214 127.375 261.609 127.375C260.719 127.375 260.065 127.669 259.648 128.258C259.237 128.846 259.031 129.661 259.031 130.703ZM271.68 126.281C271.852 126.281 272.031 126.292 272.219 126.312C272.406 126.328 272.573 126.352 272.719 126.383L272.555 127.586C272.414 127.549 272.258 127.521 272.086 127.5C271.914 127.479 271.753 127.469 271.602 127.469C271.258 127.469 270.932 127.539 270.625 127.68C270.323 127.815 270.057 128.013 269.828 128.273C269.599 128.529 269.419 128.839 269.289 129.203C269.159 129.562 269.094 129.964 269.094 130.406V135H267.789V126.438H268.867L269.008 128.016H269.062C269.24 127.698 269.453 127.409 269.703 127.148C269.953 126.883 270.242 126.672 270.57 126.516C270.904 126.359 271.273 126.281 271.68 126.281ZM283.633 126.281C284.576 126.281 285.286 126.529 285.766 127.023C286.245 127.513 286.484 128.302 286.484 129.391V135H285.203V129.453C285.203 128.76 285.052 128.242 284.75 127.898C284.453 127.549 284.01 127.375 283.422 127.375C282.594 127.375 281.992 127.615 281.617 128.094C281.242 128.573 281.055 129.279 281.055 130.211V135H279.766V129.453C279.766 128.99 279.698 128.604 279.562 128.297C279.432 127.99 279.234 127.76 278.969 127.609C278.708 127.453 278.378 127.375 277.977 127.375C277.409 127.375 276.953 127.492 276.609 127.727C276.266 127.961 276.016 128.31 275.859 128.773C275.708 129.232 275.633 129.797 275.633 130.469V135H274.336V126.438H275.383L275.578 127.648H275.648C275.82 127.352 276.036 127.102 276.297 126.898C276.557 126.695 276.849 126.542 277.172 126.438C277.495 126.333 277.839 126.281 278.203 126.281C278.854 126.281 279.398 126.404 279.836 126.648C280.279 126.888 280.599 127.255 280.797 127.75H280.867C281.148 127.255 281.534 126.888 282.023 126.648C282.513 126.404 283.049 126.281 283.633 126.281ZM292.352 126.297C293.372 126.297 294.13 126.526 294.625 126.984C295.12 127.443 295.367 128.174 295.367 129.18V135H294.422L294.172 133.734H294.109C293.87 134.047 293.62 134.31 293.359 134.523C293.099 134.732 292.797 134.891 292.453 135C292.115 135.104 291.698 135.156 291.203 135.156C290.682 135.156 290.219 135.065 289.812 134.883C289.411 134.701 289.094 134.424 288.859 134.055C288.63 133.685 288.516 133.216 288.516 132.648C288.516 131.794 288.854 131.138 289.531 130.68C290.208 130.221 291.24 129.971 292.625 129.93L294.102 129.867V129.344C294.102 128.604 293.943 128.086 293.625 127.789C293.307 127.492 292.859 127.344 292.281 127.344C291.833 127.344 291.406 127.409 291 127.539C290.594 127.669 290.208 127.823 289.844 128L289.445 127.016C289.831 126.818 290.273 126.648 290.773 126.508C291.273 126.367 291.799 126.297 292.352 126.297ZM294.086 130.781L292.781 130.836C291.714 130.878 290.961 131.052 290.523 131.359C290.086 131.667 289.867 132.102 289.867 132.664C289.867 133.154 290.016 133.516 290.312 133.75C290.609 133.984 291.003 134.102 291.492 134.102C292.253 134.102 292.875 133.891 293.359 133.469C293.844 133.047 294.086 132.414 294.086 131.57V130.781ZM302.094 126.281C303.109 126.281 303.878 126.531 304.398 127.031C304.919 127.526 305.18 128.323 305.18 129.422V135H303.898V129.508C303.898 128.794 303.734 128.26 303.406 127.906C303.083 127.552 302.586 127.375 301.914 127.375C300.966 127.375 300.299 127.643 299.914 128.18C299.529 128.716 299.336 129.495 299.336 130.516V135H298.039V126.438H299.086L299.281 127.672H299.352C299.534 127.37 299.766 127.117 300.047 126.914C300.328 126.706 300.643 126.549 300.992 126.445C301.341 126.336 301.708 126.281 302.094 126.281ZM311.281 135.156C310.51 135.156 309.831 134.997 309.242 134.68C308.654 134.362 308.195 133.878 307.867 133.227C307.539 132.576 307.375 131.755 307.375 130.766C307.375 129.729 307.547 128.883 307.891 128.227C308.24 127.565 308.719 127.076 309.328 126.758C309.938 126.44 310.63 126.281 311.406 126.281C311.833 126.281 312.245 126.326 312.641 126.414C313.042 126.497 313.37 126.604 313.625 126.734L313.234 127.82C312.974 127.716 312.672 127.622 312.328 127.539C311.99 127.456 311.672 127.414 311.375 127.414C310.781 127.414 310.286 127.542 309.891 127.797C309.5 128.052 309.206 128.427 309.008 128.922C308.815 129.417 308.719 130.026 308.719 130.75C308.719 131.443 308.812 132.034 309 132.523C309.193 133.013 309.477 133.388 309.852 133.648C310.232 133.904 310.706 134.031 311.273 134.031C311.727 134.031 312.135 133.984 312.5 133.891C312.865 133.792 313.195 133.677 313.492 133.547V134.703C313.206 134.849 312.885 134.961 312.531 135.039C312.182 135.117 311.766 135.156 311.281 135.156ZM318.82 126.281C319.549 126.281 320.174 126.443 320.695 126.766C321.216 127.089 321.615 127.542 321.891 128.125C322.167 128.703 322.305 129.38 322.305 130.156V130.961H316.391C316.406 131.966 316.656 132.732 317.141 133.258C317.625 133.784 318.307 134.047 319.188 134.047C319.729 134.047 320.208 133.997 320.625 133.898C321.042 133.799 321.474 133.654 321.922 133.461V134.602C321.49 134.794 321.06 134.935 320.633 135.023C320.211 135.112 319.711 135.156 319.133 135.156C318.31 135.156 317.591 134.99 316.977 134.656C316.367 134.318 315.893 133.823 315.555 133.172C315.216 132.521 315.047 131.724 315.047 130.781C315.047 129.859 315.201 129.062 315.508 128.391C315.82 127.714 316.258 127.193 316.82 126.828C317.388 126.464 318.055 126.281 318.82 126.281ZM318.805 127.344C318.112 127.344 317.56 127.57 317.148 128.023C316.737 128.477 316.492 129.109 316.414 129.922H320.945C320.94 129.411 320.859 128.964 320.703 128.578C320.552 128.188 320.32 127.885 320.008 127.672C319.695 127.453 319.294 127.344 318.805 127.344ZM28.1328 156.094C28.3464 156.094 28.5651 156.076 28.7891 156.039C29.013 156.003 29.1953 155.958 29.3359 155.906V156.914C29.1849 156.982 28.974 157.039 28.7031 157.086C28.4375 157.133 28.1771 157.156 27.9219 157.156C27.4688 157.156 27.0573 157.078 26.6875 156.922C26.3177 156.76 26.0208 156.49 25.7969 156.109C25.5781 155.729 25.4688 155.203 25.4688 154.531V149.453H24.25V148.82L25.4766 148.312L25.9922 146.453H26.7734V148.438H29.2812V149.453H26.7734V154.492C26.7734 155.029 26.8958 155.43 27.1406 155.695C27.3906 155.961 27.7214 156.094 28.1328 156.094ZM34.9609 148.281C35.1328 148.281 35.3125 148.292 35.5 148.312C35.6875 148.328 35.8542 148.352 36 148.383L35.8359 149.586C35.6953 149.549 35.5391 149.521 35.3672 149.5C35.1953 149.479 35.0339 149.469 34.8828 149.469C34.5391 149.469 34.2135 149.539 33.9062 149.68C33.6042 149.815 33.3385 150.013 33.1094 150.273C32.8802 150.529 32.7005 150.839 32.5703 151.203C32.4401 151.562 32.375 151.964 32.375 152.406V157H31.0703V148.438H32.1484L32.2891 150.016H32.3438C32.5208 149.698 32.7344 149.409 32.9844 149.148C33.2344 148.883 33.5234 148.672 33.8516 148.516C34.1849 148.359 34.5547 148.281 34.9609 148.281ZM40.8203 148.297C41.8411 148.297 42.599 148.526 43.0938 148.984C43.5885 149.443 43.8359 150.174 43.8359 151.18V157H42.8906L42.6406 155.734H42.5781C42.3385 156.047 42.0885 156.31 41.8281 156.523C41.5677 156.732 41.2656 156.891 40.9219 157C40.5833 157.104 40.1667 157.156 39.6719 157.156C39.151 157.156 38.6875 157.065 38.2812 156.883C37.8802 156.701 37.5625 156.424 37.3281 156.055C37.099 155.685 36.9844 155.216 36.9844 154.648C36.9844 153.794 37.3229 153.138 38 152.68C38.6771 152.221 39.7083 151.971 41.0938 151.93L42.5703 151.867V151.344C42.5703 150.604 42.4115 150.086 42.0938 149.789C41.776 149.492 41.3281 149.344 40.75 149.344C40.3021 149.344 39.875 149.409 39.4688 149.539C39.0625 149.669 38.6771 149.823 38.3125 150L37.9141 149.016C38.2995 148.818 38.7422 148.648 39.2422 148.508C39.7422 148.367 40.2682 148.297 40.8203 148.297ZM42.5547 152.781L41.25 152.836C40.1823 152.878 39.4297 153.052 38.9922 153.359C38.5547 153.667 38.3359 154.102 38.3359 154.664C38.3359 155.154 38.4844 155.516 38.7812 155.75C39.0781 155.984 39.4714 156.102 39.9609 156.102C40.7214 156.102 41.3438 155.891 41.8281 155.469C42.3125 155.047 42.5547 154.414 42.5547 153.57V152.781ZM49.9375 157.156C49.1667 157.156 48.487 156.997 47.8984 156.68C47.3099 156.362 46.8516 155.878 46.5234 155.227C46.1953 154.576 46.0312 153.755 46.0312 152.766C46.0312 151.729 46.2031 150.883 46.5469 150.227C46.8958 149.565 47.375 149.076 47.9844 148.758C48.5938 148.44 49.2865 148.281 50.0625 148.281C50.4896 148.281 50.901 148.326 51.2969 148.414C51.6979 148.497 52.026 148.604 52.2812 148.734L51.8906 149.82C51.6302 149.716 51.3281 149.622 50.9844 149.539C50.6458 149.456 50.3281 149.414 50.0312 149.414C49.4375 149.414 48.9427 149.542 48.5469 149.797C48.1562 150.052 47.862 150.427 47.6641 150.922C47.4714 151.417 47.375 152.026 47.375 152.75C47.375 153.443 47.4688 154.034 47.6562 154.523C47.849 155.013 48.1328 155.388 48.5078 155.648C48.888 155.904 49.362 156.031 49.9297 156.031C50.3828 156.031 50.7917 155.984 51.1562 155.891C51.5208 155.792 51.8516 155.677 52.1484 155.547V156.703C51.862 156.849 51.5417 156.961 51.1875 157.039C50.8385 157.117 50.4219 157.156 49.9375 157.156ZM55.4688 144.844V151.156C55.4688 151.365 55.4609 151.62 55.4453 151.922C55.4297 152.219 55.4167 152.482 55.4062 152.711H55.4609C55.5703 152.576 55.7292 152.375 55.9375 152.109C56.151 151.844 56.3307 151.63 56.4766 151.469L59.3203 148.438H60.8438L57.3984 152.094L61.0938 157H59.5312L56.5078 152.945L55.4688 153.898V157H54.1797V144.844H55.4688ZM63.8828 148.438V157H62.5859V148.438H63.8828ZM63.25 145.234C63.4635 145.234 63.6458 145.305 63.7969 145.445C63.9531 145.581 64.0312 145.794 64.0312 146.086C64.0312 146.372 63.9531 146.586 63.7969 146.727C63.6458 146.867 63.4635 146.938 63.25 146.938C63.026 146.938 62.8385 146.867 62.6875 146.727C62.5417 146.586 62.4688 146.372 62.4688 146.086C62.4688 145.794 62.5417 145.581 62.6875 145.445C62.8385 145.305 63.026 145.234 63.25 145.234ZM70.6875 148.281C71.7031 148.281 72.4714 148.531 72.9922 149.031C73.513 149.526 73.7734 150.323 73.7734 151.422V157H72.4922V151.508C72.4922 150.794 72.3281 150.26 72 149.906C71.6771 149.552 71.1797 149.375 70.5078 149.375C69.5599 149.375 68.8932 149.643 68.5078 150.18C68.1224 150.716 67.9297 151.495 67.9297 152.516V157H66.6328V148.438H67.6797L67.875 149.672H67.9453C68.1276 149.37 68.3594 149.117 68.6406 148.914C68.9219 148.706 69.237 148.549 69.5859 148.445C69.9349 148.336 70.3021 148.281 70.6875 148.281ZM78.8359 160.844C77.7109 160.844 76.8438 160.633 76.2344 160.211C75.625 159.794 75.3203 159.208 75.3203 158.453C75.3203 157.917 75.4896 157.458 75.8281 157.078C76.1719 156.698 76.6458 156.445 77.25 156.32C77.026 156.216 76.8333 156.06 76.6719 155.852C76.5156 155.643 76.4375 155.404 76.4375 155.133C76.4375 154.82 76.5234 154.547 76.6953 154.312C76.8724 154.073 77.1406 153.844 77.5 153.625C77.0521 153.443 76.6875 153.135 76.4062 152.703C76.1302 152.266 75.9922 151.758 75.9922 151.18C75.9922 150.565 76.1198 150.042 76.375 149.609C76.6302 149.172 77 148.839 77.4844 148.609C77.9688 148.38 78.5547 148.266 79.2422 148.266C79.3932 148.266 79.5443 148.273 79.6953 148.289C79.8516 148.299 80 148.318 80.1406 148.344C80.2812 148.365 80.4036 148.391 80.5078 148.422H83.4453V149.258L81.8672 149.453C82.0234 149.656 82.1536 149.901 82.2578 150.188C82.362 150.474 82.4141 150.792 82.4141 151.141C82.4141 151.995 82.125 152.674 81.5469 153.18C80.9688 153.68 80.1745 153.93 79.1641 153.93C78.9245 153.93 78.6797 153.909 78.4297 153.867C78.1745 154.008 77.9792 154.164 77.8438 154.336C77.7135 154.508 77.6484 154.706 77.6484 154.93C77.6484 155.096 77.6979 155.229 77.7969 155.328C77.901 155.427 78.0495 155.5 78.2422 155.547C78.4349 155.589 78.6667 155.609 78.9375 155.609H80.4453C81.3776 155.609 82.0911 155.805 82.5859 156.195C83.0859 156.586 83.3359 157.156 83.3359 157.906C83.3359 158.854 82.9505 159.581 82.1797 160.086C81.4089 160.591 80.2943 160.844 78.8359 160.844ZM78.875 159.828C79.5833 159.828 80.1693 159.755 80.6328 159.609C81.1016 159.469 81.4505 159.263 81.6797 158.992C81.9141 158.727 82.0312 158.409 82.0312 158.039C82.0312 157.695 81.9531 157.435 81.7969 157.258C81.6406 157.086 81.4115 156.971 81.1094 156.914C80.8073 156.852 80.4375 156.82 80 156.82H78.5156C78.1302 156.82 77.7943 156.88 77.5078 157C77.2214 157.12 77 157.297 76.8438 157.531C76.6927 157.766 76.6172 158.057 76.6172 158.406C76.6172 158.87 76.8125 159.221 77.2031 159.461C77.5938 159.706 78.151 159.828 78.875 159.828ZM79.2109 152.984C79.8307 152.984 80.2969 152.828 80.6094 152.516C80.9219 152.203 81.0781 151.747 81.0781 151.148C81.0781 150.508 80.9193 150.029 80.6016 149.711C80.2839 149.388 79.8151 149.227 79.1953 149.227C78.6016 149.227 78.1432 149.393 77.8203 149.727C77.5026 150.055 77.3438 150.536 77.3438 151.172C77.3438 151.755 77.5052 152.203 77.8281 152.516C78.151 152.828 78.612 152.984 79.2109 152.984ZM92.4922 148.297C93.513 148.297 94.2708 148.526 94.7656 148.984C95.2604 149.443 95.5078 150.174 95.5078 151.18V157H94.5625L94.3125 155.734H94.25C94.0104 156.047 93.7604 156.31 93.5 156.523C93.2396 156.732 92.9375 156.891 92.5938 157C92.2552 157.104 91.8385 157.156 91.3438 157.156C90.8229 157.156 90.3594 157.065 89.9531 156.883C89.5521 156.701 89.2344 156.424 89 156.055C88.7708 155.685 88.6562 155.216 88.6562 154.648C88.6562 153.794 88.9948 153.138 89.6719 152.68C90.349 152.221 91.3802 151.971 92.7656 151.93L94.2422 151.867V151.344C94.2422 150.604 94.0833 150.086 93.7656 149.789C93.4479 149.492 93 149.344 92.4219 149.344C91.974 149.344 91.5469 149.409 91.1406 149.539C90.7344 149.669 90.349 149.823 89.9844 150L89.5859 149.016C89.9714 148.818 90.4141 148.648 90.9141 148.508C91.4141 148.367 91.9401 148.297 92.4922 148.297ZM94.2266 152.781L92.9219 152.836C91.8542 152.878 91.1016 153.052 90.6641 153.359C90.2266 153.667 90.0078 154.102 90.0078 154.664C90.0078 155.154 90.1562 155.516 90.4531 155.75C90.75 155.984 91.1432 156.102 91.6328 156.102C92.3932 156.102 93.0156 155.891 93.5 155.469C93.9844 155.047 94.2266 154.414 94.2266 153.57V152.781ZM102.234 148.281C103.25 148.281 104.018 148.531 104.539 149.031C105.06 149.526 105.32 150.323 105.32 151.422V157H104.039V151.508C104.039 150.794 103.875 150.26 103.547 149.906C103.224 149.552 102.727 149.375 102.055 149.375C101.107 149.375 100.44 149.643 100.055 150.18C99.6693 150.716 99.4766 151.495 99.4766 152.516V157H98.1797V148.438H99.2266L99.4219 149.672H99.4922C99.6745 149.37 99.9062 149.117 100.188 148.914C100.469 148.706 100.784 148.549 101.133 148.445C101.482 148.336 101.849 148.281 102.234 148.281ZM111.039 157.156C109.956 157.156 109.096 156.786 108.461 156.047C107.831 155.307 107.516 154.208 107.516 152.75C107.516 151.276 107.839 150.164 108.484 149.414C109.13 148.659 109.99 148.281 111.062 148.281C111.516 148.281 111.911 148.341 112.25 148.461C112.589 148.581 112.88 148.742 113.125 148.945C113.37 149.143 113.576 149.37 113.742 149.625H113.836C113.815 149.464 113.794 149.242 113.773 148.961C113.753 148.68 113.742 148.451 113.742 148.273V144.844H115.039V157H113.992L113.797 155.781H113.742C113.581 156.036 113.375 156.268 113.125 156.477C112.88 156.685 112.586 156.852 112.242 156.977C111.904 157.096 111.503 157.156 111.039 157.156ZM111.242 156.078C112.159 156.078 112.807 155.818 113.188 155.297C113.568 154.776 113.758 154.003 113.758 152.977V152.742C113.758 151.654 113.576 150.818 113.211 150.234C112.852 149.651 112.195 149.359 111.242 149.359C110.445 149.359 109.849 149.667 109.453 150.281C109.057 150.891 108.859 151.724 108.859 152.781C108.859 153.833 109.055 154.646 109.445 155.219C109.841 155.792 110.44 156.078 111.242 156.078ZM123.242 144.844V147.883C123.242 148.232 123.232 148.57 123.211 148.898C123.195 149.227 123.182 149.482 123.172 149.664H123.242C123.477 149.279 123.815 148.953 124.258 148.688C124.701 148.422 125.266 148.289 125.953 148.289C127.026 148.289 127.88 148.661 128.516 149.406C129.156 150.146 129.477 151.247 129.477 152.711C129.477 153.674 129.331 154.487 129.039 155.148C128.747 155.81 128.336 156.31 127.805 156.648C127.273 156.987 126.646 157.156 125.922 157.156C125.245 157.156 124.688 157.031 124.25 156.781C123.818 156.526 123.484 156.216 123.25 155.852H123.148L122.883 157H121.945V144.844H123.242ZM125.742 149.375C125.122 149.375 124.63 149.497 124.266 149.742C123.901 149.982 123.638 150.346 123.477 150.836C123.32 151.32 123.242 151.935 123.242 152.68V152.75C123.242 153.828 123.422 154.654 123.781 155.227C124.141 155.794 124.794 156.078 125.742 156.078C126.539 156.078 127.135 155.786 127.531 155.203C127.932 154.62 128.133 153.786 128.133 152.703C128.133 151.599 127.935 150.768 127.539 150.211C127.148 149.654 126.549 149.375 125.742 149.375ZM138.812 148.438V157H137.75L137.562 155.797H137.492C137.315 156.094 137.086 156.344 136.805 156.547C136.523 156.75 136.206 156.901 135.852 157C135.503 157.104 135.13 157.156 134.734 157.156C134.057 157.156 133.49 157.047 133.031 156.828C132.573 156.609 132.227 156.271 131.992 155.812C131.763 155.354 131.648 154.766 131.648 154.047V148.438H132.961V153.953C132.961 154.667 133.122 155.201 133.445 155.555C133.768 155.904 134.26 156.078 134.922 156.078C135.557 156.078 136.062 155.958 136.438 155.719C136.818 155.479 137.091 155.128 137.258 154.664C137.424 154.195 137.508 153.622 137.508 152.945V148.438H138.812ZM144.602 157.156C143.518 157.156 142.659 156.786 142.023 156.047C141.393 155.307 141.078 154.208 141.078 152.75C141.078 151.276 141.401 150.164 142.047 149.414C142.693 148.659 143.552 148.281 144.625 148.281C145.078 148.281 145.474 148.341 145.812 148.461C146.151 148.581 146.443 148.742 146.688 148.945C146.932 149.143 147.138 149.37 147.305 149.625H147.398C147.378 149.464 147.357 149.242 147.336 148.961C147.315 148.68 147.305 148.451 147.305 148.273V144.844H148.602V157H147.555L147.359 155.781H147.305C147.143 156.036 146.938 156.268 146.688 156.477C146.443 156.685 146.148 156.852 145.805 156.977C145.466 157.096 145.065 157.156 144.602 157.156ZM144.805 156.078C145.721 156.078 146.37 155.818 146.75 155.297C147.13 154.776 147.32 154.003 147.32 152.977V152.742C147.32 151.654 147.138 150.818 146.773 150.234C146.414 149.651 145.758 149.359 144.805 149.359C144.008 149.359 143.411 149.667 143.016 150.281C142.62 150.891 142.422 151.724 142.422 152.781C142.422 153.833 142.617 154.646 143.008 155.219C143.404 155.792 144.003 156.078 144.805 156.078ZM153.742 160.844C152.617 160.844 151.75 160.633 151.141 160.211C150.531 159.794 150.227 159.208 150.227 158.453C150.227 157.917 150.396 157.458 150.734 157.078C151.078 156.698 151.552 156.445 152.156 156.32C151.932 156.216 151.74 156.06 151.578 155.852C151.422 155.643 151.344 155.404 151.344 155.133C151.344 154.82 151.43 154.547 151.602 154.312C151.779 154.073 152.047 153.844 152.406 153.625C151.958 153.443 151.594 153.135 151.312 152.703C151.036 152.266 150.898 151.758 150.898 151.18C150.898 150.565 151.026 150.042 151.281 149.609C151.536 149.172 151.906 148.839 152.391 148.609C152.875 148.38 153.461 148.266 154.148 148.266C154.299 148.266 154.451 148.273 154.602 148.289C154.758 148.299 154.906 148.318 155.047 148.344C155.188 148.365 155.31 148.391 155.414 148.422H158.352V149.258L156.773 149.453C156.93 149.656 157.06 149.901 157.164 150.188C157.268 150.474 157.32 150.792 157.32 151.141C157.32 151.995 157.031 152.674 156.453 153.18C155.875 153.68 155.081 153.93 154.07 153.93C153.831 153.93 153.586 153.909 153.336 153.867C153.081 154.008 152.885 154.164 152.75 154.336C152.62 154.508 152.555 154.706 152.555 154.93C152.555 155.096 152.604 155.229 152.703 155.328C152.807 155.427 152.956 155.5 153.148 155.547C153.341 155.589 153.573 155.609 153.844 155.609H155.352C156.284 155.609 156.997 155.805 157.492 156.195C157.992 156.586 158.242 157.156 158.242 157.906C158.242 158.854 157.857 159.581 157.086 160.086C156.315 160.591 155.201 160.844 153.742 160.844ZM153.781 159.828C154.49 159.828 155.076 159.755 155.539 159.609C156.008 159.469 156.357 159.263 156.586 158.992C156.82 158.727 156.938 158.409 156.938 158.039C156.938 157.695 156.859 157.435 156.703 157.258C156.547 157.086 156.318 156.971 156.016 156.914C155.714 156.852 155.344 156.82 154.906 156.82H153.422C153.036 156.82 152.701 156.88 152.414 157C152.128 157.12 151.906 157.297 151.75 157.531C151.599 157.766 151.523 158.057 151.523 158.406C151.523 158.87 151.719 159.221 152.109 159.461C152.5 159.706 153.057 159.828 153.781 159.828ZM154.117 152.984C154.737 152.984 155.203 152.828 155.516 152.516C155.828 152.203 155.984 151.747 155.984 151.148C155.984 150.508 155.826 150.029 155.508 149.711C155.19 149.388 154.721 149.227 154.102 149.227C153.508 149.227 153.049 149.393 152.727 149.727C152.409 150.055 152.25 150.536 152.25 151.172C152.25 151.755 152.411 152.203 152.734 152.516C153.057 152.828 153.518 152.984 154.117 152.984ZM163.336 148.281C164.065 148.281 164.69 148.443 165.211 148.766C165.732 149.089 166.13 149.542 166.406 150.125C166.682 150.703 166.82 151.38 166.82 152.156V152.961H160.906C160.922 153.966 161.172 154.732 161.656 155.258C162.141 155.784 162.823 156.047 163.703 156.047C164.245 156.047 164.724 155.997 165.141 155.898C165.557 155.799 165.99 155.654 166.438 155.461V156.602C166.005 156.794 165.576 156.935 165.148 157.023C164.727 157.112 164.227 157.156 163.648 157.156C162.826 157.156 162.107 156.99 161.492 156.656C160.883 156.318 160.409 155.823 160.07 155.172C159.732 154.521 159.562 153.724 159.562 152.781C159.562 151.859 159.716 151.062 160.023 150.391C160.336 149.714 160.773 149.193 161.336 148.828C161.904 148.464 162.57 148.281 163.336 148.281ZM163.32 149.344C162.628 149.344 162.076 149.57 161.664 150.023C161.253 150.477 161.008 151.109 160.93 151.922H165.461C165.456 151.411 165.375 150.964 165.219 150.578C165.068 150.188 164.836 149.885 164.523 149.672C164.211 149.453 163.81 149.344 163.32 149.344ZM171.789 156.094C172.003 156.094 172.221 156.076 172.445 156.039C172.669 156.003 172.852 155.958 172.992 155.906V156.914C172.841 156.982 172.63 157.039 172.359 157.086C172.094 157.133 171.833 157.156 171.578 157.156C171.125 157.156 170.714 157.078 170.344 156.922C169.974 156.76 169.677 156.49 169.453 156.109C169.234 155.729 169.125 155.203 169.125 154.531V149.453H167.906V148.82L169.133 148.312L169.648 146.453H170.43V148.438H172.938V149.453H170.43V154.492C170.43 155.029 170.552 155.43 170.797 155.695C171.047 155.961 171.378 156.094 171.789 156.094ZM186.266 152.703C186.266 153.406 186.174 154.034 185.992 154.586C185.81 155.138 185.547 155.604 185.203 155.984C184.859 156.365 184.443 156.656 183.953 156.859C183.469 157.057 182.919 157.156 182.305 157.156C181.732 157.156 181.206 157.057 180.727 156.859C180.253 156.656 179.841 156.365 179.492 155.984C179.148 155.604 178.88 155.138 178.688 154.586C178.5 154.034 178.406 153.406 178.406 152.703C178.406 151.766 178.565 150.969 178.883 150.312C179.201 149.651 179.654 149.148 180.242 148.805C180.836 148.456 181.542 148.281 182.359 148.281C183.141 148.281 183.823 148.456 184.406 148.805C184.995 149.154 185.451 149.659 185.773 150.32C186.102 150.977 186.266 151.771 186.266 152.703ZM179.75 152.703C179.75 153.391 179.841 153.987 180.023 154.492C180.206 154.997 180.487 155.388 180.867 155.664C181.247 155.94 181.737 156.078 182.336 156.078C182.93 156.078 183.417 155.94 183.797 155.664C184.182 155.388 184.466 154.997 184.648 154.492C184.831 153.987 184.922 153.391 184.922 152.703C184.922 152.021 184.831 151.432 184.648 150.938C184.466 150.438 184.185 150.052 183.805 149.781C183.424 149.51 182.932 149.375 182.328 149.375C181.438 149.375 180.784 149.669 180.367 150.258C179.956 150.846 179.75 151.661 179.75 152.703ZM190.391 157L187.141 148.438H188.531L190.414 153.617C190.544 153.971 190.677 154.362 190.812 154.789C190.948 155.216 191.042 155.56 191.094 155.82H191.148C191.211 155.56 191.315 155.216 191.461 154.789C191.607 154.357 191.74 153.966 191.859 153.617L193.742 148.438H195.133L191.875 157H190.391ZM199.805 148.281C200.534 148.281 201.159 148.443 201.68 148.766C202.201 149.089 202.599 149.542 202.875 150.125C203.151 150.703 203.289 151.38 203.289 152.156V152.961H197.375C197.391 153.966 197.641 154.732 198.125 155.258C198.609 155.784 199.292 156.047 200.172 156.047C200.714 156.047 201.193 155.997 201.609 155.898C202.026 155.799 202.458 155.654 202.906 155.461V156.602C202.474 156.794 202.044 156.935 201.617 157.023C201.195 157.112 200.695 157.156 200.117 157.156C199.294 157.156 198.576 156.99 197.961 156.656C197.352 156.318 196.878 155.823 196.539 155.172C196.201 154.521 196.031 153.724 196.031 152.781C196.031 151.859 196.185 151.062 196.492 150.391C196.805 149.714 197.242 149.193 197.805 148.828C198.372 148.464 199.039 148.281 199.805 148.281ZM199.789 149.344C199.096 149.344 198.544 149.57 198.133 150.023C197.721 150.477 197.477 151.109 197.398 151.922H201.93C201.924 151.411 201.844 150.964 201.688 150.578C201.536 150.188 201.305 149.885 200.992 149.672C200.68 149.453 200.279 149.344 199.789 149.344ZM209.383 148.281C209.555 148.281 209.734 148.292 209.922 148.312C210.109 148.328 210.276 148.352 210.422 148.383L210.258 149.586C210.117 149.549 209.961 149.521 209.789 149.5C209.617 149.479 209.456 149.469 209.305 149.469C208.961 149.469 208.635 149.539 208.328 149.68C208.026 149.815 207.76 150.013 207.531 150.273C207.302 150.529 207.122 150.839 206.992 151.203C206.862 151.562 206.797 151.964 206.797 152.406V157H205.492V148.438H206.57L206.711 150.016H206.766C206.943 149.698 207.156 149.409 207.406 149.148C207.656 148.883 207.945 148.672 208.273 148.516C208.607 148.359 208.977 148.281 209.383 148.281ZM217.578 154.656C217.578 155.203 217.44 155.664 217.164 156.039C216.893 156.409 216.503 156.688 215.992 156.875C215.487 157.062 214.883 157.156 214.18 157.156C213.581 157.156 213.062 157.109 212.625 157.016C212.188 156.922 211.805 156.789 211.477 156.617V155.422C211.826 155.594 212.242 155.75 212.727 155.891C213.211 156.031 213.706 156.102 214.211 156.102C214.951 156.102 215.487 155.982 215.82 155.742C216.154 155.503 216.32 155.177 216.32 154.766C216.32 154.531 216.253 154.326 216.117 154.148C215.987 153.966 215.766 153.792 215.453 153.625C215.141 153.453 214.708 153.266 214.156 153.062C213.609 152.854 213.135 152.648 212.734 152.445C212.339 152.237 212.031 151.984 211.812 151.688C211.599 151.391 211.492 151.005 211.492 150.531C211.492 149.807 211.784 149.253 212.367 148.867C212.956 148.477 213.727 148.281 214.68 148.281C215.195 148.281 215.677 148.333 216.125 148.438C216.578 148.536 217 148.672 217.391 148.844L216.953 149.883C216.599 149.732 216.221 149.604 215.82 149.5C215.419 149.396 215.01 149.344 214.594 149.344C213.995 149.344 213.534 149.443 213.211 149.641C212.893 149.839 212.734 150.109 212.734 150.453C212.734 150.719 212.807 150.938 212.953 151.109C213.104 151.281 213.344 151.443 213.672 151.594C214 151.745 214.432 151.922 214.969 152.125C215.505 152.323 215.969 152.529 216.359 152.742C216.75 152.951 217.049 153.206 217.258 153.508C217.471 153.805 217.578 154.188 217.578 154.656ZM220.961 148.438V157H219.664V148.438H220.961ZM220.328 145.234C220.542 145.234 220.724 145.305 220.875 145.445C221.031 145.581 221.109 145.794 221.109 146.086C221.109 146.372 221.031 146.586 220.875 146.727C220.724 146.867 220.542 146.938 220.328 146.938C220.104 146.938 219.917 146.867 219.766 146.727C219.62 146.586 219.547 146.372 219.547 146.086C219.547 145.794 219.62 145.581 219.766 145.445C219.917 145.305 220.104 145.234 220.328 145.234ZM226.102 160.844C224.977 160.844 224.109 160.633 223.5 160.211C222.891 159.794 222.586 159.208 222.586 158.453C222.586 157.917 222.755 157.458 223.094 157.078C223.438 156.698 223.911 156.445 224.516 156.32C224.292 156.216 224.099 156.06 223.938 155.852C223.781 155.643 223.703 155.404 223.703 155.133C223.703 154.82 223.789 154.547 223.961 154.312C224.138 154.073 224.406 153.844 224.766 153.625C224.318 153.443 223.953 153.135 223.672 152.703C223.396 152.266 223.258 151.758 223.258 151.18C223.258 150.565 223.385 150.042 223.641 149.609C223.896 149.172 224.266 148.839 224.75 148.609C225.234 148.38 225.82 148.266 226.508 148.266C226.659 148.266 226.81 148.273 226.961 148.289C227.117 148.299 227.266 148.318 227.406 148.344C227.547 148.365 227.669 148.391 227.773 148.422H230.711V149.258L229.133 149.453C229.289 149.656 229.419 149.901 229.523 150.188C229.628 150.474 229.68 150.792 229.68 151.141C229.68 151.995 229.391 152.674 228.812 153.18C228.234 153.68 227.44 153.93 226.43 153.93C226.19 153.93 225.945 153.909 225.695 153.867C225.44 154.008 225.245 154.164 225.109 154.336C224.979 154.508 224.914 154.706 224.914 154.93C224.914 155.096 224.964 155.229 225.062 155.328C225.167 155.427 225.315 155.5 225.508 155.547C225.701 155.589 225.932 155.609 226.203 155.609H227.711C228.643 155.609 229.357 155.805 229.852 156.195C230.352 156.586 230.602 157.156 230.602 157.906C230.602 158.854 230.216 159.581 229.445 160.086C228.674 160.591 227.56 160.844 226.102 160.844ZM226.141 159.828C226.849 159.828 227.435 159.755 227.898 159.609C228.367 159.469 228.716 159.263 228.945 158.992C229.18 158.727 229.297 158.409 229.297 158.039C229.297 157.695 229.219 157.435 229.062 157.258C228.906 157.086 228.677 156.971 228.375 156.914C228.073 156.852 227.703 156.82 227.266 156.82H225.781C225.396 156.82 225.06 156.88 224.773 157C224.487 157.12 224.266 157.297 224.109 157.531C223.958 157.766 223.883 158.057 223.883 158.406C223.883 158.87 224.078 159.221 224.469 159.461C224.859 159.706 225.417 159.828 226.141 159.828ZM226.477 152.984C227.096 152.984 227.562 152.828 227.875 152.516C228.188 152.203 228.344 151.747 228.344 151.148C228.344 150.508 228.185 150.029 227.867 149.711C227.549 149.388 227.081 149.227 226.461 149.227C225.867 149.227 225.409 149.393 225.086 149.727C224.768 150.055 224.609 150.536 224.609 151.172C224.609 151.755 224.771 152.203 225.094 152.516C225.417 152.828 225.878 152.984 226.477 152.984ZM233.695 144.844V148.477C233.695 148.685 233.69 148.896 233.68 149.109C233.669 149.318 233.651 149.51 233.625 149.688H233.711C233.888 149.385 234.112 149.133 234.383 148.93C234.659 148.721 234.971 148.565 235.32 148.461C235.669 148.352 236.039 148.297 236.43 148.297C237.117 148.297 237.69 148.406 238.148 148.625C238.612 148.844 238.958 149.182 239.188 149.641C239.422 150.099 239.539 150.693 239.539 151.422V157H238.258V151.508C238.258 150.794 238.094 150.26 237.766 149.906C237.443 149.552 236.945 149.375 236.273 149.375C235.638 149.375 235.13 149.497 234.75 149.742C234.375 149.982 234.104 150.336 233.938 150.805C233.776 151.273 233.695 151.846 233.695 152.523V157H232.398V144.844H233.695ZM244.977 156.094C245.19 156.094 245.409 156.076 245.633 156.039C245.857 156.003 246.039 155.958 246.18 155.906V156.914C246.029 156.982 245.818 157.039 245.547 157.086C245.281 157.133 245.021 157.156 244.766 157.156C244.312 157.156 243.901 157.078 243.531 156.922C243.161 156.76 242.865 156.49 242.641 156.109C242.422 155.729 242.312 155.203 242.312 154.531V149.453H241.094V148.82L242.32 148.312L242.836 146.453H243.617V148.438H246.125V149.453H243.617V154.492C243.617 155.029 243.74 155.43 243.984 155.695C244.234 155.961 244.565 156.094 244.977 156.094Z" fill="#4C4648"/>
</svg>
