<svg width="375" height="186" viewBox="0 0 375 186" fill="none" xmlns="http://www.w3.org/2000/svg">
<path d="M316.08 29.512L314.544 29.056L320.688 9.952L322.248 10.408L316.08 29.512ZM328.997 28.216C327.717 28.216 326.629 27.888 325.733 27.232C324.853 26.56 324.189 25.576 323.741 24.28C323.293 22.984 323.069 21.4 323.069 19.528C323.069 17.64 323.293 16.056 323.741 14.776C324.189 13.48 324.853 12.504 325.733 11.848C326.629 11.192 327.717 10.864 328.997 10.864C330.293 10.864 331.381 11.192 332.261 11.848C333.141 12.504 333.805 13.472 334.253 14.752C334.701 16.032 334.925 17.616 334.925 19.504C334.925 21.392 334.701 22.984 334.253 24.28C333.805 25.576 333.141 26.56 332.261 27.232C331.381 27.888 330.293 28.216 328.997 28.216ZM328.997 26.512C330.341 26.512 331.333 25.944 331.973 24.808C332.629 23.672 332.957 21.904 332.957 19.504C332.957 17.104 332.637 15.352 331.997 14.248C331.357 13.128 330.357 12.568 328.997 12.568C327.669 12.568 326.677 13.128 326.021 14.248C325.365 15.368 325.037 17.12 325.037 19.504C325.037 21.904 325.357 23.672 325.997 24.808C326.653 25.944 327.653 26.512 328.997 26.512ZM339.164 28V26.32H343.028V12.784H344.06L339.98 15.376L339.14 13.912L343.58 11.08H344.996V26.32H348.62V28H339.164Z" fill="#4C4648"/>
<path d="M275.555 0C282.182 0 287.555 5.37258 287.555 12V29C287.555 35.6274 292.927 41 299.555 41H363C369.627 41 375 46.3726 375 53V174C375 180.627 369.627 186 363 186H12C5.37259 186 0 180.627 0 174V12C0 5.37258 5.37258 0 12 0H275.555Z" fill="#E9E5E3"/>
<path d="M25.848 44V27.08H32.136C34.024 27.08 35.624 27.408 36.936 28.064C38.264 28.72 39.272 29.68 39.96 30.944C40.664 32.192 41.016 33.72 41.016 35.528C41.016 37.336 40.664 38.872 39.96 40.136C39.272 41.4 38.264 42.36 36.936 43.016C35.624 43.672 34.024 44 32.136 44H25.848ZM28.92 41.456H31.944C33.912 41.456 35.376 40.968 36.336 39.992C37.312 39 37.8 37.512 37.8 35.528C37.8 33.544 37.312 32.064 36.336 31.088C35.36 30.112 33.896 29.624 31.944 29.624H28.92V41.456ZM43.6493 29.744V26.816H47.0093V29.744H43.6493ZM43.8413 44V32.264H46.8413V44H43.8413ZM54.2544 44.24C53.5984 44.24 52.9584 44.184 52.3344 44.072C51.7264 43.96 51.1664 43.808 50.6544 43.616C50.1424 43.408 49.6944 43.152 49.3104 42.848L50.0784 40.88C50.4784 41.136 50.9104 41.36 51.3744 41.552C51.8384 41.744 52.3184 41.888 52.8144 41.984C53.3104 42.08 53.7984 42.128 54.2784 42.128C55.0464 42.128 55.6144 42 55.9824 41.744C56.3664 41.472 56.5584 41.12 56.5584 40.688C56.5584 40.32 56.4304 40.04 56.1744 39.848C55.9344 39.64 55.5664 39.488 55.0704 39.392L52.6704 38.936C51.6784 38.744 50.9184 38.384 50.3904 37.856C49.8784 37.312 49.6224 36.616 49.6224 35.768C49.6224 35 49.8304 34.336 50.2464 33.776C50.6784 33.216 51.2704 32.784 52.0224 32.48C52.7744 32.176 53.6384 32.024 54.6144 32.024C55.1744 32.024 55.7184 32.08 56.2464 32.192C56.7744 32.288 57.2704 32.44 57.7344 32.648C58.2144 32.84 58.6304 33.096 58.9824 33.416L58.1664 35.384C57.8624 35.128 57.5104 34.912 57.1104 34.736C56.7104 34.544 56.2944 34.4 55.8624 34.304C55.4464 34.192 55.0384 34.136 54.6384 34.136C53.8544 34.136 53.2704 34.272 52.8864 34.544C52.5184 34.816 52.3344 35.176 52.3344 35.624C52.3344 35.96 52.4464 36.24 52.6704 36.464C52.8944 36.688 53.2384 36.84 53.7024 36.92L56.1024 37.376C57.1424 37.568 57.9264 37.92 58.4544 38.432C58.9984 38.944 59.2704 39.632 59.2704 40.496C59.2704 41.28 59.0624 41.952 58.6464 42.512C58.2304 43.072 57.6464 43.504 56.8944 43.808C56.1424 44.096 55.2624 44.24 54.2544 44.24ZM67.1012 44.24C65.8692 44.24 64.7972 43.992 63.8852 43.496C62.9732 42.984 62.2692 42.264 61.7732 41.336C61.2772 40.408 61.0292 39.32 61.0292 38.072C61.0292 36.824 61.2772 35.752 61.7732 34.856C62.2692 33.944 62.9732 33.248 63.8852 32.768C64.7972 32.272 65.8692 32.024 67.1012 32.024C67.8532 32.024 68.5972 32.144 69.3332 32.384C70.0692 32.624 70.6772 32.96 71.1572 33.392L70.2692 35.48C69.8532 35.112 69.3812 34.832 68.8532 34.64C68.3412 34.448 67.8452 34.352 67.3652 34.352C66.3252 34.352 65.5172 34.68 64.9412 35.336C64.3812 35.976 64.1012 36.896 64.1012 38.096C64.1012 39.28 64.3812 40.216 64.9412 40.904C65.5172 41.576 66.3252 41.912 67.3652 41.912C67.8292 41.912 68.3252 41.816 68.8532 41.624C69.3812 41.432 69.8532 41.144 70.2692 40.76L71.1572 42.872C70.6772 43.288 70.0612 43.624 69.3092 43.88C68.5732 44.12 67.8372 44.24 67.1012 44.24ZM78.1151 44.24C76.8991 44.24 75.8431 43.992 74.9471 43.496C74.0511 43 73.3551 42.296 72.8591 41.384C72.3631 40.456 72.1151 39.368 72.1151 38.12C72.1151 36.872 72.3631 35.792 72.8591 34.88C73.3551 33.968 74.0511 33.264 74.9471 32.768C75.8431 32.272 76.8991 32.024 78.1151 32.024C79.3311 32.024 80.3871 32.272 81.2831 32.768C82.1791 33.264 82.8751 33.968 83.3711 34.88C83.8671 35.792 84.1151 36.872 84.1151 38.12C84.1151 39.368 83.8671 40.456 83.3711 41.384C82.8751 42.296 82.1791 43 81.2831 43.496C80.3871 43.992 79.3311 44.24 78.1151 44.24ZM78.1151 41.96C79.0111 41.96 79.7311 41.64 80.2751 41C80.8191 40.344 81.0911 39.384 81.0911 38.12C81.0911 36.84 80.8191 35.888 80.2751 35.264C79.7311 34.624 79.0111 34.304 78.1151 34.304C77.2191 34.304 76.4991 34.624 75.9551 35.264C75.4111 35.888 75.1391 36.84 75.1391 38.12C75.1391 39.384 75.4111 40.344 75.9551 41C76.4991 41.64 77.2191 41.96 78.1151 41.96ZM89.8129 44L84.7249 32.264H87.9169L91.5409 41.36H90.8209L94.5649 32.264H97.5649L92.4049 44H89.8129ZM104.563 44.24C103.235 44.24 102.091 43.992 101.131 43.496C100.171 43 99.4268 42.296 98.8988 41.384C98.3868 40.472 98.1308 39.392 98.1308 38.144C98.1308 36.928 98.3788 35.864 98.8748 34.952C99.3868 34.04 100.083 33.328 100.963 32.816C101.859 32.288 102.875 32.024 104.011 32.024C105.131 32.024 106.091 32.264 106.891 32.744C107.691 33.224 108.307 33.904 108.739 34.784C109.187 35.664 109.411 36.712 109.411 37.928V38.816H100.555V37.088H107.299L106.915 37.448C106.915 36.36 106.675 35.528 106.195 34.952C105.715 34.36 105.027 34.064 104.131 34.064C103.459 34.064 102.883 34.224 102.403 34.544C101.939 34.848 101.579 35.288 101.323 35.864C101.083 36.424 100.963 37.096 100.963 37.88V38.048C100.963 38.928 101.099 39.656 101.371 40.232C101.643 40.808 102.051 41.24 102.595 41.528C103.139 41.816 103.811 41.96 104.611 41.96C105.267 41.96 105.923 41.864 106.579 41.672C107.235 41.464 107.835 41.144 108.379 40.712L109.219 42.728C108.659 43.192 107.955 43.56 107.107 43.832C106.259 44.104 105.411 44.24 104.563 44.24ZM111.787 44V32.264H114.715V35.096H114.475C114.699 34.136 115.139 33.408 115.795 32.912C116.451 32.4 117.323 32.104 118.411 32.024L119.323 31.952L119.515 34.496L117.787 34.664C116.811 34.76 116.075 35.064 115.579 35.576C115.083 36.072 114.835 36.776 114.835 37.688V44H111.787ZM122.968 48.32L125.416 42.92V44.168L120.256 32.264H123.448L127.096 41.36H126.376L130.096 32.264H133.12L126.064 48.32H122.968ZM31.224 68.24C30.024 68.24 28.984 68.048 28.104 67.664C27.224 67.28 26.544 66.752 26.064 66.08C25.6 65.392 25.368 64.592 25.368 63.68C25.368 62.96 25.504 62.304 25.776 61.712C26.048 61.104 26.44 60.552 26.952 60.056C27.464 59.544 28.08 59.08 28.8 58.664L29.616 58.184L29.184 58.832C28.48 58.128 27.968 57.464 27.648 56.84C27.344 56.2 27.192 55.544 27.192 54.872C27.192 54.072 27.384 53.368 27.768 52.76C28.152 52.152 28.696 51.68 29.4 51.344C30.104 51.008 30.928 50.84 31.872 50.84C32.752 50.84 33.504 50.992 34.128 51.296C34.768 51.6 35.264 52.032 35.616 52.592C35.968 53.136 36.144 53.784 36.144 54.536C36.144 55.144 36.024 55.72 35.784 56.264C35.544 56.808 35.16 57.328 34.632 57.824C34.104 58.32 33.4 58.808 32.52 59.288L32.544 58.568L36.624 62.912H35.976C36.36 62.256 36.664 61.488 36.888 60.608C37.112 59.728 37.248 58.808 37.296 57.848H39.792C39.744 59.16 39.536 60.4 39.168 61.568C38.816 62.736 38.328 63.768 37.704 64.664L37.68 63.92L41.736 68H38.088L36.024 65.816H36.72C36.016 66.568 35.184 67.16 34.224 67.592C33.28 68.024 32.28 68.24 31.224 68.24ZM31.392 65.864C32.16 65.864 32.84 65.72 33.432 65.432C34.04 65.128 34.592 64.68 35.088 64.088L35.016 64.856L30.072 59.744L31.32 59.864L30.624 60.272C30.08 60.592 29.64 60.912 29.304 61.232C28.968 61.536 28.72 61.872 28.56 62.24C28.416 62.592 28.344 62.992 28.344 63.44C28.344 64.192 28.608 64.784 29.136 65.216C29.664 65.648 30.416 65.864 31.392 65.864ZM31.872 52.976C31.296 52.976 30.832 53.144 30.48 53.48C30.128 53.8 29.952 54.24 29.952 54.8C29.952 55.104 30 55.392 30.096 55.664C30.192 55.92 30.36 56.208 30.6 56.528C30.84 56.832 31.168 57.208 31.584 57.656L30.912 57.608C31.584 57.224 32.112 56.88 32.496 56.576C32.896 56.272 33.184 55.968 33.36 55.664C33.536 55.36 33.624 55.024 33.624 54.656C33.624 54.112 33.464 53.696 33.144 53.408C32.824 53.12 32.4 52.976 31.872 52.976ZM49.7308 68V51.08H57.0748C58.3228 51.08 59.3788 51.288 60.2428 51.704C61.1068 52.12 61.7628 52.72 62.2108 53.504C62.6588 54.288 62.8828 55.24 62.8828 56.36C62.8828 57.464 62.6588 58.416 62.2108 59.216C61.7628 60 61.1068 60.608 60.2428 61.04C59.3788 61.456 58.3228 61.664 57.0748 61.664H52.8028V68H49.7308ZM52.8028 59.24H56.5948C57.6828 59.24 58.5068 59 59.0668 58.52C59.6268 58.024 59.9068 57.304 59.9068 56.36C59.9068 55.416 59.6268 54.704 59.0668 54.224C58.5068 53.744 57.6828 53.504 56.5948 53.504H52.8028V59.24ZM69.1791 68.24C67.7871 68.24 66.7551 67.864 66.0831 67.112C65.4271 66.344 65.0991 65.224 65.0991 63.752V51.08H68.0991V63.608C68.0991 64.072 68.1631 64.472 68.2911 64.808C68.4351 65.128 68.6431 65.368 68.9151 65.528C69.1871 65.688 69.5231 65.768 69.9231 65.768C70.0991 65.768 70.2751 65.76 70.4511 65.744C70.6271 65.728 70.7951 65.696 70.9551 65.648L70.9071 68.024C70.6191 68.088 70.3311 68.136 70.0431 68.168C69.7711 68.216 69.4831 68.24 69.1791 68.24ZM76.6271 68.24C75.7791 68.24 75.0191 68.08 74.3471 67.76C73.6911 67.424 73.1711 66.976 72.7871 66.416C72.4191 65.856 72.2351 65.224 72.2351 64.52C72.2351 63.656 72.4591 62.976 72.9071 62.48C73.3551 61.968 74.0831 61.6 75.0911 61.376C76.0991 61.152 77.4511 61.04 79.1471 61.04H80.3471V62.768H79.1711C78.4191 62.768 77.7871 62.8 77.2751 62.864C76.7631 62.912 76.3471 63 76.0271 63.128C75.7231 63.24 75.4991 63.4 75.3551 63.608C75.2271 63.816 75.1631 64.072 75.1631 64.376C75.1631 64.904 75.3471 65.336 75.7151 65.672C76.0831 66.008 76.5951 66.176 77.2511 66.176C77.7791 66.176 78.2431 66.056 78.6431 65.816C79.0591 65.56 79.3871 65.216 79.6271 64.784C79.8671 64.352 79.9871 63.856 79.9871 63.296V60.536C79.9871 59.736 79.8111 59.16 79.4591 58.808C79.1071 58.456 78.5151 58.28 77.6831 58.28C77.0271 58.28 76.3551 58.384 75.6671 58.592C74.9791 58.784 74.2831 59.088 73.5791 59.504L72.7151 57.464C73.1311 57.176 73.6191 56.928 74.1791 56.72C74.7551 56.496 75.3551 56.328 75.9791 56.216C76.6191 56.088 77.2191 56.024 77.7791 56.024C78.9311 56.024 79.8751 56.2 80.6111 56.552C81.3631 56.904 81.9231 57.44 82.2911 58.16C82.6591 58.864 82.8431 59.776 82.8431 60.896V68H80.0351V65.504H80.2271C80.1151 66.064 79.8911 66.552 79.5551 66.968C79.2351 67.368 78.8271 67.68 78.3311 67.904C77.8351 68.128 77.2671 68.24 76.6271 68.24ZM85.8881 68V56.264H88.8161V58.616H88.5521C88.9041 57.768 89.4481 57.128 90.1841 56.696C90.9361 56.248 91.7841 56.024 92.7281 56.024C93.6721 56.024 94.4481 56.2 95.0561 56.552C95.6641 56.904 96.1201 57.44 96.4241 58.16C96.7281 58.864 96.8801 59.76 96.8801 60.848V68H93.8801V60.992C93.8801 60.384 93.8001 59.888 93.6401 59.504C93.4961 59.12 93.2641 58.84 92.9441 58.664C92.6401 58.472 92.2481 58.376 91.7681 58.376C91.1921 58.376 90.6881 58.504 90.2561 58.76C89.8241 59 89.4881 59.352 89.2481 59.816C89.0081 60.264 88.8881 60.792 88.8881 61.4V68H85.8881ZM99.9272 68V56.264H102.855V58.616H102.591C102.943 57.768 103.487 57.128 104.223 56.696C104.975 56.248 105.823 56.024 106.767 56.024C107.711 56.024 108.487 56.2 109.095 56.552C109.703 56.904 110.159 57.44 110.463 58.16C110.767 58.864 110.919 59.76 110.919 60.848V68H107.919V60.992C107.919 60.384 107.839 59.888 107.679 59.504C107.535 59.12 107.303 58.84 106.983 58.664C106.679 58.472 106.287 58.376 105.807 58.376C105.231 58.376 104.727 58.504 104.295 58.76C103.863 59 103.527 59.352 103.287 59.816C103.047 60.264 102.927 60.792 102.927 61.4V68H99.9272ZM113.774 53.744V50.816H117.134V53.744H113.774ZM113.966 68V56.264H116.966V68H113.966ZM120.083 68V56.264H123.011V58.616H122.747C123.099 57.768 123.643 57.128 124.379 56.696C125.131 56.248 125.979 56.024 126.923 56.024C127.867 56.024 128.643 56.2 129.251 56.552C129.859 56.904 130.315 57.44 130.619 58.16C130.923 58.864 131.075 59.76 131.075 60.848V68H128.075V60.992C128.075 60.384 127.995 59.888 127.835 59.504C127.691 59.12 127.459 58.84 127.139 58.664C126.835 58.472 126.443 58.376 125.963 58.376C125.387 58.376 124.883 58.504 124.451 58.76C124.019 59 123.683 59.352 123.443 59.816C123.203 60.264 123.083 60.792 123.083 61.4V68H120.083ZM139.595 72.56C138.507 72.56 137.483 72.432 136.523 72.176C135.579 71.936 134.747 71.56 134.027 71.048L134.891 68.96C135.339 69.248 135.811 69.488 136.307 69.68C136.803 69.888 137.307 70.04 137.819 70.136C138.331 70.232 138.843 70.28 139.355 70.28C140.427 70.28 141.227 70.016 141.755 69.488C142.299 68.976 142.571 68.208 142.571 67.184V65.024H142.787C142.547 65.84 142.043 66.496 141.275 66.992C140.523 67.472 139.667 67.712 138.707 67.712C137.651 67.712 136.731 67.472 135.947 66.992C135.163 66.496 134.555 65.808 134.123 64.928C133.691 64.048 133.475 63.024 133.475 61.856C133.475 60.688 133.691 59.672 134.123 58.808C134.555 57.928 135.163 57.248 135.947 56.768C136.731 56.272 137.651 56.024 138.707 56.024C139.699 56.024 140.563 56.272 141.299 56.768C142.051 57.248 142.539 57.888 142.763 58.688H142.571V56.264H145.499V66.824C145.499 68.088 145.275 69.144 144.827 69.992C144.379 70.856 143.715 71.496 142.835 71.912C141.955 72.344 140.875 72.56 139.595 72.56ZM139.523 65.432C140.451 65.432 141.187 65.112 141.731 64.472C142.275 63.832 142.547 62.96 142.547 61.856C142.547 60.752 142.275 59.888 141.731 59.264C141.187 58.624 140.451 58.304 139.523 58.304C138.595 58.304 137.859 58.624 137.315 59.264C136.771 59.888 136.499 60.752 136.499 61.856C136.499 62.96 136.771 63.832 137.315 64.472C137.859 65.112 138.595 65.432 139.523 65.432Z" fill="#282828"/>
<path d="M38.5391 123.578L35.4844 135H34.1484L31.8828 127.312C31.8151 127.094 31.75 126.875 31.6875 126.656C31.6302 126.432 31.5755 126.221 31.5234 126.023C31.4714 125.82 31.4271 125.643 31.3906 125.492C31.3594 125.336 31.3359 125.219 31.3203 125.141C31.3099 125.219 31.2891 125.333 31.2578 125.484C31.2318 125.635 31.1953 125.81 31.1484 126.008C31.1068 126.206 31.0547 126.417 30.9922 126.641C30.9349 126.865 30.8724 127.091 30.8047 127.32L28.6016 135H27.2656L24.2344 123.578H25.6172L27.4531 130.742C27.5156 130.982 27.5729 131.219 27.625 131.453C27.6823 131.682 27.7318 131.906 27.7734 132.125C27.8203 132.344 27.862 132.557 27.8984 132.766C27.9349 132.974 27.9688 133.177 28 133.375C28.026 133.172 28.0599 132.961 28.1016 132.742C28.1432 132.518 28.1875 132.292 28.2344 132.062C28.2865 131.833 28.3411 131.602 28.3984 131.367C28.4609 131.133 28.526 130.898 28.5938 130.664L30.6484 123.578H32.0156L34.1562 130.719C34.2292 130.964 34.2969 131.206 34.3594 131.445C34.4219 131.685 34.4766 131.919 34.5234 132.148C34.5755 132.372 34.6198 132.589 34.6562 132.797C34.6979 133 34.7344 133.193 34.7656 133.375C34.8021 133.12 34.8464 132.852 34.8984 132.57C34.9505 132.289 35.0104 131.995 35.0781 131.688C35.151 131.38 35.2292 131.062 35.3125 130.734L37.1484 123.578H38.5391ZM43.4453 126.281C44.1745 126.281 44.7995 126.443 45.3203 126.766C45.8411 127.089 46.2396 127.542 46.5156 128.125C46.7917 128.703 46.9297 129.38 46.9297 130.156V130.961H41.0156C41.0312 131.966 41.2812 132.732 41.7656 133.258C42.25 133.784 42.9323 134.047 43.8125 134.047C44.3542 134.047 44.8333 133.997 45.25 133.898C45.6667 133.799 46.099 133.654 46.5469 133.461V134.602C46.1146 134.794 45.6849 134.935 45.2578 135.023C44.8359 135.112 44.3359 135.156 43.7578 135.156C42.9349 135.156 42.2161 134.99 41.6016 134.656C40.9922 134.318 40.5182 133.823 40.1797 133.172C39.8411 132.521 39.6719 131.724 39.6719 130.781C39.6719 129.859 39.8255 129.062 40.1328 128.391C40.4453 127.714 40.8828 127.193 41.4453 126.828C42.013 126.464 42.6797 126.281 43.4453 126.281ZM43.4297 127.344C42.737 127.344 42.1849 127.57 41.7734 128.023C41.362 128.477 41.1172 129.109 41.0391 129.922H45.5703C45.5651 129.411 45.4844 128.964 45.3281 128.578C45.1771 128.188 44.9453 127.885 44.6328 127.672C44.3203 127.453 43.9193 127.344 43.4297 127.344ZM56.3359 135.156C55.2526 135.156 54.3932 134.786 53.7578 134.047C53.1276 133.307 52.8125 132.208 52.8125 130.75C52.8125 129.276 53.1354 128.164 53.7812 127.414C54.4271 126.659 55.2865 126.281 56.3594 126.281C56.8125 126.281 57.2083 126.341 57.5469 126.461C57.8854 126.581 58.1771 126.742 58.4219 126.945C58.6667 127.143 58.8724 127.37 59.0391 127.625H59.1328C59.112 127.464 59.0911 127.242 59.0703 126.961C59.0495 126.68 59.0391 126.451 59.0391 126.273V122.844H60.3359V135H59.2891L59.0938 133.781H59.0391C58.8776 134.036 58.6719 134.268 58.4219 134.477C58.1771 134.685 57.8828 134.852 57.5391 134.977C57.2005 135.096 56.7995 135.156 56.3359 135.156ZM56.5391 134.078C57.4557 134.078 58.1042 133.818 58.4844 133.297C58.8646 132.776 59.0547 132.003 59.0547 130.977V130.742C59.0547 129.654 58.8724 128.818 58.5078 128.234C58.1484 127.651 57.4922 127.359 56.5391 127.359C55.7422 127.359 55.1458 127.667 54.75 128.281C54.3542 128.891 54.1562 129.724 54.1562 130.781C54.1562 131.833 54.3516 132.646 54.7422 133.219C55.138 133.792 55.737 134.078 56.5391 134.078ZM64.3828 126.438V135H63.0859V126.438H64.3828ZM63.75 123.234C63.9635 123.234 64.1458 123.305 64.2969 123.445C64.4531 123.581 64.5312 123.794 64.5312 124.086C64.5312 124.372 64.4531 124.586 64.2969 124.727C64.1458 124.867 63.9635 124.938 63.75 124.938C63.526 124.938 63.3385 124.867 63.1875 124.727C63.0417 124.586 62.9688 124.372 62.9688 124.086C62.9688 123.794 63.0417 123.581 63.1875 123.445C63.3385 123.305 63.526 123.234 63.75 123.234ZM69.0156 135L65.7656 126.438H67.1562L69.0391 131.617C69.1693 131.971 69.3021 132.362 69.4375 132.789C69.5729 133.216 69.6667 133.56 69.7188 133.82H69.7734C69.8359 133.56 69.9401 133.216 70.0859 132.789C70.2318 132.357 70.3646 131.966 70.4844 131.617L72.3672 126.438H73.7578L70.5 135H69.0156ZM78.4297 126.281C79.1589 126.281 79.7839 126.443 80.3047 126.766C80.8255 127.089 81.224 127.542 81.5 128.125C81.776 128.703 81.9141 129.38 81.9141 130.156V130.961H76C76.0156 131.966 76.2656 132.732 76.75 133.258C77.2344 133.784 77.9167 134.047 78.7969 134.047C79.3385 134.047 79.8177 133.997 80.2344 133.898C80.651 133.799 81.0833 133.654 81.5312 133.461V134.602C81.099 134.794 80.6693 134.935 80.2422 135.023C79.8203 135.112 79.3203 135.156 78.7422 135.156C77.9193 135.156 77.2005 134.99 76.5859 134.656C75.9766 134.318 75.5026 133.823 75.1641 133.172C74.8255 132.521 74.6562 131.724 74.6562 130.781C74.6562 129.859 74.8099 129.062 75.1172 128.391C75.4297 127.714 75.8672 127.193 76.4297 126.828C76.9974 126.464 77.6641 126.281 78.4297 126.281ZM78.4141 127.344C77.7214 127.344 77.1693 127.57 76.7578 128.023C76.3464 128.477 76.1016 129.109 76.0234 129.922H80.5547C80.5495 129.411 80.4688 128.964 80.3125 128.578C80.1615 128.188 79.9297 127.885 79.6172 127.672C79.3047 127.453 78.9036 127.344 78.4141 127.344ZM91.3203 135.156C90.237 135.156 89.3776 134.786 88.7422 134.047C88.112 133.307 87.7969 132.208 87.7969 130.75C87.7969 129.276 88.1198 128.164 88.7656 127.414C89.4115 126.659 90.2708 126.281 91.3438 126.281C91.7969 126.281 92.1927 126.341 92.5312 126.461C92.8698 126.581 93.1615 126.742 93.4062 126.945C93.651 127.143 93.8568 127.37 94.0234 127.625H94.1172C94.0964 127.464 94.0755 127.242 94.0547 126.961C94.0339 126.68 94.0234 126.451 94.0234 126.273V122.844H95.3203V135H94.2734L94.0781 133.781H94.0234C93.862 134.036 93.6562 134.268 93.4062 134.477C93.1615 134.685 92.8672 134.852 92.5234 134.977C92.1849 135.096 91.7839 135.156 91.3203 135.156ZM91.5234 134.078C92.4401 134.078 93.0885 133.818 93.4688 133.297C93.849 132.776 94.0391 132.003 94.0391 130.977V130.742C94.0391 129.654 93.8568 128.818 93.4922 128.234C93.1328 127.651 92.4766 127.359 91.5234 127.359C90.7266 127.359 90.1302 127.667 89.7344 128.281C89.3385 128.891 89.1406 129.724 89.1406 130.781C89.1406 131.833 89.3359 132.646 89.7266 133.219C90.1224 133.792 90.7214 134.078 91.5234 134.078ZM101.367 126.281C102.096 126.281 102.721 126.443 103.242 126.766C103.763 127.089 104.161 127.542 104.438 128.125C104.714 128.703 104.852 129.38 104.852 130.156V130.961H98.9375C98.9531 131.966 99.2031 132.732 99.6875 133.258C100.172 133.784 100.854 134.047 101.734 134.047C102.276 134.047 102.755 133.997 103.172 133.898C103.589 133.799 104.021 133.654 104.469 133.461V134.602C104.036 134.794 103.607 134.935 103.18 135.023C102.758 135.112 102.258 135.156 101.68 135.156C100.857 135.156 100.138 134.99 99.5234 134.656C98.9141 134.318 98.4401 133.823 98.1016 133.172C97.763 132.521 97.5938 131.724 97.5938 130.781C97.5938 129.859 97.7474 129.062 98.0547 128.391C98.3672 127.714 98.8047 127.193 99.3672 126.828C99.9349 126.464 100.602 126.281 101.367 126.281ZM101.352 127.344C100.659 127.344 100.107 127.57 99.6953 128.023C99.2839 128.477 99.0391 129.109 98.9609 129.922H103.492C103.487 129.411 103.406 128.964 103.25 128.578C103.099 128.188 102.867 127.885 102.555 127.672C102.242 127.453 101.841 127.344 101.352 127.344ZM110.352 126.281C111.081 126.281 111.706 126.443 112.227 126.766C112.747 127.089 113.146 127.542 113.422 128.125C113.698 128.703 113.836 129.38 113.836 130.156V130.961H107.922C107.938 131.966 108.188 132.732 108.672 133.258C109.156 133.784 109.839 134.047 110.719 134.047C111.26 134.047 111.74 133.997 112.156 133.898C112.573 133.799 113.005 133.654 113.453 133.461V134.602C113.021 134.794 112.591 134.935 112.164 135.023C111.742 135.112 111.242 135.156 110.664 135.156C109.841 135.156 109.122 134.99 108.508 134.656C107.898 134.318 107.424 133.823 107.086 133.172C106.747 132.521 106.578 131.724 106.578 130.781C106.578 129.859 106.732 129.062 107.039 128.391C107.352 127.714 107.789 127.193 108.352 126.828C108.919 126.464 109.586 126.281 110.352 126.281ZM110.336 127.344C109.643 127.344 109.091 127.57 108.68 128.023C108.268 128.477 108.023 129.109 107.945 129.922H112.477C112.471 129.411 112.391 128.964 112.234 128.578C112.083 128.188 111.852 127.885 111.539 127.672C111.227 127.453 110.826 127.344 110.336 127.344ZM120.062 126.281C121.13 126.281 121.982 126.648 122.617 127.383C123.253 128.117 123.57 129.221 123.57 130.695C123.57 131.669 123.424 132.487 123.133 133.148C122.841 133.81 122.43 134.31 121.898 134.648C121.372 134.987 120.75 135.156 120.031 135.156C119.578 135.156 119.18 135.096 118.836 134.977C118.492 134.857 118.198 134.695 117.953 134.492C117.708 134.289 117.505 134.068 117.344 133.828H117.25C117.266 134.031 117.284 134.276 117.305 134.562C117.331 134.849 117.344 135.099 117.344 135.312V138.828H116.039V126.438H117.109L117.281 127.703H117.344C117.51 127.443 117.714 127.206 117.953 126.992C118.193 126.773 118.484 126.602 118.828 126.477C119.177 126.346 119.589 126.281 120.062 126.281ZM119.836 127.375C119.242 127.375 118.763 127.49 118.398 127.719C118.039 127.948 117.776 128.292 117.609 128.75C117.443 129.203 117.354 129.773 117.344 130.461V130.711C117.344 131.435 117.422 132.047 117.578 132.547C117.74 133.047 118.003 133.427 118.367 133.688C118.737 133.948 119.232 134.078 119.852 134.078C120.383 134.078 120.826 133.935 121.18 133.648C121.534 133.362 121.797 132.964 121.969 132.453C122.146 131.938 122.234 131.346 122.234 130.68C122.234 129.669 122.036 128.867 121.641 128.273C121.25 127.674 120.648 127.375 119.836 127.375ZM131.289 126.438V135H129.992V126.438H131.289ZM130.656 123.234C130.87 123.234 131.052 123.305 131.203 123.445C131.359 123.581 131.438 123.794 131.438 124.086C131.438 124.372 131.359 124.586 131.203 124.727C131.052 124.867 130.87 124.938 130.656 124.938C130.432 124.938 130.245 124.867 130.094 124.727C129.948 124.586 129.875 124.372 129.875 124.086C129.875 123.794 129.948 123.581 130.094 123.445C130.245 123.305 130.432 123.234 130.656 123.234ZM138.094 126.281C139.109 126.281 139.878 126.531 140.398 127.031C140.919 127.526 141.18 128.323 141.18 129.422V135H139.898V129.508C139.898 128.794 139.734 128.26 139.406 127.906C139.083 127.552 138.586 127.375 137.914 127.375C136.966 127.375 136.299 127.643 135.914 128.18C135.529 128.716 135.336 129.495 135.336 130.516V135H134.039V126.438H135.086L135.281 127.672H135.352C135.534 127.37 135.766 127.117 136.047 126.914C136.328 126.706 136.643 126.549 136.992 126.445C137.341 126.336 137.708 126.281 138.094 126.281ZM146.617 134.094C146.831 134.094 147.049 134.076 147.273 134.039C147.497 134.003 147.68 133.958 147.82 133.906V134.914C147.669 134.982 147.458 135.039 147.188 135.086C146.922 135.133 146.661 135.156 146.406 135.156C145.953 135.156 145.542 135.078 145.172 134.922C144.802 134.76 144.505 134.49 144.281 134.109C144.062 133.729 143.953 133.203 143.953 132.531V127.453H142.734V126.82L143.961 126.312L144.477 124.453H145.258V126.438H147.766V127.453H145.258V132.492C145.258 133.029 145.38 133.43 145.625 133.695C145.875 133.961 146.206 134.094 146.617 134.094ZM156.938 130.703C156.938 131.406 156.846 132.034 156.664 132.586C156.482 133.138 156.219 133.604 155.875 133.984C155.531 134.365 155.115 134.656 154.625 134.859C154.141 135.057 153.591 135.156 152.977 135.156C152.404 135.156 151.878 135.057 151.398 134.859C150.924 134.656 150.513 134.365 150.164 133.984C149.82 133.604 149.552 133.138 149.359 132.586C149.172 132.034 149.078 131.406 149.078 130.703C149.078 129.766 149.237 128.969 149.555 128.312C149.872 127.651 150.326 127.148 150.914 126.805C151.508 126.456 152.214 126.281 153.031 126.281C153.812 126.281 154.495 126.456 155.078 126.805C155.667 127.154 156.122 127.659 156.445 128.32C156.773 128.977 156.938 129.771 156.938 130.703ZM150.422 130.703C150.422 131.391 150.513 131.987 150.695 132.492C150.878 132.997 151.159 133.388 151.539 133.664C151.919 133.94 152.409 134.078 153.008 134.078C153.602 134.078 154.089 133.94 154.469 133.664C154.854 133.388 155.138 132.997 155.32 132.492C155.503 131.987 155.594 131.391 155.594 130.703C155.594 130.021 155.503 129.432 155.32 128.938C155.138 128.438 154.857 128.052 154.477 127.781C154.096 127.51 153.604 127.375 153 127.375C152.109 127.375 151.456 127.669 151.039 128.258C150.628 128.846 150.422 129.661 150.422 130.703ZM161.984 126.438H163.375L165.266 131.406C165.375 131.698 165.477 131.979 165.57 132.25C165.664 132.516 165.747 132.771 165.82 133.016C165.893 133.26 165.951 133.497 165.992 133.727H166.047C166.12 133.466 166.224 133.125 166.359 132.703C166.495 132.276 166.641 131.841 166.797 131.398L168.586 126.438H169.984L166.258 136.258C166.06 136.784 165.828 137.242 165.562 137.633C165.302 138.023 164.984 138.323 164.609 138.531C164.234 138.745 163.781 138.852 163.25 138.852C163.005 138.852 162.789 138.836 162.602 138.805C162.414 138.779 162.253 138.747 162.117 138.711V137.672C162.232 137.698 162.37 137.721 162.531 137.742C162.698 137.763 162.87 137.773 163.047 137.773C163.37 137.773 163.648 137.711 163.883 137.586C164.122 137.466 164.328 137.289 164.5 137.055C164.672 136.82 164.82 136.542 164.945 136.219L165.414 135.016L161.984 126.438ZM178.734 130.703C178.734 131.406 178.643 132.034 178.461 132.586C178.279 133.138 178.016 133.604 177.672 133.984C177.328 134.365 176.911 134.656 176.422 134.859C175.938 135.057 175.388 135.156 174.773 135.156C174.201 135.156 173.674 135.057 173.195 134.859C172.721 134.656 172.31 134.365 171.961 133.984C171.617 133.604 171.349 133.138 171.156 132.586C170.969 132.034 170.875 131.406 170.875 130.703C170.875 129.766 171.034 128.969 171.352 128.312C171.669 127.651 172.122 127.148 172.711 126.805C173.305 126.456 174.01 126.281 174.828 126.281C175.609 126.281 176.292 126.456 176.875 126.805C177.464 127.154 177.919 127.659 178.242 128.32C178.57 128.977 178.734 129.771 178.734 130.703ZM172.219 130.703C172.219 131.391 172.31 131.987 172.492 132.492C172.674 132.997 172.956 133.388 173.336 133.664C173.716 133.94 174.206 134.078 174.805 134.078C175.398 134.078 175.885 133.94 176.266 133.664C176.651 133.388 176.935 132.997 177.117 132.492C177.299 131.987 177.391 131.391 177.391 130.703C177.391 130.021 177.299 129.432 177.117 128.938C176.935 128.438 176.654 128.052 176.273 127.781C175.893 127.51 175.401 127.375 174.797 127.375C173.906 127.375 173.253 127.669 172.836 128.258C172.424 128.846 172.219 129.661 172.219 130.703ZM188.047 126.438V135H186.984L186.797 133.797H186.727C186.549 134.094 186.32 134.344 186.039 134.547C185.758 134.75 185.44 134.901 185.086 135C184.737 135.104 184.365 135.156 183.969 135.156C183.292 135.156 182.724 135.047 182.266 134.828C181.807 134.609 181.461 134.271 181.227 133.812C180.997 133.354 180.883 132.766 180.883 132.047V126.438H182.195V131.953C182.195 132.667 182.357 133.201 182.68 133.555C183.003 133.904 183.495 134.078 184.156 134.078C184.792 134.078 185.297 133.958 185.672 133.719C186.052 133.479 186.326 133.128 186.492 132.664C186.659 132.195 186.742 131.622 186.742 130.945V126.438H188.047ZM194.68 126.281C194.852 126.281 195.031 126.292 195.219 126.312C195.406 126.328 195.573 126.352 195.719 126.383L195.555 127.586C195.414 127.549 195.258 127.521 195.086 127.5C194.914 127.479 194.753 127.469 194.602 127.469C194.258 127.469 193.932 127.539 193.625 127.68C193.323 127.815 193.057 128.013 192.828 128.273C192.599 128.529 192.419 128.839 192.289 129.203C192.159 129.562 192.094 129.964 192.094 130.406V135H190.789V126.438H191.867L192.008 128.016H192.062C192.24 127.698 192.453 127.409 192.703 127.148C192.953 126.883 193.242 126.672 193.57 126.516C193.904 126.359 194.273 126.281 194.68 126.281ZM202.789 122.844V125.883C202.789 126.232 202.779 126.57 202.758 126.898C202.742 127.227 202.729 127.482 202.719 127.664H202.789C203.023 127.279 203.362 126.953 203.805 126.688C204.247 126.422 204.812 126.289 205.5 126.289C206.573 126.289 207.427 126.661 208.062 127.406C208.703 128.146 209.023 129.247 209.023 130.711C209.023 131.674 208.878 132.487 208.586 133.148C208.294 133.81 207.883 134.31 207.352 134.648C206.82 134.987 206.193 135.156 205.469 135.156C204.792 135.156 204.234 135.031 203.797 134.781C203.365 134.526 203.031 134.216 202.797 133.852H202.695L202.43 135H201.492V122.844H202.789ZM205.289 127.375C204.669 127.375 204.177 127.497 203.812 127.742C203.448 127.982 203.185 128.346 203.023 128.836C202.867 129.32 202.789 129.935 202.789 130.68V130.75C202.789 131.828 202.969 132.654 203.328 133.227C203.688 133.794 204.341 134.078 205.289 134.078C206.086 134.078 206.682 133.786 207.078 133.203C207.479 132.62 207.68 131.786 207.68 130.703C207.68 129.599 207.482 128.768 207.086 128.211C206.695 127.654 206.096 127.375 205.289 127.375ZM215.18 126.281C215.352 126.281 215.531 126.292 215.719 126.312C215.906 126.328 216.073 126.352 216.219 126.383L216.055 127.586C215.914 127.549 215.758 127.521 215.586 127.5C215.414 127.479 215.253 127.469 215.102 127.469C214.758 127.469 214.432 127.539 214.125 127.68C213.823 127.815 213.557 128.013 213.328 128.273C213.099 128.529 212.919 128.839 212.789 129.203C212.659 129.562 212.594 129.964 212.594 130.406V135H211.289V126.438H212.367L212.508 128.016H212.562C212.74 127.698 212.953 127.409 213.203 127.148C213.453 126.883 213.742 126.672 214.07 126.516C214.404 126.359 214.773 126.281 215.18 126.281ZM221.039 126.297C222.06 126.297 222.818 126.526 223.312 126.984C223.807 127.443 224.055 128.174 224.055 129.18V135H223.109L222.859 133.734H222.797C222.557 134.047 222.307 134.31 222.047 134.523C221.786 134.732 221.484 134.891 221.141 135C220.802 135.104 220.385 135.156 219.891 135.156C219.37 135.156 218.906 135.065 218.5 134.883C218.099 134.701 217.781 134.424 217.547 134.055C217.318 133.685 217.203 133.216 217.203 132.648C217.203 131.794 217.542 131.138 218.219 130.68C218.896 130.221 219.927 129.971 221.312 129.93L222.789 129.867V129.344C222.789 128.604 222.63 128.086 222.312 127.789C221.995 127.492 221.547 127.344 220.969 127.344C220.521 127.344 220.094 127.409 219.688 127.539C219.281 127.669 218.896 127.823 218.531 128L218.133 127.016C218.518 126.818 218.961 126.648 219.461 126.508C219.961 126.367 220.487 126.297 221.039 126.297ZM222.773 130.781L221.469 130.836C220.401 130.878 219.648 131.052 219.211 131.359C218.773 131.667 218.555 132.102 218.555 132.664C218.555 133.154 218.703 133.516 219 133.75C219.297 133.984 219.69 134.102 220.18 134.102C220.94 134.102 221.562 133.891 222.047 133.469C222.531 133.047 222.773 132.414 222.773 131.57V130.781ZM230.781 126.281C231.797 126.281 232.565 126.531 233.086 127.031C233.607 127.526 233.867 128.323 233.867 129.422V135H232.586V129.508C232.586 128.794 232.422 128.26 232.094 127.906C231.771 127.552 231.273 127.375 230.602 127.375C229.654 127.375 228.987 127.643 228.602 128.18C228.216 128.716 228.023 129.495 228.023 130.516V135H226.727V126.438H227.773L227.969 127.672H228.039C228.221 127.37 228.453 127.117 228.734 126.914C229.016 126.706 229.331 126.549 229.68 126.445C230.029 126.336 230.396 126.281 230.781 126.281ZM239.586 135.156C238.503 135.156 237.643 134.786 237.008 134.047C236.378 133.307 236.062 132.208 236.062 130.75C236.062 129.276 236.385 128.164 237.031 127.414C237.677 126.659 238.536 126.281 239.609 126.281C240.062 126.281 240.458 126.341 240.797 126.461C241.135 126.581 241.427 126.742 241.672 126.945C241.917 127.143 242.122 127.37 242.289 127.625H242.383C242.362 127.464 242.341 127.242 242.32 126.961C242.299 126.68 242.289 126.451 242.289 126.273V122.844H243.586V135H242.539L242.344 133.781H242.289C242.128 134.036 241.922 134.268 241.672 134.477C241.427 134.685 241.133 134.852 240.789 134.977C240.451 135.096 240.049 135.156 239.586 135.156ZM239.789 134.078C240.706 134.078 241.354 133.818 241.734 133.297C242.115 132.776 242.305 132.003 242.305 130.977V130.742C242.305 129.654 242.122 128.818 241.758 128.234C241.398 127.651 240.742 127.359 239.789 127.359C238.992 127.359 238.396 127.667 238 128.281C237.604 128.891 237.406 129.724 237.406 130.781C237.406 131.833 237.602 132.646 237.992 133.219C238.388 133.792 238.987 134.078 239.789 134.078ZM247.82 133.141L247.922 133.32C247.828 133.701 247.708 134.107 247.562 134.539C247.422 134.971 247.266 135.404 247.094 135.836C246.927 136.273 246.758 136.682 246.586 137.062H245.617C245.727 136.646 245.833 136.206 245.938 135.742C246.042 135.284 246.135 134.831 246.219 134.383C246.307 133.93 246.378 133.516 246.43 133.141H247.82ZM263.93 126.281C264.872 126.281 265.583 126.529 266.062 127.023C266.542 127.513 266.781 128.302 266.781 129.391V135H265.5V129.453C265.5 128.76 265.349 128.242 265.047 127.898C264.75 127.549 264.307 127.375 263.719 127.375C262.891 127.375 262.289 127.615 261.914 128.094C261.539 128.573 261.352 129.279 261.352 130.211V135H260.062V129.453C260.062 128.99 259.995 128.604 259.859 128.297C259.729 127.99 259.531 127.76 259.266 127.609C259.005 127.453 258.674 127.375 258.273 127.375C257.706 127.375 257.25 127.492 256.906 127.727C256.562 127.961 256.312 128.31 256.156 128.773C256.005 129.232 255.93 129.797 255.93 130.469V135H254.633V126.438H255.68L255.875 127.648H255.945C256.117 127.352 256.333 127.102 256.594 126.898C256.854 126.695 257.146 126.542 257.469 126.438C257.792 126.333 258.135 126.281 258.5 126.281C259.151 126.281 259.695 126.404 260.133 126.648C260.576 126.888 260.896 127.255 261.094 127.75H261.164C261.445 127.255 261.831 126.888 262.32 126.648C262.81 126.404 263.346 126.281 263.93 126.281ZM272.648 126.297C273.669 126.297 274.427 126.526 274.922 126.984C275.417 127.443 275.664 128.174 275.664 129.18V135H274.719L274.469 133.734H274.406C274.167 134.047 273.917 134.31 273.656 134.523C273.396 134.732 273.094 134.891 272.75 135C272.411 135.104 271.995 135.156 271.5 135.156C270.979 135.156 270.516 135.065 270.109 134.883C269.708 134.701 269.391 134.424 269.156 134.055C268.927 133.685 268.812 133.216 268.812 132.648C268.812 131.794 269.151 131.138 269.828 130.68C270.505 130.221 271.536 129.971 272.922 129.93L274.398 129.867V129.344C274.398 128.604 274.24 128.086 273.922 127.789C273.604 127.492 273.156 127.344 272.578 127.344C272.13 127.344 271.703 127.409 271.297 127.539C270.891 127.669 270.505 127.823 270.141 128L269.742 127.016C270.128 126.818 270.57 126.648 271.07 126.508C271.57 126.367 272.096 126.297 272.648 126.297ZM274.383 130.781L273.078 130.836C272.01 130.878 271.258 131.052 270.82 131.359C270.383 131.667 270.164 132.102 270.164 132.664C270.164 133.154 270.312 133.516 270.609 133.75C270.906 133.984 271.299 134.102 271.789 134.102C272.549 134.102 273.172 133.891 273.656 133.469C274.141 133.047 274.383 132.414 274.383 131.57V130.781ZM282.227 126.281C282.398 126.281 282.578 126.292 282.766 126.312C282.953 126.328 283.12 126.352 283.266 126.383L283.102 127.586C282.961 127.549 282.805 127.521 282.633 127.5C282.461 127.479 282.299 127.469 282.148 127.469C281.805 127.469 281.479 127.539 281.172 127.68C280.87 127.815 280.604 128.013 280.375 128.273C280.146 128.529 279.966 128.839 279.836 129.203C279.706 129.562 279.641 129.964 279.641 130.406V135H278.336V126.438H279.414L279.555 128.016H279.609C279.786 127.698 280 127.409 280.25 127.148C280.5 126.883 280.789 126.672 281.117 126.516C281.451 126.359 281.82 126.281 282.227 126.281ZM286.172 122.844V129.156C286.172 129.365 286.164 129.62 286.148 129.922C286.133 130.219 286.12 130.482 286.109 130.711H286.164C286.273 130.576 286.432 130.375 286.641 130.109C286.854 129.844 287.034 129.63 287.18 129.469L290.023 126.438H291.547L288.102 130.094L291.797 135H290.234L287.211 130.945L286.172 131.898V135H284.883V122.844H286.172ZM296.586 126.281C297.315 126.281 297.94 126.443 298.461 126.766C298.982 127.089 299.38 127.542 299.656 128.125C299.932 128.703 300.07 129.38 300.07 130.156V130.961H294.156C294.172 131.966 294.422 132.732 294.906 133.258C295.391 133.784 296.073 134.047 296.953 134.047C297.495 134.047 297.974 133.997 298.391 133.898C298.807 133.799 299.24 133.654 299.688 133.461V134.602C299.255 134.794 298.826 134.935 298.398 135.023C297.977 135.112 297.477 135.156 296.898 135.156C296.076 135.156 295.357 134.99 294.742 134.656C294.133 134.318 293.659 133.823 293.32 133.172C292.982 132.521 292.812 131.724 292.812 130.781C292.812 129.859 292.966 129.062 293.273 128.391C293.586 127.714 294.023 127.193 294.586 126.828C295.154 126.464 295.82 126.281 296.586 126.281ZM296.57 127.344C295.878 127.344 295.326 127.57 294.914 128.023C294.503 128.477 294.258 129.109 294.18 129.922H298.711C298.706 129.411 298.625 128.964 298.469 128.578C298.318 128.188 298.086 127.885 297.773 127.672C297.461 127.453 297.06 127.344 296.57 127.344ZM305.039 134.094C305.253 134.094 305.471 134.076 305.695 134.039C305.919 134.003 306.102 133.958 306.242 133.906V134.914C306.091 134.982 305.88 135.039 305.609 135.086C305.344 135.133 305.083 135.156 304.828 135.156C304.375 135.156 303.964 135.078 303.594 134.922C303.224 134.76 302.927 134.49 302.703 134.109C302.484 133.729 302.375 133.203 302.375 132.531V127.453H301.156V126.82L302.383 126.312L302.898 124.453H303.68V126.438H306.188V127.453H303.68V132.492C303.68 133.029 303.802 133.43 304.047 133.695C304.297 133.961 304.628 134.094 305.039 134.094ZM309.461 133.141L309.562 133.32C309.469 133.701 309.349 134.107 309.203 134.539C309.062 134.971 308.906 135.404 308.734 135.836C308.568 136.273 308.398 136.682 308.227 137.062H307.258C307.367 136.646 307.474 136.206 307.578 135.742C307.682 135.284 307.776 134.831 307.859 134.383C307.948 133.93 308.018 133.516 308.07 133.141H309.461ZM319.477 126.297C320.497 126.297 321.255 126.526 321.75 126.984C322.245 127.443 322.492 128.174 322.492 129.18V135H321.547L321.297 133.734H321.234C320.995 134.047 320.745 134.31 320.484 134.523C320.224 134.732 319.922 134.891 319.578 135C319.24 135.104 318.823 135.156 318.328 135.156C317.807 135.156 317.344 135.065 316.938 134.883C316.536 134.701 316.219 134.424 315.984 134.055C315.755 133.685 315.641 133.216 315.641 132.648C315.641 131.794 315.979 131.138 316.656 130.68C317.333 130.221 318.365 129.971 319.75 129.93L321.227 129.867V129.344C321.227 128.604 321.068 128.086 320.75 127.789C320.432 127.492 319.984 127.344 319.406 127.344C318.958 127.344 318.531 127.409 318.125 127.539C317.719 127.669 317.333 127.823 316.969 128L316.57 127.016C316.956 126.818 317.398 126.648 317.898 126.508C318.398 126.367 318.924 126.297 319.477 126.297ZM321.211 130.781L319.906 130.836C318.839 130.878 318.086 131.052 317.648 131.359C317.211 131.667 316.992 132.102 316.992 132.664C316.992 133.154 317.141 133.516 317.438 133.75C317.734 133.984 318.128 134.102 318.617 134.102C319.378 134.102 320 133.891 320.484 133.469C320.969 133.047 321.211 132.414 321.211 131.57V130.781ZM329.219 126.281C330.234 126.281 331.003 126.531 331.523 127.031C332.044 127.526 332.305 128.323 332.305 129.422V135H331.023V129.508C331.023 128.794 330.859 128.26 330.531 127.906C330.208 127.552 329.711 127.375 329.039 127.375C328.091 127.375 327.424 127.643 327.039 128.18C326.654 128.716 326.461 129.495 326.461 130.516V135H325.164V126.438H326.211L326.406 127.672H326.477C326.659 127.37 326.891 127.117 327.172 126.914C327.453 126.706 327.768 126.549 328.117 126.445C328.466 126.336 328.833 126.281 329.219 126.281ZM338.023 135.156C336.94 135.156 336.081 134.786 335.445 134.047C334.815 133.307 334.5 132.208 334.5 130.75C334.5 129.276 334.823 128.164 335.469 127.414C336.115 126.659 336.974 126.281 338.047 126.281C338.5 126.281 338.896 126.341 339.234 126.461C339.573 126.581 339.865 126.742 340.109 126.945C340.354 127.143 340.56 127.37 340.727 127.625H340.82C340.799 127.464 340.779 127.242 340.758 126.961C340.737 126.68 340.727 126.451 340.727 126.273V122.844H342.023V135H340.977L340.781 133.781H340.727C340.565 134.036 340.359 134.268 340.109 134.477C339.865 134.685 339.57 134.852 339.227 134.977C338.888 135.096 338.487 135.156 338.023 135.156ZM338.227 134.078C339.143 134.078 339.792 133.818 340.172 133.297C340.552 132.776 340.742 132.003 340.742 130.977V130.742C340.742 129.654 340.56 128.818 340.195 128.234C339.836 127.651 339.18 127.359 338.227 127.359C337.43 127.359 336.833 127.667 336.438 128.281C336.042 128.891 335.844 129.724 335.844 130.781C335.844 131.833 336.039 132.646 336.43 133.219C336.826 133.792 337.424 134.078 338.227 134.078ZM32.75 152.703C32.75 153.406 32.6589 154.034 32.4766 154.586C32.2943 155.138 32.0312 155.604 31.6875 155.984C31.3438 156.365 30.9271 156.656 30.4375 156.859C29.9531 157.057 29.4036 157.156 28.7891 157.156C28.2161 157.156 27.6901 157.057 27.2109 156.859C26.737 156.656 26.3255 156.365 25.9766 155.984C25.6328 155.604 25.3646 155.138 25.1719 154.586C24.9844 154.034 24.8906 153.406 24.8906 152.703C24.8906 151.766 25.0495 150.969 25.3672 150.312C25.6849 149.651 26.138 149.148 26.7266 148.805C27.3203 148.456 28.026 148.281 28.8438 148.281C29.625 148.281 30.3073 148.456 30.8906 148.805C31.4792 149.154 31.9349 149.659 32.2578 150.32C32.5859 150.977 32.75 151.771 32.75 152.703ZM26.2344 152.703C26.2344 153.391 26.3255 153.987 26.5078 154.492C26.6901 154.997 26.9714 155.388 27.3516 155.664C27.7318 155.94 28.2214 156.078 28.8203 156.078C29.4141 156.078 29.901 155.94 30.2812 155.664C30.6667 155.388 30.9505 154.997 31.1328 154.492C31.3151 153.987 31.4062 153.391 31.4062 152.703C31.4062 152.021 31.3151 151.432 31.1328 150.938C30.9505 150.438 30.6693 150.052 30.2891 149.781C29.9089 149.51 29.4167 149.375 28.8125 149.375C27.9219 149.375 27.2682 149.669 26.8516 150.258C26.4401 150.846 26.2344 151.661 26.2344 152.703ZM36.2891 144.844V147.883C36.2891 148.232 36.2786 148.57 36.2578 148.898C36.2422 149.227 36.2292 149.482 36.2188 149.664H36.2891C36.5234 149.279 36.862 148.953 37.3047 148.688C37.7474 148.422 38.3125 148.289 39 148.289C40.0729 148.289 40.9271 148.661 41.5625 149.406C42.2031 150.146 42.5234 151.247 42.5234 152.711C42.5234 153.674 42.3776 154.487 42.0859 155.148C41.7943 155.81 41.3828 156.31 40.8516 156.648C40.3203 156.987 39.6927 157.156 38.9688 157.156C38.2917 157.156 37.7344 157.031 37.2969 156.781C36.8646 156.526 36.5312 156.216 36.2969 155.852H36.1953L35.9297 157H34.9922V144.844H36.2891ZM38.7891 149.375C38.1693 149.375 37.6771 149.497 37.3125 149.742C36.9479 149.982 36.6849 150.346 36.5234 150.836C36.3672 151.32 36.2891 151.935 36.2891 152.68V152.75C36.2891 153.828 36.4688 154.654 36.8281 155.227C37.1875 155.794 37.8411 156.078 38.7891 156.078C39.5859 156.078 40.1823 155.786 40.5781 155.203C40.9792 154.62 41.1797 153.786 41.1797 152.703C41.1797 151.599 40.9818 150.768 40.5859 150.211C40.1953 149.654 39.5964 149.375 38.7891 149.375ZM43.7578 160.844C43.4922 160.844 43.2604 160.823 43.0625 160.781C42.8646 160.745 42.6927 160.701 42.5469 160.648V159.594C42.7083 159.646 42.8724 159.685 43.0391 159.711C43.2057 159.742 43.3932 159.758 43.6016 159.758C43.9557 159.758 44.2422 159.659 44.4609 159.461C44.6797 159.263 44.7891 158.904 44.7891 158.383V148.438H46.0859V158.352C46.0859 158.872 46.0026 159.318 45.8359 159.688C45.6693 160.062 45.4141 160.349 45.0703 160.547C44.7266 160.745 44.2891 160.844 43.7578 160.844ZM44.6719 146.086C44.6719 145.794 44.7448 145.581 44.8906 145.445C45.0417 145.305 45.2292 145.234 45.4531 145.234C45.6667 145.234 45.849 145.305 46 145.445C46.1562 145.581 46.2344 145.794 46.2344 146.086C46.2344 146.372 46.1562 146.586 46 146.727C45.849 146.867 45.6667 146.938 45.4531 146.938C45.2292 146.938 45.0417 146.867 44.8906 146.727C44.7448 146.586 44.6719 146.372 44.6719 146.086ZM52.1328 148.281C52.862 148.281 53.487 148.443 54.0078 148.766C54.5286 149.089 54.9271 149.542 55.2031 150.125C55.4792 150.703 55.6172 151.38 55.6172 152.156V152.961H49.7031C49.7188 153.966 49.9688 154.732 50.4531 155.258C50.9375 155.784 51.6198 156.047 52.5 156.047C53.0417 156.047 53.5208 155.997 53.9375 155.898C54.3542 155.799 54.7865 155.654 55.2344 155.461V156.602C54.8021 156.794 54.3724 156.935 53.9453 157.023C53.5234 157.112 53.0234 157.156 52.4453 157.156C51.6224 157.156 50.9036 156.99 50.2891 156.656C49.6797 156.318 49.2057 155.823 48.8672 155.172C48.5286 154.521 48.3594 153.724 48.3594 152.781C48.3594 151.859 48.513 151.062 48.8203 150.391C49.1328 149.714 49.5703 149.193 50.1328 148.828C50.7005 148.464 51.3672 148.281 52.1328 148.281ZM52.1172 149.344C51.4245 149.344 50.8724 149.57 50.4609 150.023C50.0495 150.477 49.8047 151.109 49.7266 151.922H54.2578C54.2526 151.411 54.1719 150.964 54.0156 150.578C53.8646 150.188 53.6328 149.885 53.3203 149.672C53.0078 149.453 52.6068 149.344 52.1172 149.344ZM61.25 157.156C60.4792 157.156 59.7995 156.997 59.2109 156.68C58.6224 156.362 58.1641 155.878 57.8359 155.227C57.5078 154.576 57.3438 153.755 57.3438 152.766C57.3438 151.729 57.5156 150.883 57.8594 150.227C58.2083 149.565 58.6875 149.076 59.2969 148.758C59.9062 148.44 60.599 148.281 61.375 148.281C61.8021 148.281 62.2135 148.326 62.6094 148.414C63.0104 148.497 63.3385 148.604 63.5938 148.734L63.2031 149.82C62.9427 149.716 62.6406 149.622 62.2969 149.539C61.9583 149.456 61.6406 149.414 61.3438 149.414C60.75 149.414 60.2552 149.542 59.8594 149.797C59.4688 150.052 59.1745 150.427 58.9766 150.922C58.7839 151.417 58.6875 152.026 58.6875 152.75C58.6875 153.443 58.7812 154.034 58.9688 154.523C59.1615 155.013 59.4453 155.388 59.8203 155.648C60.2005 155.904 60.6745 156.031 61.2422 156.031C61.6953 156.031 62.1042 155.984 62.4688 155.891C62.8333 155.792 63.1641 155.677 63.4609 155.547V156.703C63.1745 156.849 62.8542 156.961 62.5 157.039C62.151 157.117 61.7344 157.156 61.25 157.156ZM68.2578 156.094C68.4714 156.094 68.6901 156.076 68.9141 156.039C69.138 156.003 69.3203 155.958 69.4609 155.906V156.914C69.3099 156.982 69.099 157.039 68.8281 157.086C68.5625 157.133 68.3021 157.156 68.0469 157.156C67.5938 157.156 67.1823 157.078 66.8125 156.922C66.4427 156.76 66.1458 156.49 65.9219 156.109C65.7031 155.729 65.5938 155.203 65.5938 154.531V149.453H64.375V148.82L65.6016 148.312L66.1172 146.453H66.8984V148.438H69.4062V149.453H66.8984V154.492C66.8984 155.029 67.0208 155.43 67.2656 155.695C67.5156 155.961 67.8464 156.094 68.2578 156.094ZM72.4922 148.438V157H71.1953V148.438H72.4922ZM71.8594 145.234C72.0729 145.234 72.2552 145.305 72.4062 145.445C72.5625 145.581 72.6406 145.794 72.6406 146.086C72.6406 146.372 72.5625 146.586 72.4062 146.727C72.2552 146.867 72.0729 146.938 71.8594 146.938C71.6354 146.938 71.4479 146.867 71.2969 146.727C71.151 146.586 71.0781 146.372 71.0781 146.086C71.0781 145.794 71.151 145.581 71.2969 145.445C71.4479 145.305 71.6354 145.234 71.8594 145.234ZM77.125 157L73.875 148.438H75.2656L77.1484 153.617C77.2786 153.971 77.4115 154.362 77.5469 154.789C77.6823 155.216 77.776 155.56 77.8281 155.82H77.8828C77.9453 155.56 78.0495 155.216 78.1953 154.789C78.3411 154.357 78.474 153.966 78.5938 153.617L80.4766 148.438H81.8672L78.6094 157H77.125ZM86.5391 148.281C87.2682 148.281 87.8932 148.443 88.4141 148.766C88.9349 149.089 89.3333 149.542 89.6094 150.125C89.8854 150.703 90.0234 151.38 90.0234 152.156V152.961H84.1094C84.125 153.966 84.375 154.732 84.8594 155.258C85.3438 155.784 86.026 156.047 86.9062 156.047C87.4479 156.047 87.9271 155.997 88.3438 155.898C88.7604 155.799 89.1927 155.654 89.6406 155.461V156.602C89.2083 156.794 88.7786 156.935 88.3516 157.023C87.9297 157.112 87.4297 157.156 86.8516 157.156C86.0286 157.156 85.3099 156.99 84.6953 156.656C84.0859 156.318 83.612 155.823 83.2734 155.172C82.9349 154.521 82.7656 153.724 82.7656 152.781C82.7656 151.859 82.9193 151.062 83.2266 150.391C83.5391 149.714 83.9766 149.193 84.5391 148.828C85.1068 148.464 85.7734 148.281 86.5391 148.281ZM86.5234 149.344C85.8307 149.344 85.2786 149.57 84.8672 150.023C84.4557 150.477 84.2109 151.109 84.1328 151.922H88.6641C88.6589 151.411 88.5781 150.964 88.4219 150.578C88.2708 150.188 88.0391 149.885 87.7266 149.672C87.4141 149.453 87.013 149.344 86.5234 149.344ZM97.7656 154.656C97.7656 155.203 97.6276 155.664 97.3516 156.039C97.0807 156.409 96.6901 156.688 96.1797 156.875C95.6745 157.062 95.0703 157.156 94.3672 157.156C93.7682 157.156 93.25 157.109 92.8125 157.016C92.375 156.922 91.9922 156.789 91.6641 156.617V155.422C92.013 155.594 92.4297 155.75 92.9141 155.891C93.3984 156.031 93.8932 156.102 94.3984 156.102C95.138 156.102 95.6745 155.982 96.0078 155.742C96.3411 155.503 96.5078 155.177 96.5078 154.766C96.5078 154.531 96.4401 154.326 96.3047 154.148C96.1745 153.966 95.9531 153.792 95.6406 153.625C95.3281 153.453 94.8958 153.266 94.3438 153.062C93.7969 152.854 93.3229 152.648 92.9219 152.445C92.526 152.237 92.2188 151.984 92 151.688C91.7865 151.391 91.6797 151.005 91.6797 150.531C91.6797 149.807 91.9714 149.253 92.5547 148.867C93.1432 148.477 93.9141 148.281 94.8672 148.281C95.3828 148.281 95.8646 148.333 96.3125 148.438C96.7656 148.536 97.1875 148.672 97.5781 148.844L97.1406 149.883C96.7865 149.732 96.4089 149.604 96.0078 149.5C95.6068 149.396 95.1979 149.344 94.7812 149.344C94.1823 149.344 93.7214 149.443 93.3984 149.641C93.0807 149.839 92.9219 150.109 92.9219 150.453C92.9219 150.719 92.9948 150.938 93.1406 151.109C93.2917 151.281 93.5312 151.443 93.8594 151.594C94.1875 151.745 94.6198 151.922 95.1562 152.125C95.6927 152.323 96.1562 152.529 96.5469 152.742C96.9375 152.951 97.237 153.206 97.4453 153.508C97.6589 153.805 97.7656 154.188 97.7656 154.656ZM106.773 156.094C106.987 156.094 107.206 156.076 107.43 156.039C107.654 156.003 107.836 155.958 107.977 155.906V156.914C107.826 156.982 107.615 157.039 107.344 157.086C107.078 157.133 106.818 157.156 106.562 157.156C106.109 157.156 105.698 157.078 105.328 156.922C104.958 156.76 104.661 156.49 104.438 156.109C104.219 155.729 104.109 155.203 104.109 154.531V149.453H102.891V148.82L104.117 148.312L104.633 146.453H105.414V148.438H107.922V149.453H105.414V154.492C105.414 155.029 105.536 155.43 105.781 155.695C106.031 155.961 106.362 156.094 106.773 156.094ZM117.094 152.703C117.094 153.406 117.003 154.034 116.82 154.586C116.638 155.138 116.375 155.604 116.031 155.984C115.688 156.365 115.271 156.656 114.781 156.859C114.297 157.057 113.747 157.156 113.133 157.156C112.56 157.156 112.034 157.057 111.555 156.859C111.081 156.656 110.669 156.365 110.32 155.984C109.977 155.604 109.708 155.138 109.516 154.586C109.328 154.034 109.234 153.406 109.234 152.703C109.234 151.766 109.393 150.969 109.711 150.312C110.029 149.651 110.482 149.148 111.07 148.805C111.664 148.456 112.37 148.281 113.188 148.281C113.969 148.281 114.651 148.456 115.234 148.805C115.823 149.154 116.279 149.659 116.602 150.32C116.93 150.977 117.094 151.771 117.094 152.703ZM110.578 152.703C110.578 153.391 110.669 153.987 110.852 154.492C111.034 154.997 111.315 155.388 111.695 155.664C112.076 155.94 112.565 156.078 113.164 156.078C113.758 156.078 114.245 155.94 114.625 155.664C115.01 155.388 115.294 154.997 115.477 154.492C115.659 153.987 115.75 153.391 115.75 152.703C115.75 152.021 115.659 151.432 115.477 150.938C115.294 150.438 115.013 150.052 114.633 149.781C114.253 149.51 113.76 149.375 113.156 149.375C112.266 149.375 111.612 149.669 111.195 150.258C110.784 150.846 110.578 151.661 110.578 152.703ZM124.789 144.844V147.883C124.789 148.232 124.779 148.57 124.758 148.898C124.742 149.227 124.729 149.482 124.719 149.664H124.789C125.023 149.279 125.362 148.953 125.805 148.688C126.247 148.422 126.812 148.289 127.5 148.289C128.573 148.289 129.427 148.661 130.062 149.406C130.703 150.146 131.023 151.247 131.023 152.711C131.023 153.674 130.878 154.487 130.586 155.148C130.294 155.81 129.883 156.31 129.352 156.648C128.82 156.987 128.193 157.156 127.469 157.156C126.792 157.156 126.234 157.031 125.797 156.781C125.365 156.526 125.031 156.216 124.797 155.852H124.695L124.43 157H123.492V144.844H124.789ZM127.289 149.375C126.669 149.375 126.177 149.497 125.812 149.742C125.448 149.982 125.185 150.346 125.023 150.836C124.867 151.32 124.789 151.935 124.789 152.68V152.75C124.789 153.828 124.969 154.654 125.328 155.227C125.688 155.794 126.341 156.078 127.289 156.078C128.086 156.078 128.682 155.786 129.078 155.203C129.479 154.62 129.68 153.786 129.68 152.703C129.68 151.599 129.482 150.768 129.086 150.211C128.695 149.654 128.096 149.375 127.289 149.375ZM140.359 148.438V157H139.297L139.109 155.797H139.039C138.862 156.094 138.633 156.344 138.352 156.547C138.07 156.75 137.753 156.901 137.398 157C137.049 157.104 136.677 157.156 136.281 157.156C135.604 157.156 135.036 157.047 134.578 156.828C134.12 156.609 133.773 156.271 133.539 155.812C133.31 155.354 133.195 154.766 133.195 154.047V148.438H134.508V153.953C134.508 154.667 134.669 155.201 134.992 155.555C135.315 155.904 135.807 156.078 136.469 156.078C137.104 156.078 137.609 155.958 137.984 155.719C138.365 155.479 138.638 155.128 138.805 154.664C138.971 154.195 139.055 153.622 139.055 152.945V148.438H140.359ZM144.398 148.438V157H143.102V148.438H144.398ZM143.766 145.234C143.979 145.234 144.161 145.305 144.312 145.445C144.469 145.581 144.547 145.794 144.547 146.086C144.547 146.372 144.469 146.586 144.312 146.727C144.161 146.867 143.979 146.938 143.766 146.938C143.542 146.938 143.354 146.867 143.203 146.727C143.057 146.586 142.984 146.372 142.984 146.086C142.984 145.794 143.057 145.581 143.203 145.445C143.354 145.305 143.542 145.234 143.766 145.234ZM148.453 157H147.148V144.844H148.453V157ZM154.242 157.156C153.159 157.156 152.299 156.786 151.664 156.047C151.034 155.307 150.719 154.208 150.719 152.75C150.719 151.276 151.042 150.164 151.688 149.414C152.333 148.659 153.193 148.281 154.266 148.281C154.719 148.281 155.115 148.341 155.453 148.461C155.792 148.581 156.083 148.742 156.328 148.945C156.573 149.143 156.779 149.37 156.945 149.625H157.039C157.018 149.464 156.997 149.242 156.977 148.961C156.956 148.68 156.945 148.451 156.945 148.273V144.844H158.242V157H157.195L157 155.781H156.945C156.784 156.036 156.578 156.268 156.328 156.477C156.083 156.685 155.789 156.852 155.445 156.977C155.107 157.096 154.706 157.156 154.242 157.156ZM154.445 156.078C155.362 156.078 156.01 155.818 156.391 155.297C156.771 154.776 156.961 154.003 156.961 152.977V152.742C156.961 151.654 156.779 150.818 156.414 150.234C156.055 149.651 155.398 149.359 154.445 149.359C153.648 149.359 153.052 149.667 152.656 150.281C152.26 150.891 152.062 151.724 152.062 152.781C152.062 153.833 152.258 154.646 152.648 155.219C153.044 155.792 153.643 156.078 154.445 156.078ZM168.352 148.297C169.372 148.297 170.13 148.526 170.625 148.984C171.12 149.443 171.367 150.174 171.367 151.18V157H170.422L170.172 155.734H170.109C169.87 156.047 169.62 156.31 169.359 156.523C169.099 156.732 168.797 156.891 168.453 157C168.115 157.104 167.698 157.156 167.203 157.156C166.682 157.156 166.219 157.065 165.812 156.883C165.411 156.701 165.094 156.424 164.859 156.055C164.63 155.685 164.516 155.216 164.516 154.648C164.516 153.794 164.854 153.138 165.531 152.68C166.208 152.221 167.24 151.971 168.625 151.93L170.102 151.867V151.344C170.102 150.604 169.943 150.086 169.625 149.789C169.307 149.492 168.859 149.344 168.281 149.344C167.833 149.344 167.406 149.409 167 149.539C166.594 149.669 166.208 149.823 165.844 150L165.445 149.016C165.831 148.818 166.273 148.648 166.773 148.508C167.273 148.367 167.799 148.297 168.352 148.297ZM170.086 152.781L168.781 152.836C167.714 152.878 166.961 153.052 166.523 153.359C166.086 153.667 165.867 154.102 165.867 154.664C165.867 155.154 166.016 155.516 166.312 155.75C166.609 155.984 167.003 156.102 167.492 156.102C168.253 156.102 168.875 155.891 169.359 155.469C169.844 155.047 170.086 154.414 170.086 153.57V152.781ZM181.625 157.156C180.854 157.156 180.174 156.997 179.586 156.68C178.997 156.362 178.539 155.878 178.211 155.227C177.883 154.576 177.719 153.755 177.719 152.766C177.719 151.729 177.891 150.883 178.234 150.227C178.583 149.565 179.062 149.076 179.672 148.758C180.281 148.44 180.974 148.281 181.75 148.281C182.177 148.281 182.589 148.326 182.984 148.414C183.385 148.497 183.714 148.604 183.969 148.734L183.578 149.82C183.318 149.716 183.016 149.622 182.672 149.539C182.333 149.456 182.016 149.414 181.719 149.414C181.125 149.414 180.63 149.542 180.234 149.797C179.844 150.052 179.549 150.427 179.352 150.922C179.159 151.417 179.062 152.026 179.062 152.75C179.062 153.443 179.156 154.034 179.344 154.523C179.536 155.013 179.82 155.388 180.195 155.648C180.576 155.904 181.049 156.031 181.617 156.031C182.07 156.031 182.479 155.984 182.844 155.891C183.208 155.792 183.539 155.677 183.836 155.547V156.703C183.549 156.849 183.229 156.961 182.875 157.039C182.526 157.117 182.109 157.156 181.625 157.156ZM189.07 148.297C190.091 148.297 190.849 148.526 191.344 148.984C191.839 149.443 192.086 150.174 192.086 151.18V157H191.141L190.891 155.734H190.828C190.589 156.047 190.339 156.31 190.078 156.523C189.818 156.732 189.516 156.891 189.172 157C188.833 157.104 188.417 157.156 187.922 157.156C187.401 157.156 186.938 157.065 186.531 156.883C186.13 156.701 185.812 156.424 185.578 156.055C185.349 155.685 185.234 155.216 185.234 154.648C185.234 153.794 185.573 153.138 186.25 152.68C186.927 152.221 187.958 151.971 189.344 151.93L190.82 151.867V151.344C190.82 150.604 190.661 150.086 190.344 149.789C190.026 149.492 189.578 149.344 189 149.344C188.552 149.344 188.125 149.409 187.719 149.539C187.312 149.669 186.927 149.823 186.562 150L186.164 149.016C186.549 148.818 186.992 148.648 187.492 148.508C187.992 148.367 188.518 148.297 189.07 148.297ZM190.805 152.781L189.5 152.836C188.432 152.878 187.68 153.052 187.242 153.359C186.805 153.667 186.586 154.102 186.586 154.664C186.586 155.154 186.734 155.516 187.031 155.75C187.328 155.984 187.721 156.102 188.211 156.102C188.971 156.102 189.594 155.891 190.078 155.469C190.562 155.047 190.805 154.414 190.805 153.57V152.781ZM204.055 148.281C204.997 148.281 205.708 148.529 206.188 149.023C206.667 149.513 206.906 150.302 206.906 151.391V157H205.625V151.453C205.625 150.76 205.474 150.242 205.172 149.898C204.875 149.549 204.432 149.375 203.844 149.375C203.016 149.375 202.414 149.615 202.039 150.094C201.664 150.573 201.477 151.279 201.477 152.211V157H200.188V151.453C200.188 150.99 200.12 150.604 199.984 150.297C199.854 149.99 199.656 149.76 199.391 149.609C199.13 149.453 198.799 149.375 198.398 149.375C197.831 149.375 197.375 149.492 197.031 149.727C196.688 149.961 196.438 150.31 196.281 150.773C196.13 151.232 196.055 151.797 196.055 152.469V157H194.758V148.438H195.805L196 149.648H196.07C196.242 149.352 196.458 149.102 196.719 148.898C196.979 148.695 197.271 148.542 197.594 148.438C197.917 148.333 198.26 148.281 198.625 148.281C199.276 148.281 199.82 148.404 200.258 148.648C200.701 148.888 201.021 149.255 201.219 149.75H201.289C201.57 149.255 201.956 148.888 202.445 148.648C202.935 148.404 203.471 148.281 204.055 148.281ZM213.594 148.281C214.661 148.281 215.513 148.648 216.148 149.383C216.784 150.117 217.102 151.221 217.102 152.695C217.102 153.669 216.956 154.487 216.664 155.148C216.372 155.81 215.961 156.31 215.43 156.648C214.904 156.987 214.281 157.156 213.562 157.156C213.109 157.156 212.711 157.096 212.367 156.977C212.023 156.857 211.729 156.695 211.484 156.492C211.24 156.289 211.036 156.068 210.875 155.828H210.781C210.797 156.031 210.815 156.276 210.836 156.562C210.862 156.849 210.875 157.099 210.875 157.312V160.828H209.57V148.438H210.641L210.812 149.703H210.875C211.042 149.443 211.245 149.206 211.484 148.992C211.724 148.773 212.016 148.602 212.359 148.477C212.708 148.346 213.12 148.281 213.594 148.281ZM213.367 149.375C212.773 149.375 212.294 149.49 211.93 149.719C211.57 149.948 211.307 150.292 211.141 150.75C210.974 151.203 210.885 151.773 210.875 152.461V152.711C210.875 153.435 210.953 154.047 211.109 154.547C211.271 155.047 211.534 155.427 211.898 155.688C212.268 155.948 212.763 156.078 213.383 156.078C213.914 156.078 214.357 155.935 214.711 155.648C215.065 155.362 215.328 154.964 215.5 154.453C215.677 153.938 215.766 153.346 215.766 152.68C215.766 151.669 215.568 150.867 215.172 150.273C214.781 149.674 214.18 149.375 213.367 149.375ZM222.57 148.297C223.591 148.297 224.349 148.526 224.844 148.984C225.339 149.443 225.586 150.174 225.586 151.18V157H224.641L224.391 155.734H224.328C224.089 156.047 223.839 156.31 223.578 156.523C223.318 156.732 223.016 156.891 222.672 157C222.333 157.104 221.917 157.156 221.422 157.156C220.901 157.156 220.438 157.065 220.031 156.883C219.63 156.701 219.312 156.424 219.078 156.055C218.849 155.685 218.734 155.216 218.734 154.648C218.734 153.794 219.073 153.138 219.75 152.68C220.427 152.221 221.458 151.971 222.844 151.93L224.32 151.867V151.344C224.32 150.604 224.161 150.086 223.844 149.789C223.526 149.492 223.078 149.344 222.5 149.344C222.052 149.344 221.625 149.409 221.219 149.539C220.812 149.669 220.427 149.823 220.062 150L219.664 149.016C220.049 148.818 220.492 148.648 220.992 148.508C221.492 148.367 222.018 148.297 222.57 148.297ZM224.305 152.781L223 152.836C221.932 152.878 221.18 153.052 220.742 153.359C220.305 153.667 220.086 154.102 220.086 154.664C220.086 155.154 220.234 155.516 220.531 155.75C220.828 155.984 221.221 156.102 221.711 156.102C222.471 156.102 223.094 155.891 223.578 155.469C224.062 155.047 224.305 154.414 224.305 153.57V152.781ZM229.555 148.438V157H228.258V148.438H229.555ZM228.922 145.234C229.135 145.234 229.318 145.305 229.469 145.445C229.625 145.581 229.703 145.794 229.703 146.086C229.703 146.372 229.625 146.586 229.469 146.727C229.318 146.867 229.135 146.938 228.922 146.938C228.698 146.938 228.51 146.867 228.359 146.727C228.214 146.586 228.141 146.372 228.141 146.086C228.141 145.794 228.214 145.581 228.359 145.445C228.51 145.305 228.698 145.234 228.922 145.234ZM234.695 160.844C233.57 160.844 232.703 160.633 232.094 160.211C231.484 159.794 231.18 159.208 231.18 158.453C231.18 157.917 231.349 157.458 231.688 157.078C232.031 156.698 232.505 156.445 233.109 156.32C232.885 156.216 232.693 156.06 232.531 155.852C232.375 155.643 232.297 155.404 232.297 155.133C232.297 154.82 232.383 154.547 232.555 154.312C232.732 154.073 233 153.844 233.359 153.625C232.911 153.443 232.547 153.135 232.266 152.703C231.99 152.266 231.852 151.758 231.852 151.18C231.852 150.565 231.979 150.042 232.234 149.609C232.49 149.172 232.859 148.839 233.344 148.609C233.828 148.38 234.414 148.266 235.102 148.266C235.253 148.266 235.404 148.273 235.555 148.289C235.711 148.299 235.859 148.318 236 148.344C236.141 148.365 236.263 148.391 236.367 148.422H239.305V149.258L237.727 149.453C237.883 149.656 238.013 149.901 238.117 150.188C238.221 150.474 238.273 150.792 238.273 151.141C238.273 151.995 237.984 152.674 237.406 153.18C236.828 153.68 236.034 153.93 235.023 153.93C234.784 153.93 234.539 153.909 234.289 153.867C234.034 154.008 233.839 154.164 233.703 154.336C233.573 154.508 233.508 154.706 233.508 154.93C233.508 155.096 233.557 155.229 233.656 155.328C233.76 155.427 233.909 155.5 234.102 155.547C234.294 155.589 234.526 155.609 234.797 155.609H236.305C237.237 155.609 237.951 155.805 238.445 156.195C238.945 156.586 239.195 157.156 239.195 157.906C239.195 158.854 238.81 159.581 238.039 160.086C237.268 160.591 236.154 160.844 234.695 160.844ZM234.734 159.828C235.443 159.828 236.029 159.755 236.492 159.609C236.961 159.469 237.31 159.263 237.539 158.992C237.773 158.727 237.891 158.409 237.891 158.039C237.891 157.695 237.812 157.435 237.656 157.258C237.5 157.086 237.271 156.971 236.969 156.914C236.667 156.852 236.297 156.82 235.859 156.82H234.375C233.99 156.82 233.654 156.88 233.367 157C233.081 157.12 232.859 157.297 232.703 157.531C232.552 157.766 232.477 158.057 232.477 158.406C232.477 158.87 232.672 159.221 233.062 159.461C233.453 159.706 234.01 159.828 234.734 159.828ZM235.07 152.984C235.69 152.984 236.156 152.828 236.469 152.516C236.781 152.203 236.938 151.747 236.938 151.148C236.938 150.508 236.779 150.029 236.461 149.711C236.143 149.388 235.674 149.227 235.055 149.227C234.461 149.227 234.003 149.393 233.68 149.727C233.362 150.055 233.203 150.536 233.203 151.172C233.203 151.755 233.365 152.203 233.688 152.516C234.01 152.828 234.471 152.984 235.07 152.984ZM245.047 148.281C246.062 148.281 246.831 148.531 247.352 149.031C247.872 149.526 248.133 150.323 248.133 151.422V157H246.852V151.508C246.852 150.794 246.688 150.26 246.359 149.906C246.036 149.552 245.539 149.375 244.867 149.375C243.919 149.375 243.253 149.643 242.867 150.18C242.482 150.716 242.289 151.495 242.289 152.516V157H240.992V148.438H242.039L242.234 149.672H242.305C242.487 149.37 242.719 149.117 243 148.914C243.281 148.706 243.596 148.549 243.945 148.445C244.294 148.336 244.661 148.281 245.047 148.281ZM256.258 144.844V147.883C256.258 148.232 256.247 148.57 256.227 148.898C256.211 149.227 256.198 149.482 256.188 149.664H256.258C256.492 149.279 256.831 148.953 257.273 148.688C257.716 148.422 258.281 148.289 258.969 148.289C260.042 148.289 260.896 148.661 261.531 149.406C262.172 150.146 262.492 151.247 262.492 152.711C262.492 153.674 262.346 154.487 262.055 155.148C261.763 155.81 261.352 156.31 260.82 156.648C260.289 156.987 259.661 157.156 258.938 157.156C258.26 157.156 257.703 157.031 257.266 156.781C256.833 156.526 256.5 156.216 256.266 155.852H256.164L255.898 157H254.961V144.844H256.258ZM258.758 149.375C258.138 149.375 257.646 149.497 257.281 149.742C256.917 149.982 256.654 150.346 256.492 150.836C256.336 151.32 256.258 151.935 256.258 152.68V152.75C256.258 153.828 256.438 154.654 256.797 155.227C257.156 155.794 257.81 156.078 258.758 156.078C259.555 156.078 260.151 155.786 260.547 155.203C260.948 154.62 261.148 153.786 261.148 152.703C261.148 151.599 260.951 150.768 260.555 150.211C260.164 149.654 259.565 149.375 258.758 149.375ZM266.062 157H264.758V144.844H266.062V157ZM275.875 148.438V157H274.812L274.625 155.797H274.555C274.378 156.094 274.148 156.344 273.867 156.547C273.586 156.75 273.268 156.901 272.914 157C272.565 157.104 272.193 157.156 271.797 157.156C271.12 157.156 270.552 157.047 270.094 156.828C269.635 156.609 269.289 156.271 269.055 155.812C268.826 155.354 268.711 154.766 268.711 154.047V148.438H270.023V153.953C270.023 154.667 270.185 155.201 270.508 155.555C270.831 155.904 271.323 156.078 271.984 156.078C272.62 156.078 273.125 155.958 273.5 155.719C273.88 155.479 274.154 155.128 274.32 154.664C274.487 154.195 274.57 153.622 274.57 152.945V148.438H275.875ZM281.914 148.281C282.643 148.281 283.268 148.443 283.789 148.766C284.31 149.089 284.708 149.542 284.984 150.125C285.26 150.703 285.398 151.38 285.398 152.156V152.961H279.484C279.5 153.966 279.75 154.732 280.234 155.258C280.719 155.784 281.401 156.047 282.281 156.047C282.823 156.047 283.302 155.997 283.719 155.898C284.135 155.799 284.568 155.654 285.016 155.461V156.602C284.583 156.794 284.154 156.935 283.727 157.023C283.305 157.112 282.805 157.156 282.227 157.156C281.404 157.156 280.685 156.99 280.07 156.656C279.461 156.318 278.987 155.823 278.648 155.172C278.31 154.521 278.141 153.724 278.141 152.781C278.141 151.859 278.294 151.062 278.602 150.391C278.914 149.714 279.352 149.193 279.914 148.828C280.482 148.464 281.148 148.281 281.914 148.281ZM281.898 149.344C281.206 149.344 280.654 149.57 280.242 150.023C279.831 150.477 279.586 151.109 279.508 151.922H284.039C284.034 151.411 283.953 150.964 283.797 150.578C283.646 150.188 283.414 149.885 283.102 149.672C282.789 149.453 282.388 149.344 281.898 149.344ZM291.625 148.281C292.693 148.281 293.544 148.648 294.18 149.383C294.815 150.117 295.133 151.221 295.133 152.695C295.133 153.669 294.987 154.487 294.695 155.148C294.404 155.81 293.992 156.31 293.461 156.648C292.935 156.987 292.312 157.156 291.594 157.156C291.141 157.156 290.742 157.096 290.398 156.977C290.055 156.857 289.76 156.695 289.516 156.492C289.271 156.289 289.068 156.068 288.906 155.828H288.812C288.828 156.031 288.846 156.276 288.867 156.562C288.893 156.849 288.906 157.099 288.906 157.312V160.828H287.602V148.438H288.672L288.844 149.703H288.906C289.073 149.443 289.276 149.206 289.516 148.992C289.755 148.773 290.047 148.602 290.391 148.477C290.74 148.346 291.151 148.281 291.625 148.281ZM291.398 149.375C290.805 149.375 290.326 149.49 289.961 149.719C289.602 149.948 289.339 150.292 289.172 150.75C289.005 151.203 288.917 151.773 288.906 152.461V152.711C288.906 153.435 288.984 154.047 289.141 154.547C289.302 155.047 289.565 155.427 289.93 155.688C290.299 155.948 290.794 156.078 291.414 156.078C291.945 156.078 292.388 155.935 292.742 155.648C293.096 155.362 293.359 154.964 293.531 154.453C293.708 153.938 293.797 153.346 293.797 152.68C293.797 151.669 293.599 150.867 293.203 150.273C292.812 149.674 292.211 149.375 291.398 149.375ZM301.289 148.281C301.461 148.281 301.641 148.292 301.828 148.312C302.016 148.328 302.182 148.352 302.328 148.383L302.164 149.586C302.023 149.549 301.867 149.521 301.695 149.5C301.523 149.479 301.362 149.469 301.211 149.469C300.867 149.469 300.542 149.539 300.234 149.68C299.932 149.815 299.667 150.013 299.438 150.273C299.208 150.529 299.029 150.839 298.898 151.203C298.768 151.562 298.703 151.964 298.703 152.406V157H297.398V148.438H298.477L298.617 150.016H298.672C298.849 149.698 299.062 149.409 299.312 149.148C299.562 148.883 299.852 148.672 300.18 148.516C300.513 148.359 300.883 148.281 301.289 148.281ZM305.242 148.438V157H303.945V148.438H305.242ZM304.609 145.234C304.823 145.234 305.005 145.305 305.156 145.445C305.312 145.581 305.391 145.794 305.391 146.086C305.391 146.372 305.312 146.586 305.156 146.727C305.005 146.867 304.823 146.938 304.609 146.938C304.385 146.938 304.198 146.867 304.047 146.727C303.901 146.586 303.828 146.372 303.828 146.086C303.828 145.794 303.901 145.581 304.047 145.445C304.198 145.305 304.385 145.234 304.609 145.234ZM312.047 148.281C313.062 148.281 313.831 148.531 314.352 149.031C314.872 149.526 315.133 150.323 315.133 151.422V157H313.852V151.508C313.852 150.794 313.688 150.26 313.359 149.906C313.036 149.552 312.539 149.375 311.867 149.375C310.919 149.375 310.253 149.643 309.867 150.18C309.482 150.716 309.289 151.495 309.289 152.516V157H307.992V148.438H309.039L309.234 149.672H309.305C309.487 149.37 309.719 149.117 310 148.914C310.281 148.706 310.596 148.549 310.945 148.445C311.294 148.336 311.661 148.281 312.047 148.281ZM320.57 156.094C320.784 156.094 321.003 156.076 321.227 156.039C321.451 156.003 321.633 155.958 321.773 155.906V156.914C321.622 156.982 321.411 157.039 321.141 157.086C320.875 157.133 320.615 157.156 320.359 157.156C319.906 157.156 319.495 157.078 319.125 156.922C318.755 156.76 318.458 156.49 318.234 156.109C318.016 155.729 317.906 155.203 317.906 154.531V149.453H316.688V148.82L317.914 148.312L318.43 146.453H319.211V148.438H321.719V149.453H319.211V154.492C319.211 155.029 319.333 155.43 319.578 155.695C319.828 155.961 320.159 156.094 320.57 156.094Z" fill="#4C4648"/>
</svg>
