<svg width="375" height="186" viewBox="0 0 375 186" fill="none" xmlns="http://www.w3.org/2000/svg">
<path d="M316.08 29.512L314.544 29.056L320.688 9.952L322.248 10.408L316.08 29.512ZM328.997 28.216C327.717 28.216 326.629 27.888 325.733 27.232C324.853 26.56 324.189 25.576 323.741 24.28C323.293 22.984 323.069 21.4 323.069 19.528C323.069 17.64 323.293 16.056 323.741 14.776C324.189 13.48 324.853 12.504 325.733 11.848C326.629 11.192 327.717 10.864 328.997 10.864C330.293 10.864 331.381 11.192 332.261 11.848C333.141 12.504 333.805 13.472 334.253 14.752C334.701 16.032 334.925 17.616 334.925 19.504C334.925 21.392 334.701 22.984 334.253 24.28C333.805 25.576 333.141 26.56 332.261 27.232C331.381 27.888 330.293 28.216 328.997 28.216ZM328.997 26.512C330.341 26.512 331.333 25.944 331.973 24.808C332.629 23.672 332.957 21.904 332.957 19.504C332.957 17.104 332.637 15.352 331.997 14.248C331.357 13.128 330.357 12.568 328.997 12.568C327.669 12.568 326.677 13.128 326.021 14.248C325.365 15.368 325.037 17.12 325.037 19.504C325.037 21.904 325.357 23.672 325.997 24.808C326.653 25.944 327.653 26.512 328.997 26.512ZM338.348 28V26.512L344.132 20.272C344.676 19.68 345.116 19.128 345.452 18.616C345.788 18.088 346.036 17.576 346.196 17.08C346.356 16.584 346.436 16.08 346.436 15.568C346.436 14.608 346.14 13.88 345.548 13.384C344.972 12.872 344.124 12.616 343.004 12.616C342.14 12.616 341.332 12.776 340.58 13.096C339.844 13.4 339.14 13.88 338.468 14.536L337.724 13C338.348 12.36 339.14 11.848 340.1 11.464C341.076 11.064 342.1 10.864 343.172 10.864C344.308 10.864 345.268 11.04 346.052 11.392C346.836 11.744 347.428 12.264 347.828 12.952C348.228 13.624 348.428 14.448 348.428 15.424C348.428 15.936 348.364 16.44 348.236 16.936C348.124 17.416 347.94 17.904 347.684 18.4C347.444 18.88 347.132 19.376 346.748 19.888C346.38 20.4 345.932 20.928 345.404 21.472L340.316 26.872V26.32H349.124V28H338.348Z" fill="#4C4648"/>
<path d="M275.555 0C282.182 0 287.555 5.37258 287.555 12V29C287.555 35.6274 292.927 41 299.555 41H363C369.627 41 375 46.3726 375 53V174C375 180.627 369.627 186 363 186H12C5.37259 186 0 180.627 0 174V12C0 5.37258 5.37258 0 12 0H275.555Z" fill="#E9E5E3"/>
<path d="M33.72 44.24C31.96 44.24 30.448 43.888 29.184 43.184C27.936 42.464 26.976 41.456 26.304 40.16C25.632 38.848 25.296 37.304 25.296 35.528C25.296 33.752 25.632 32.216 26.304 30.92C26.976 29.624 27.936 28.624 29.184 27.92C30.448 27.2 31.96 26.84 33.72 26.84C34.856 26.84 35.928 27.016 36.936 27.368C37.96 27.72 38.8 28.224 39.456 28.88L38.448 31.328C37.728 30.72 36.992 30.28 36.24 30.008C35.488 29.72 34.68 29.576 33.816 29.576C32.104 29.576 30.8 30.096 29.904 31.136C29.008 32.16 28.56 33.624 28.56 35.528C28.56 37.432 29.008 38.904 29.904 39.944C30.8 40.984 32.104 41.504 33.816 41.504C34.68 41.504 35.488 41.368 36.24 41.096C36.992 40.808 37.728 40.36 38.448 39.752L39.456 42.2C38.8 42.84 37.96 43.344 36.936 43.712C35.928 44.064 34.856 44.24 33.72 44.24ZM41.8491 44V32.264H44.7771V35.096H44.5371C44.7611 34.136 45.2011 33.408 45.8571 32.912C46.5131 32.4 47.3851 32.104 48.4731 32.024L49.3851 31.952L49.5771 34.496L47.8491 34.664C46.8731 34.76 46.1371 35.064 45.6411 35.576C45.1451 36.072 44.8971 36.776 44.8971 37.688V44H41.8491ZM56.844 44.24C55.516 44.24 54.372 43.992 53.412 43.496C52.452 43 51.708 42.296 51.18 41.384C50.668 40.472 50.412 39.392 50.412 38.144C50.412 36.928 50.66 35.864 51.156 34.952C51.668 34.04 52.364 33.328 53.244 32.816C54.14 32.288 55.156 32.024 56.292 32.024C57.412 32.024 58.372 32.264 59.172 32.744C59.972 33.224 60.588 33.904 61.02 34.784C61.468 35.664 61.692 36.712 61.692 37.928V38.816H52.836V37.088H59.58L59.196 37.448C59.196 36.36 58.956 35.528 58.476 34.952C57.996 34.36 57.308 34.064 56.412 34.064C55.74 34.064 55.164 34.224 54.684 34.544C54.22 34.848 53.86 35.288 53.604 35.864C53.364 36.424 53.244 37.096 53.244 37.88V38.048C53.244 38.928 53.38 39.656 53.652 40.232C53.924 40.808 54.332 41.24 54.876 41.528C55.42 41.816 56.092 41.96 56.892 41.96C57.548 41.96 58.204 41.864 58.86 41.672C59.516 41.464 60.116 41.144 60.66 40.712L61.5 42.728C60.94 43.192 60.236 43.56 59.388 43.832C58.54 44.104 57.692 44.24 56.844 44.24ZM67.9318 44.24C67.0838 44.24 66.3238 44.08 65.6518 43.76C64.9958 43.424 64.4758 42.976 64.0918 42.416C63.7238 41.856 63.5398 41.224 63.5398 40.52C63.5398 39.656 63.7638 38.976 64.2118 38.48C64.6598 37.968 65.3878 37.6 66.3958 37.376C67.4038 37.152 68.7558 37.04 70.4518 37.04H71.6518V38.768H70.4758C69.7238 38.768 69.0918 38.8 68.5798 38.864C68.0678 38.912 67.6518 39 67.3318 39.128C67.0278 39.24 66.8038 39.4 66.6598 39.608C66.5318 39.816 66.4678 40.072 66.4678 40.376C66.4678 40.904 66.6518 41.336 67.0198 41.672C67.3878 42.008 67.8998 42.176 68.5558 42.176C69.0838 42.176 69.5478 42.056 69.9478 41.816C70.3638 41.56 70.6918 41.216 70.9318 40.784C71.1718 40.352 71.2918 39.856 71.2918 39.296V36.536C71.2918 35.736 71.1158 35.16 70.7638 34.808C70.4118 34.456 69.8198 34.28 68.9878 34.28C68.3318 34.28 67.6598 34.384 66.9718 34.592C66.2838 34.784 65.5878 35.088 64.8838 35.504L64.0198 33.464C64.4358 33.176 64.9238 32.928 65.4838 32.72C66.0598 32.496 66.6598 32.328 67.2838 32.216C67.9238 32.088 68.5238 32.024 69.0838 32.024C70.2358 32.024 71.1798 32.2 71.9158 32.552C72.6678 32.904 73.2278 33.44 73.5958 34.16C73.9638 34.864 74.1478 35.776 74.1478 36.896V44H71.3398V41.504H71.5318C71.4198 42.064 71.1958 42.552 70.8598 42.968C70.5398 43.368 70.1318 43.68 69.6358 43.904C69.1398 44.128 68.5718 44.24 67.9318 44.24ZM82.5688 44.24C81.0008 44.24 79.8328 43.848 79.0648 43.064C78.2968 42.28 77.9128 41.136 77.9128 39.632V34.52H75.6568V32.264H77.9128V28.76H80.9128V32.264H84.4648V34.52H80.9128V39.464C80.9128 40.232 81.0808 40.808 81.4168 41.192C81.7528 41.576 82.2968 41.768 83.0488 41.768C83.2728 41.768 83.5048 41.744 83.7448 41.696C83.9848 41.632 84.2328 41.568 84.4888 41.504L84.9448 43.712C84.6568 43.872 84.2888 44 83.8408 44.096C83.4088 44.192 82.9848 44.24 82.5688 44.24ZM86.2118 29.744V26.816H89.5718V29.744H86.2118ZM86.4038 44V32.264H89.4038V44H86.4038ZM95.9769 44L90.8889 32.264H94.0809L97.7049 41.36H96.9849L100.729 32.264H103.729L98.5689 44H95.9769ZM110.727 44.24C109.399 44.24 108.255 43.992 107.295 43.496C106.335 43 105.591 42.296 105.063 41.384C104.551 40.472 104.295 39.392 104.295 38.144C104.295 36.928 104.543 35.864 105.039 34.952C105.551 34.04 106.247 33.328 107.127 32.816C108.023 32.288 109.039 32.024 110.175 32.024C111.295 32.024 112.255 32.264 113.055 32.744C113.855 33.224 114.471 33.904 114.903 34.784C115.351 35.664 115.575 36.712 115.575 37.928V38.816H106.719V37.088H113.463L113.079 37.448C113.079 36.36 112.839 35.528 112.359 34.952C111.879 34.36 111.191 34.064 110.295 34.064C109.623 34.064 109.047 34.224 108.567 34.544C108.103 34.848 107.743 35.288 107.487 35.864C107.247 36.424 107.127 37.096 107.127 37.88V38.048C107.127 38.928 107.263 39.656 107.535 40.232C107.807 40.808 108.215 41.24 108.759 41.528C109.303 41.816 109.975 41.96 110.775 41.96C111.431 41.96 112.087 41.864 112.743 41.672C113.399 41.464 113.999 41.144 114.543 40.712L115.383 42.728C114.823 43.192 114.119 43.56 113.271 43.832C112.423 44.104 111.575 44.24 110.727 44.24ZM31.224 68.24C30.024 68.24 28.984 68.048 28.104 67.664C27.224 67.28 26.544 66.752 26.064 66.08C25.6 65.392 25.368 64.592 25.368 63.68C25.368 62.96 25.504 62.304 25.776 61.712C26.048 61.104 26.44 60.552 26.952 60.056C27.464 59.544 28.08 59.08 28.8 58.664L29.616 58.184L29.184 58.832C28.48 58.128 27.968 57.464 27.648 56.84C27.344 56.2 27.192 55.544 27.192 54.872C27.192 54.072 27.384 53.368 27.768 52.76C28.152 52.152 28.696 51.68 29.4 51.344C30.104 51.008 30.928 50.84 31.872 50.84C32.752 50.84 33.504 50.992 34.128 51.296C34.768 51.6 35.264 52.032 35.616 52.592C35.968 53.136 36.144 53.784 36.144 54.536C36.144 55.144 36.024 55.72 35.784 56.264C35.544 56.808 35.16 57.328 34.632 57.824C34.104 58.32 33.4 58.808 32.52 59.288L32.544 58.568L36.624 62.912H35.976C36.36 62.256 36.664 61.488 36.888 60.608C37.112 59.728 37.248 58.808 37.296 57.848H39.792C39.744 59.16 39.536 60.4 39.168 61.568C38.816 62.736 38.328 63.768 37.704 64.664L37.68 63.92L41.736 68H38.088L36.024 65.816H36.72C36.016 66.568 35.184 67.16 34.224 67.592C33.28 68.024 32.28 68.24 31.224 68.24ZM31.392 65.864C32.16 65.864 32.84 65.72 33.432 65.432C34.04 65.128 34.592 64.68 35.088 64.088L35.016 64.856L30.072 59.744L31.32 59.864L30.624 60.272C30.08 60.592 29.64 60.912 29.304 61.232C28.968 61.536 28.72 61.872 28.56 62.24C28.416 62.592 28.344 62.992 28.344 63.44C28.344 64.192 28.608 64.784 29.136 65.216C29.664 65.648 30.416 65.864 31.392 65.864ZM31.872 52.976C31.296 52.976 30.832 53.144 30.48 53.48C30.128 53.8 29.952 54.24 29.952 54.8C29.952 55.104 30 55.392 30.096 55.664C30.192 55.92 30.36 56.208 30.6 56.528C30.84 56.832 31.168 57.208 31.584 57.656L30.912 57.608C31.584 57.224 32.112 56.88 32.496 56.576C32.896 56.272 33.184 55.968 33.36 55.664C33.536 55.36 33.624 55.024 33.624 54.656C33.624 54.112 33.464 53.696 33.144 53.408C32.824 53.12 32.4 52.976 31.872 52.976ZM55.5628 68.24C54.6828 68.24 53.8348 68.16 53.0188 68C52.2188 67.856 51.4748 67.64 50.7868 67.352C50.1148 67.064 49.5148 66.72 48.9868 66.32L49.9228 63.896C50.4508 64.264 51.0028 64.584 51.5788 64.856C52.1708 65.112 52.7948 65.312 53.4508 65.456C54.1228 65.584 54.8268 65.648 55.5628 65.648C56.8268 65.648 57.7468 65.44 58.3228 65.024C58.8988 64.592 59.1868 64.04 59.1868 63.368C59.1868 63 59.0988 62.688 58.9228 62.432C58.7468 62.16 58.4588 61.928 58.0588 61.736C57.6588 61.544 57.1308 61.384 56.4748 61.256L53.8348 60.704C52.3148 60.384 51.1788 59.848 50.4268 59.096C49.6908 58.328 49.3228 57.32 49.3228 56.072C49.3228 55.016 49.6028 54.096 50.1628 53.312C50.7228 52.528 51.4988 51.92 52.4908 51.488C53.4828 51.056 54.6268 50.84 55.9228 50.84C56.6908 50.84 57.4268 50.92 58.1308 51.08C58.8508 51.224 59.5068 51.448 60.0988 51.752C60.7068 52.04 61.2348 52.392 61.6828 52.808L60.7468 55.112C60.0748 54.552 59.3388 54.136 58.5388 53.864C57.7388 53.576 56.8588 53.432 55.8988 53.432C55.1628 53.432 54.5308 53.536 54.0028 53.744C53.4748 53.952 53.0668 54.248 52.7788 54.632C52.5068 55 52.3708 55.44 52.3708 55.952C52.3708 56.528 52.5628 56.992 52.9468 57.344C53.3308 57.68 53.9868 57.944 54.9148 58.136L57.5308 58.688C59.1148 59.024 60.2908 59.552 61.0588 60.272C61.8428 60.992 62.2348 61.952 62.2348 63.152C62.2348 64.16 61.9628 65.048 61.4188 65.816C60.8748 66.584 60.0988 67.184 59.0908 67.616C58.0988 68.032 56.9228 68.24 55.5628 68.24ZM70.3674 68.24C69.0394 68.24 67.8954 67.992 66.9354 67.496C65.9754 67 65.2314 66.296 64.7034 65.384C64.1914 64.472 63.9354 63.392 63.9354 62.144C63.9354 60.928 64.1834 59.864 64.6794 58.952C65.1914 58.04 65.8874 57.328 66.7674 56.816C67.6634 56.288 68.6794 56.024 69.8154 56.024C70.9354 56.024 71.8954 56.264 72.6954 56.744C73.4954 57.224 74.1114 57.904 74.5434 58.784C74.9914 59.664 75.2154 60.712 75.2154 61.928V62.816H66.3594V61.088H73.1034L72.7194 61.448C72.7194 60.36 72.4794 59.528 71.9994 58.952C71.5194 58.36 70.8314 58.064 69.9354 58.064C69.2634 58.064 68.6874 58.224 68.2074 58.544C67.7434 58.848 67.3834 59.288 67.1274 59.864C66.8874 60.424 66.7674 61.096 66.7674 61.88V62.048C66.7674 62.928 66.9034 63.656 67.1754 64.232C67.4474 64.808 67.8554 65.24 68.3994 65.528C68.9434 65.816 69.6154 65.96 70.4154 65.96C71.0714 65.96 71.7274 65.864 72.3834 65.672C73.0394 65.464 73.6394 65.144 74.1834 64.712L75.0234 66.728C74.4634 67.192 73.7594 67.56 72.9114 67.832C72.0634 68.104 71.2154 68.24 70.3674 68.24ZM82.9204 68.24C81.3524 68.24 80.1844 67.848 79.4164 67.064C78.6484 66.28 78.2644 65.136 78.2644 63.632V58.52H76.0084V56.264H78.2644V52.76H81.2644V56.264H84.8164V58.52H81.2644V63.464C81.2644 64.232 81.4324 64.808 81.7684 65.192C82.1044 65.576 82.6484 65.768 83.4004 65.768C83.6244 65.768 83.8564 65.744 84.0964 65.696C84.3364 65.632 84.5844 65.568 84.8404 65.504L85.2964 67.712C85.0084 67.872 84.6404 68 84.1924 68.096C83.7604 68.192 83.3364 68.24 82.9204 68.24ZM91.0033 68.24C90.0273 68.24 89.2193 68.064 88.5793 67.712C87.9393 67.344 87.4593 66.8 87.1393 66.08C86.8353 65.36 86.6833 64.464 86.6833 63.392V56.264H89.6833V63.44C89.6833 63.984 89.7553 64.44 89.8993 64.808C90.0593 65.176 90.2913 65.448 90.5953 65.624C90.9153 65.8 91.3153 65.888 91.7953 65.888C92.3393 65.888 92.8113 65.768 93.2113 65.528C93.6273 65.272 93.9473 64.92 94.1713 64.472C94.4113 64.008 94.5313 63.472 94.5313 62.864V56.264H97.5313V68H94.6033V65.552H94.9393C94.6033 66.416 94.0913 67.08 93.4033 67.544C92.7313 68.008 91.9313 68.24 91.0033 68.24ZM100.654 72.32V56.264H103.582V58.736H103.342C103.582 57.92 104.07 57.264 104.806 56.768C105.558 56.272 106.43 56.024 107.422 56.024C108.446 56.024 109.342 56.272 110.11 56.768C110.894 57.264 111.502 57.968 111.934 58.88C112.366 59.776 112.582 60.856 112.582 62.12C112.582 63.368 112.366 64.456 111.934 65.384C111.502 66.296 110.902 67 110.134 67.496C109.366 67.992 108.462 68.24 107.422 68.24C106.446 68.24 105.59 68 104.854 67.52C104.118 67.024 103.622 66.384 103.366 65.6H103.654V72.32H100.654ZM106.582 65.96C107.478 65.96 108.198 65.64 108.742 65C109.286 64.344 109.558 63.384 109.558 62.12C109.558 60.84 109.286 59.888 108.742 59.264C108.198 58.624 107.478 58.304 106.582 58.304C105.686 58.304 104.966 58.624 104.422 59.264C103.878 59.888 103.606 60.84 103.606 62.12C103.606 63.384 103.878 64.344 104.422 65C104.966 65.64 105.686 65.96 106.582 65.96Z" fill="#282828"/>
<path d="M30.4453 124.586C29.8151 124.586 29.2474 124.695 28.7422 124.914C28.2422 125.128 27.8151 125.44 27.4609 125.852C27.112 126.258 26.8438 126.75 26.6562 127.328C26.4688 127.906 26.375 128.557 26.375 129.281C26.375 130.24 26.5234 131.073 26.8203 131.781C27.1224 132.484 27.5703 133.029 28.1641 133.414C28.763 133.799 29.5104 133.992 30.4062 133.992C30.9167 133.992 31.3958 133.951 31.8438 133.867C32.2969 133.779 32.737 133.669 33.1641 133.539V134.695C32.7474 134.852 32.3099 134.966 31.8516 135.039C31.3932 135.117 30.849 135.156 30.2188 135.156C29.0573 135.156 28.0859 134.917 27.3047 134.438C26.5286 133.953 25.9453 133.271 25.5547 132.391C25.1693 131.51 24.9766 130.471 24.9766 129.273C24.9766 128.409 25.0964 127.62 25.3359 126.906C25.5807 126.188 25.9349 125.568 26.3984 125.047C26.8672 124.526 27.4401 124.125 28.1172 123.844C28.7995 123.557 29.5807 123.414 30.4609 123.414C31.0391 123.414 31.5964 123.471 32.1328 123.586C32.6693 123.701 33.1536 123.865 33.5859 124.078L33.0547 125.203C32.6901 125.036 32.2891 124.893 31.8516 124.773C31.4193 124.648 30.9505 124.586 30.4453 124.586ZM42.8281 130.703C42.8281 131.406 42.737 132.034 42.5547 132.586C42.3724 133.138 42.1094 133.604 41.7656 133.984C41.4219 134.365 41.0052 134.656 40.5156 134.859C40.0312 135.057 39.4818 135.156 38.8672 135.156C38.2943 135.156 37.7682 135.057 37.2891 134.859C36.8151 134.656 36.4036 134.365 36.0547 133.984C35.7109 133.604 35.4427 133.138 35.25 132.586C35.0625 132.034 34.9688 131.406 34.9688 130.703C34.9688 129.766 35.1276 128.969 35.4453 128.312C35.763 127.651 36.2161 127.148 36.8047 126.805C37.3984 126.456 38.1042 126.281 38.9219 126.281C39.7031 126.281 40.3854 126.456 40.9688 126.805C41.5573 127.154 42.013 127.659 42.3359 128.32C42.6641 128.977 42.8281 129.771 42.8281 130.703ZM36.3125 130.703C36.3125 131.391 36.4036 131.987 36.5859 132.492C36.7682 132.997 37.0495 133.388 37.4297 133.664C37.8099 133.94 38.2995 134.078 38.8984 134.078C39.4922 134.078 39.9792 133.94 40.3594 133.664C40.7448 133.388 41.0286 132.997 41.2109 132.492C41.3932 131.987 41.4844 131.391 41.4844 130.703C41.4844 130.021 41.3932 129.432 41.2109 128.938C41.0286 128.438 40.7474 128.052 40.3672 127.781C39.987 127.51 39.4948 127.375 38.8906 127.375C38 127.375 37.3464 127.669 36.9297 128.258C36.5182 128.846 36.3125 129.661 36.3125 130.703ZM49.125 126.281C50.1406 126.281 50.9089 126.531 51.4297 127.031C51.9505 127.526 52.2109 128.323 52.2109 129.422V135H50.9297V129.508C50.9297 128.794 50.7656 128.26 50.4375 127.906C50.1146 127.552 49.6172 127.375 48.9453 127.375C47.9974 127.375 47.3307 127.643 46.9453 128.18C46.5599 128.716 46.3672 129.495 46.3672 130.516V135H45.0703V126.438H46.1172L46.3125 127.672H46.3828C46.5651 127.37 46.7969 127.117 47.0781 126.914C47.3594 126.706 47.6745 126.549 48.0234 126.445C48.3724 126.336 48.7396 126.281 49.125 126.281ZM57.6484 134.094C57.862 134.094 58.0807 134.076 58.3047 134.039C58.5286 134.003 58.7109 133.958 58.8516 133.906V134.914C58.7005 134.982 58.4896 135.039 58.2188 135.086C57.9531 135.133 57.6927 135.156 57.4375 135.156C56.9844 135.156 56.5729 135.078 56.2031 134.922C55.8333 134.76 55.5365 134.49 55.3125 134.109C55.0938 133.729 54.9844 133.203 54.9844 132.531V127.453H53.7656V126.82L54.9922 126.312L55.5078 124.453H56.2891V126.438H58.7969V127.453H56.2891V132.492C56.2891 133.029 56.4115 133.43 56.6562 133.695C56.9062 133.961 57.237 134.094 57.6484 134.094ZM63.8828 126.281C64.612 126.281 65.237 126.443 65.7578 126.766C66.2786 127.089 66.6771 127.542 66.9531 128.125C67.2292 128.703 67.3672 129.38 67.3672 130.156V130.961H61.4531C61.4688 131.966 61.7188 132.732 62.2031 133.258C62.6875 133.784 63.3698 134.047 64.25 134.047C64.7917 134.047 65.2708 133.997 65.6875 133.898C66.1042 133.799 66.5365 133.654 66.9844 133.461V134.602C66.5521 134.794 66.1224 134.935 65.6953 135.023C65.2734 135.112 64.7734 135.156 64.1953 135.156C63.3724 135.156 62.6536 134.99 62.0391 134.656C61.4297 134.318 60.9557 133.823 60.6172 133.172C60.2786 132.521 60.1094 131.724 60.1094 130.781C60.1094 129.859 60.263 129.062 60.5703 128.391C60.8828 127.714 61.3203 127.193 61.8828 126.828C62.4505 126.464 63.1172 126.281 63.8828 126.281ZM63.8672 127.344C63.1745 127.344 62.6224 127.57 62.2109 128.023C61.7995 128.477 61.5547 129.109 61.4766 129.922H66.0078C66.0026 129.411 65.9219 128.964 65.7656 128.578C65.6146 128.188 65.3828 127.885 65.0703 127.672C64.7578 127.453 64.3568 127.344 63.8672 127.344ZM73.625 126.281C74.6406 126.281 75.4089 126.531 75.9297 127.031C76.4505 127.526 76.7109 128.323 76.7109 129.422V135H75.4297V129.508C75.4297 128.794 75.2656 128.26 74.9375 127.906C74.6146 127.552 74.1172 127.375 73.4453 127.375C72.4974 127.375 71.8307 127.643 71.4453 128.18C71.0599 128.716 70.8672 129.495 70.8672 130.516V135H69.5703V126.438H70.6172L70.8125 127.672H70.8828C71.0651 127.37 71.2969 127.117 71.5781 126.914C71.8594 126.706 72.1745 126.549 72.5234 126.445C72.8724 126.336 73.2396 126.281 73.625 126.281ZM82.1484 134.094C82.362 134.094 82.5807 134.076 82.8047 134.039C83.0286 134.003 83.2109 133.958 83.3516 133.906V134.914C83.2005 134.982 82.9896 135.039 82.7188 135.086C82.4531 135.133 82.1927 135.156 81.9375 135.156C81.4844 135.156 81.0729 135.078 80.7031 134.922C80.3333 134.76 80.0365 134.49 79.8125 134.109C79.5938 133.729 79.4844 133.203 79.4844 132.531V127.453H78.2656V126.82L79.4922 126.312L80.0078 124.453H80.7891V126.438H83.2969V127.453H80.7891V132.492C80.7891 133.029 80.9115 133.43 81.1562 133.695C81.4062 133.961 81.737 134.094 82.1484 134.094ZM86.5703 133.141L86.6719 133.32C86.5781 133.701 86.4583 134.107 86.3125 134.539C86.1719 134.971 86.0156 135.404 85.8438 135.836C85.6771 136.273 85.5078 136.682 85.3359 137.062H84.3672C84.4766 136.646 84.5833 136.206 84.6875 135.742C84.7917 135.284 84.8854 134.831 84.9688 134.383C85.0573 133.93 85.1276 133.516 85.1797 133.141H86.5703ZM96.4297 135.156C95.3464 135.156 94.487 134.786 93.8516 134.047C93.2214 133.307 92.9062 132.208 92.9062 130.75C92.9062 129.276 93.2292 128.164 93.875 127.414C94.5208 126.659 95.3802 126.281 96.4531 126.281C96.9062 126.281 97.3021 126.341 97.6406 126.461C97.9792 126.581 98.2708 126.742 98.5156 126.945C98.7604 127.143 98.9661 127.37 99.1328 127.625H99.2266C99.2057 127.464 99.1849 127.242 99.1641 126.961C99.1432 126.68 99.1328 126.451 99.1328 126.273V122.844H100.43V135H99.3828L99.1875 133.781H99.1328C98.9714 134.036 98.7656 134.268 98.5156 134.477C98.2708 134.685 97.9766 134.852 97.6328 134.977C97.2943 135.096 96.8932 135.156 96.4297 135.156ZM96.6328 134.078C97.5495 134.078 98.1979 133.818 98.5781 133.297C98.9583 132.776 99.1484 132.003 99.1484 130.977V130.742C99.1484 129.654 98.9661 128.818 98.6016 128.234C98.2422 127.651 97.5859 127.359 96.6328 127.359C95.8359 127.359 95.2396 127.667 94.8438 128.281C94.4479 128.891 94.25 129.724 94.25 130.781C94.25 131.833 94.4453 132.646 94.8359 133.219C95.2318 133.792 95.8307 134.078 96.6328 134.078ZM106.477 126.281C107.206 126.281 107.831 126.443 108.352 126.766C108.872 127.089 109.271 127.542 109.547 128.125C109.823 128.703 109.961 129.38 109.961 130.156V130.961H104.047C104.062 131.966 104.312 132.732 104.797 133.258C105.281 133.784 105.964 134.047 106.844 134.047C107.385 134.047 107.865 133.997 108.281 133.898C108.698 133.799 109.13 133.654 109.578 133.461V134.602C109.146 134.794 108.716 134.935 108.289 135.023C107.867 135.112 107.367 135.156 106.789 135.156C105.966 135.156 105.247 134.99 104.633 134.656C104.023 134.318 103.549 133.823 103.211 133.172C102.872 132.521 102.703 131.724 102.703 130.781C102.703 129.859 102.857 129.062 103.164 128.391C103.477 127.714 103.914 127.193 104.477 126.828C105.044 126.464 105.711 126.281 106.477 126.281ZM106.461 127.344C105.768 127.344 105.216 127.57 104.805 128.023C104.393 128.477 104.148 129.109 104.07 129.922H108.602C108.596 129.411 108.516 128.964 108.359 128.578C108.208 128.188 107.977 127.885 107.664 127.672C107.352 127.453 106.951 127.344 106.461 127.344ZM117.703 132.656C117.703 133.203 117.565 133.664 117.289 134.039C117.018 134.409 116.628 134.688 116.117 134.875C115.612 135.062 115.008 135.156 114.305 135.156C113.706 135.156 113.188 135.109 112.75 135.016C112.312 134.922 111.93 134.789 111.602 134.617V133.422C111.951 133.594 112.367 133.75 112.852 133.891C113.336 134.031 113.831 134.102 114.336 134.102C115.076 134.102 115.612 133.982 115.945 133.742C116.279 133.503 116.445 133.177 116.445 132.766C116.445 132.531 116.378 132.326 116.242 132.148C116.112 131.966 115.891 131.792 115.578 131.625C115.266 131.453 114.833 131.266 114.281 131.062C113.734 130.854 113.26 130.648 112.859 130.445C112.464 130.237 112.156 129.984 111.938 129.688C111.724 129.391 111.617 129.005 111.617 128.531C111.617 127.807 111.909 127.253 112.492 126.867C113.081 126.477 113.852 126.281 114.805 126.281C115.32 126.281 115.802 126.333 116.25 126.438C116.703 126.536 117.125 126.672 117.516 126.844L117.078 127.883C116.724 127.732 116.346 127.604 115.945 127.5C115.544 127.396 115.135 127.344 114.719 127.344C114.12 127.344 113.659 127.443 113.336 127.641C113.018 127.839 112.859 128.109 112.859 128.453C112.859 128.719 112.932 128.938 113.078 129.109C113.229 129.281 113.469 129.443 113.797 129.594C114.125 129.745 114.557 129.922 115.094 130.125C115.63 130.323 116.094 130.529 116.484 130.742C116.875 130.951 117.174 131.206 117.383 131.508C117.596 131.805 117.703 132.188 117.703 132.656ZM121.086 126.438V135H119.789V126.438H121.086ZM120.453 123.234C120.667 123.234 120.849 123.305 121 123.445C121.156 123.581 121.234 123.794 121.234 124.086C121.234 124.372 121.156 124.586 121 124.727C120.849 124.867 120.667 124.938 120.453 124.938C120.229 124.938 120.042 124.867 119.891 124.727C119.745 124.586 119.672 124.372 119.672 124.086C119.672 123.794 119.745 123.581 119.891 123.445C120.042 123.305 120.229 123.234 120.453 123.234ZM126.227 138.844C125.102 138.844 124.234 138.633 123.625 138.211C123.016 137.794 122.711 137.208 122.711 136.453C122.711 135.917 122.88 135.458 123.219 135.078C123.562 134.698 124.036 134.445 124.641 134.32C124.417 134.216 124.224 134.06 124.062 133.852C123.906 133.643 123.828 133.404 123.828 133.133C123.828 132.82 123.914 132.547 124.086 132.312C124.263 132.073 124.531 131.844 124.891 131.625C124.443 131.443 124.078 131.135 123.797 130.703C123.521 130.266 123.383 129.758 123.383 129.18C123.383 128.565 123.51 128.042 123.766 127.609C124.021 127.172 124.391 126.839 124.875 126.609C125.359 126.38 125.945 126.266 126.633 126.266C126.784 126.266 126.935 126.273 127.086 126.289C127.242 126.299 127.391 126.318 127.531 126.344C127.672 126.365 127.794 126.391 127.898 126.422H130.836V127.258L129.258 127.453C129.414 127.656 129.544 127.901 129.648 128.188C129.753 128.474 129.805 128.792 129.805 129.141C129.805 129.995 129.516 130.674 128.938 131.18C128.359 131.68 127.565 131.93 126.555 131.93C126.315 131.93 126.07 131.909 125.82 131.867C125.565 132.008 125.37 132.164 125.234 132.336C125.104 132.508 125.039 132.706 125.039 132.93C125.039 133.096 125.089 133.229 125.188 133.328C125.292 133.427 125.44 133.5 125.633 133.547C125.826 133.589 126.057 133.609 126.328 133.609H127.836C128.768 133.609 129.482 133.805 129.977 134.195C130.477 134.586 130.727 135.156 130.727 135.906C130.727 136.854 130.341 137.581 129.57 138.086C128.799 138.591 127.685 138.844 126.227 138.844ZM126.266 137.828C126.974 137.828 127.56 137.755 128.023 137.609C128.492 137.469 128.841 137.263 129.07 136.992C129.305 136.727 129.422 136.409 129.422 136.039C129.422 135.695 129.344 135.435 129.188 135.258C129.031 135.086 128.802 134.971 128.5 134.914C128.198 134.852 127.828 134.82 127.391 134.82H125.906C125.521 134.82 125.185 134.88 124.898 135C124.612 135.12 124.391 135.297 124.234 135.531C124.083 135.766 124.008 136.057 124.008 136.406C124.008 136.87 124.203 137.221 124.594 137.461C124.984 137.706 125.542 137.828 126.266 137.828ZM126.602 130.984C127.221 130.984 127.688 130.828 128 130.516C128.312 130.203 128.469 129.747 128.469 129.148C128.469 128.508 128.31 128.029 127.992 127.711C127.674 127.388 127.206 127.227 126.586 127.227C125.992 127.227 125.534 127.393 125.211 127.727C124.893 128.055 124.734 128.536 124.734 129.172C124.734 129.755 124.896 130.203 125.219 130.516C125.542 130.828 126.003 130.984 126.602 130.984ZM136.578 126.281C137.594 126.281 138.362 126.531 138.883 127.031C139.404 127.526 139.664 128.323 139.664 129.422V135H138.383V129.508C138.383 128.794 138.219 128.26 137.891 127.906C137.568 127.552 137.07 127.375 136.398 127.375C135.451 127.375 134.784 127.643 134.398 128.18C134.013 128.716 133.82 129.495 133.82 130.516V135H132.523V126.438H133.57L133.766 127.672H133.836C134.018 127.37 134.25 127.117 134.531 126.914C134.812 126.706 135.128 126.549 135.477 126.445C135.826 126.336 136.193 126.281 136.578 126.281ZM149.992 123.398C150.555 123.398 151.039 123.497 151.445 123.695C151.857 123.888 152.172 124.167 152.391 124.531C152.615 124.896 152.727 125.336 152.727 125.852C152.727 126.529 152.505 127.102 152.062 127.57C151.625 128.039 151.068 128.466 150.391 128.852L153.562 131.93C153.849 131.596 154.083 131.211 154.266 130.773C154.448 130.331 154.602 129.852 154.727 129.336H156.039C155.872 130.023 155.656 130.656 155.391 131.234C155.13 131.812 154.802 132.32 154.406 132.758L156.695 135H154.938L153.523 133.617C153.19 133.924 152.831 134.195 152.445 134.43C152.065 134.659 151.641 134.839 151.172 134.969C150.708 135.094 150.177 135.156 149.578 135.156C148.849 135.156 148.216 135.036 147.68 134.797C147.143 134.557 146.727 134.206 146.43 133.742C146.138 133.279 145.992 132.711 145.992 132.039C145.992 131.487 146.094 131.013 146.297 130.617C146.5 130.221 146.789 129.87 147.164 129.562C147.539 129.255 147.987 128.956 148.508 128.664C148.263 128.393 148.031 128.12 147.812 127.844C147.594 127.562 147.417 127.263 147.281 126.945C147.146 126.622 147.078 126.268 147.078 125.883C147.078 125.362 147.195 124.917 147.43 124.547C147.669 124.177 148.005 123.893 148.438 123.695C148.875 123.497 149.393 123.398 149.992 123.398ZM149.289 129.484C148.883 129.719 148.534 129.951 148.242 130.18C147.956 130.409 147.734 130.667 147.578 130.953C147.427 131.24 147.352 131.586 147.352 131.992C147.352 132.602 147.557 133.091 147.969 133.461C148.38 133.826 148.93 134.008 149.617 134.008C150.326 134.008 150.927 133.891 151.422 133.656C151.922 133.422 152.346 133.138 152.695 132.805L149.289 129.484ZM149.945 124.469C149.471 124.469 149.086 124.594 148.789 124.844C148.497 125.089 148.352 125.432 148.352 125.875C148.352 126.271 148.458 126.635 148.672 126.969C148.885 127.302 149.19 127.672 149.586 128.078C150.237 127.719 150.708 127.372 151 127.039C151.297 126.701 151.445 126.305 151.445 125.852C151.445 125.44 151.307 125.107 151.031 124.852C150.76 124.596 150.398 124.469 149.945 124.469ZM163.602 126.438V135H162.305V126.438H163.602ZM162.969 123.234C163.182 123.234 163.365 123.305 163.516 123.445C163.672 123.581 163.75 123.794 163.75 124.086C163.75 124.372 163.672 124.586 163.516 124.727C163.365 124.867 163.182 124.938 162.969 124.938C162.745 124.938 162.557 124.867 162.406 124.727C162.26 124.586 162.188 124.372 162.188 124.086C162.188 123.794 162.26 123.581 162.406 123.445C162.557 123.305 162.745 123.234 162.969 123.234ZM170.406 126.281C171.422 126.281 172.19 126.531 172.711 127.031C173.232 127.526 173.492 128.323 173.492 129.422V135H172.211V129.508C172.211 128.794 172.047 128.26 171.719 127.906C171.396 127.552 170.898 127.375 170.227 127.375C169.279 127.375 168.612 127.643 168.227 128.18C167.841 128.716 167.648 129.495 167.648 130.516V135H166.352V126.438H167.398L167.594 127.672H167.664C167.846 127.37 168.078 127.117 168.359 126.914C168.641 126.706 168.956 126.549 169.305 126.445C169.654 126.336 170.021 126.281 170.406 126.281ZM178.93 134.094C179.143 134.094 179.362 134.076 179.586 134.039C179.81 134.003 179.992 133.958 180.133 133.906V134.914C179.982 134.982 179.771 135.039 179.5 135.086C179.234 135.133 178.974 135.156 178.719 135.156C178.266 135.156 177.854 135.078 177.484 134.922C177.115 134.76 176.818 134.49 176.594 134.109C176.375 133.729 176.266 133.203 176.266 132.531V127.453H175.047V126.82L176.273 126.312L176.789 124.453H177.57V126.438H180.078V127.453H177.57V132.492C177.57 133.029 177.693 133.43 177.938 133.695C178.188 133.961 178.518 134.094 178.93 134.094ZM185.164 126.281C185.893 126.281 186.518 126.443 187.039 126.766C187.56 127.089 187.958 127.542 188.234 128.125C188.51 128.703 188.648 129.38 188.648 130.156V130.961H182.734C182.75 131.966 183 132.732 183.484 133.258C183.969 133.784 184.651 134.047 185.531 134.047C186.073 134.047 186.552 133.997 186.969 133.898C187.385 133.799 187.818 133.654 188.266 133.461V134.602C187.833 134.794 187.404 134.935 186.977 135.023C186.555 135.112 186.055 135.156 185.477 135.156C184.654 135.156 183.935 134.99 183.32 134.656C182.711 134.318 182.237 133.823 181.898 133.172C181.56 132.521 181.391 131.724 181.391 130.781C181.391 129.859 181.544 129.062 181.852 128.391C182.164 127.714 182.602 127.193 183.164 126.828C183.732 126.464 184.398 126.281 185.164 126.281ZM185.148 127.344C184.456 127.344 183.904 127.57 183.492 128.023C183.081 128.477 182.836 129.109 182.758 129.922H187.289C187.284 129.411 187.203 128.964 187.047 128.578C186.896 128.188 186.664 127.885 186.352 127.672C186.039 127.453 185.638 127.344 185.148 127.344ZM193.242 138.844C192.117 138.844 191.25 138.633 190.641 138.211C190.031 137.794 189.727 137.208 189.727 136.453C189.727 135.917 189.896 135.458 190.234 135.078C190.578 134.698 191.052 134.445 191.656 134.32C191.432 134.216 191.24 134.06 191.078 133.852C190.922 133.643 190.844 133.404 190.844 133.133C190.844 132.82 190.93 132.547 191.102 132.312C191.279 132.073 191.547 131.844 191.906 131.625C191.458 131.443 191.094 131.135 190.812 130.703C190.536 130.266 190.398 129.758 190.398 129.18C190.398 128.565 190.526 128.042 190.781 127.609C191.036 127.172 191.406 126.839 191.891 126.609C192.375 126.38 192.961 126.266 193.648 126.266C193.799 126.266 193.951 126.273 194.102 126.289C194.258 126.299 194.406 126.318 194.547 126.344C194.688 126.365 194.81 126.391 194.914 126.422H197.852V127.258L196.273 127.453C196.43 127.656 196.56 127.901 196.664 128.188C196.768 128.474 196.82 128.792 196.82 129.141C196.82 129.995 196.531 130.674 195.953 131.18C195.375 131.68 194.581 131.93 193.57 131.93C193.331 131.93 193.086 131.909 192.836 131.867C192.581 132.008 192.385 132.164 192.25 132.336C192.12 132.508 192.055 132.706 192.055 132.93C192.055 133.096 192.104 133.229 192.203 133.328C192.307 133.427 192.456 133.5 192.648 133.547C192.841 133.589 193.073 133.609 193.344 133.609H194.852C195.784 133.609 196.497 133.805 196.992 134.195C197.492 134.586 197.742 135.156 197.742 135.906C197.742 136.854 197.357 137.581 196.586 138.086C195.815 138.591 194.701 138.844 193.242 138.844ZM193.281 137.828C193.99 137.828 194.576 137.755 195.039 137.609C195.508 137.469 195.857 137.263 196.086 136.992C196.32 136.727 196.438 136.409 196.438 136.039C196.438 135.695 196.359 135.435 196.203 135.258C196.047 135.086 195.818 134.971 195.516 134.914C195.214 134.852 194.844 134.82 194.406 134.82H192.922C192.536 134.82 192.201 134.88 191.914 135C191.628 135.12 191.406 135.297 191.25 135.531C191.099 135.766 191.023 136.057 191.023 136.406C191.023 136.87 191.219 137.221 191.609 137.461C192 137.706 192.557 137.828 193.281 137.828ZM193.617 130.984C194.237 130.984 194.703 130.828 195.016 130.516C195.328 130.203 195.484 129.747 195.484 129.148C195.484 128.508 195.326 128.029 195.008 127.711C194.69 127.388 194.221 127.227 193.602 127.227C193.008 127.227 192.549 127.393 192.227 127.727C191.909 128.055 191.75 128.536 191.75 129.172C191.75 129.755 191.911 130.203 192.234 130.516C192.557 130.828 193.018 130.984 193.617 130.984ZM203.43 126.281C203.602 126.281 203.781 126.292 203.969 126.312C204.156 126.328 204.323 126.352 204.469 126.383L204.305 127.586C204.164 127.549 204.008 127.521 203.836 127.5C203.664 127.479 203.503 127.469 203.352 127.469C203.008 127.469 202.682 127.539 202.375 127.68C202.073 127.815 201.807 128.013 201.578 128.273C201.349 128.529 201.169 128.839 201.039 129.203C200.909 129.562 200.844 129.964 200.844 130.406V135H199.539V126.438H200.617L200.758 128.016H200.812C200.99 127.698 201.203 127.409 201.453 127.148C201.703 126.883 201.992 126.672 202.32 126.516C202.654 126.359 203.023 126.281 203.43 126.281ZM209.289 126.297C210.31 126.297 211.068 126.526 211.562 126.984C212.057 127.443 212.305 128.174 212.305 129.18V135H211.359L211.109 133.734H211.047C210.807 134.047 210.557 134.31 210.297 134.523C210.036 134.732 209.734 134.891 209.391 135C209.052 135.104 208.635 135.156 208.141 135.156C207.62 135.156 207.156 135.065 206.75 134.883C206.349 134.701 206.031 134.424 205.797 134.055C205.568 133.685 205.453 133.216 205.453 132.648C205.453 131.794 205.792 131.138 206.469 130.68C207.146 130.221 208.177 129.971 209.562 129.93L211.039 129.867V129.344C211.039 128.604 210.88 128.086 210.562 127.789C210.245 127.492 209.797 127.344 209.219 127.344C208.771 127.344 208.344 127.409 207.938 127.539C207.531 127.669 207.146 127.823 206.781 128L206.383 127.016C206.768 126.818 207.211 126.648 207.711 126.508C208.211 126.367 208.737 126.297 209.289 126.297ZM211.023 130.781L209.719 130.836C208.651 130.878 207.898 131.052 207.461 131.359C207.023 131.667 206.805 132.102 206.805 132.664C206.805 133.154 206.953 133.516 207.25 133.75C207.547 133.984 207.94 134.102 208.43 134.102C209.19 134.102 209.812 133.891 210.297 133.469C210.781 133.047 211.023 132.414 211.023 131.57V130.781ZM217.742 134.094C217.956 134.094 218.174 134.076 218.398 134.039C218.622 134.003 218.805 133.958 218.945 133.906V134.914C218.794 134.982 218.583 135.039 218.312 135.086C218.047 135.133 217.786 135.156 217.531 135.156C217.078 135.156 216.667 135.078 216.297 134.922C215.927 134.76 215.63 134.49 215.406 134.109C215.188 133.729 215.078 133.203 215.078 132.531V127.453H213.859V126.82L215.086 126.312L215.602 124.453H216.383V126.438H218.891V127.453H216.383V132.492C216.383 133.029 216.505 133.43 216.75 133.695C217 133.961 217.331 134.094 217.742 134.094ZM221.977 126.438V135H220.68V126.438H221.977ZM221.344 123.234C221.557 123.234 221.74 123.305 221.891 123.445C222.047 123.581 222.125 123.794 222.125 124.086C222.125 124.372 222.047 124.586 221.891 124.727C221.74 124.867 221.557 124.938 221.344 124.938C221.12 124.938 220.932 124.867 220.781 124.727C220.635 124.586 220.562 124.372 220.562 124.086C220.562 123.794 220.635 123.581 220.781 123.445C220.932 123.305 221.12 123.234 221.344 123.234ZM232.109 130.703C232.109 131.406 232.018 132.034 231.836 132.586C231.654 133.138 231.391 133.604 231.047 133.984C230.703 134.365 230.286 134.656 229.797 134.859C229.312 135.057 228.763 135.156 228.148 135.156C227.576 135.156 227.049 135.057 226.57 134.859C226.096 134.656 225.685 134.365 225.336 133.984C224.992 133.604 224.724 133.138 224.531 132.586C224.344 132.034 224.25 131.406 224.25 130.703C224.25 129.766 224.409 128.969 224.727 128.312C225.044 127.651 225.497 127.148 226.086 126.805C226.68 126.456 227.385 126.281 228.203 126.281C228.984 126.281 229.667 126.456 230.25 126.805C230.839 127.154 231.294 127.659 231.617 128.32C231.945 128.977 232.109 129.771 232.109 130.703ZM225.594 130.703C225.594 131.391 225.685 131.987 225.867 132.492C226.049 132.997 226.331 133.388 226.711 133.664C227.091 133.94 227.581 134.078 228.18 134.078C228.773 134.078 229.26 133.94 229.641 133.664C230.026 133.388 230.31 132.997 230.492 132.492C230.674 131.987 230.766 131.391 230.766 130.703C230.766 130.021 230.674 129.432 230.492 128.938C230.31 128.438 230.029 128.052 229.648 127.781C229.268 127.51 228.776 127.375 228.172 127.375C227.281 127.375 226.628 127.669 226.211 128.258C225.799 128.846 225.594 129.661 225.594 130.703ZM238.406 126.281C239.422 126.281 240.19 126.531 240.711 127.031C241.232 127.526 241.492 128.323 241.492 129.422V135H240.211V129.508C240.211 128.794 240.047 128.26 239.719 127.906C239.396 127.552 238.898 127.375 238.227 127.375C237.279 127.375 236.612 127.643 236.227 128.18C235.841 128.716 235.648 129.495 235.648 130.516V135H234.352V126.438H235.398L235.594 127.672H235.664C235.846 127.37 236.078 127.117 236.359 126.914C236.641 126.706 236.956 126.549 237.305 126.445C237.654 126.336 238.021 126.281 238.406 126.281ZM247.594 131.281V130.125H262.312V131.281H247.594ZM271.773 126.281C272.503 126.281 273.128 126.443 273.648 126.766C274.169 127.089 274.568 127.542 274.844 128.125C275.12 128.703 275.258 129.38 275.258 130.156V130.961H269.344C269.359 131.966 269.609 132.732 270.094 133.258C270.578 133.784 271.26 134.047 272.141 134.047C272.682 134.047 273.161 133.997 273.578 133.898C273.995 133.799 274.427 133.654 274.875 133.461V134.602C274.443 134.794 274.013 134.935 273.586 135.023C273.164 135.112 272.664 135.156 272.086 135.156C271.263 135.156 270.544 134.99 269.93 134.656C269.32 134.318 268.846 133.823 268.508 133.172C268.169 132.521 268 131.724 268 130.781C268 129.859 268.154 129.062 268.461 128.391C268.773 127.714 269.211 127.193 269.773 126.828C270.341 126.464 271.008 126.281 271.773 126.281ZM271.758 127.344C271.065 127.344 270.513 127.57 270.102 128.023C269.69 128.477 269.445 129.109 269.367 129.922H273.898C273.893 129.411 273.812 128.964 273.656 128.578C273.505 128.188 273.273 127.885 272.961 127.672C272.648 127.453 272.247 127.344 271.758 127.344ZM279.344 135L276.094 126.438H277.484L279.367 131.617C279.497 131.971 279.63 132.362 279.766 132.789C279.901 133.216 279.995 133.56 280.047 133.82H280.102C280.164 133.56 280.268 133.216 280.414 132.789C280.56 132.357 280.693 131.966 280.812 131.617L282.695 126.438H284.086L280.828 135H279.344ZM288.758 126.281C289.487 126.281 290.112 126.443 290.633 126.766C291.154 127.089 291.552 127.542 291.828 128.125C292.104 128.703 292.242 129.38 292.242 130.156V130.961H286.328C286.344 131.966 286.594 132.732 287.078 133.258C287.562 133.784 288.245 134.047 289.125 134.047C289.667 134.047 290.146 133.997 290.562 133.898C290.979 133.799 291.411 133.654 291.859 133.461V134.602C291.427 134.794 290.997 134.935 290.57 135.023C290.148 135.112 289.648 135.156 289.07 135.156C288.247 135.156 287.529 134.99 286.914 134.656C286.305 134.318 285.831 133.823 285.492 133.172C285.154 132.521 284.984 131.724 284.984 130.781C284.984 129.859 285.138 129.062 285.445 128.391C285.758 127.714 286.195 127.193 286.758 126.828C287.326 126.464 287.992 126.281 288.758 126.281ZM288.742 127.344C288.049 127.344 287.497 127.57 287.086 128.023C286.674 128.477 286.43 129.109 286.352 129.922H290.883C290.878 129.411 290.797 128.964 290.641 128.578C290.49 128.188 290.258 127.885 289.945 127.672C289.633 127.453 289.232 127.344 288.742 127.344ZM298.336 126.281C298.508 126.281 298.688 126.292 298.875 126.312C299.062 126.328 299.229 126.352 299.375 126.383L299.211 127.586C299.07 127.549 298.914 127.521 298.742 127.5C298.57 127.479 298.409 127.469 298.258 127.469C297.914 127.469 297.589 127.539 297.281 127.68C296.979 127.815 296.714 128.013 296.484 128.273C296.255 128.529 296.076 128.839 295.945 129.203C295.815 129.562 295.75 129.964 295.75 130.406V135H294.445V126.438H295.523L295.664 128.016H295.719C295.896 127.698 296.109 127.409 296.359 127.148C296.609 126.883 296.898 126.672 297.227 126.516C297.56 126.359 297.93 126.281 298.336 126.281ZM299.641 126.438H301.031L302.922 131.406C303.031 131.698 303.133 131.979 303.227 132.25C303.32 132.516 303.404 132.771 303.477 133.016C303.549 133.26 303.607 133.497 303.648 133.727H303.703C303.776 133.466 303.88 133.125 304.016 132.703C304.151 132.276 304.297 131.841 304.453 131.398L306.242 126.438H307.641L303.914 136.258C303.716 136.784 303.484 137.242 303.219 137.633C302.958 138.023 302.641 138.323 302.266 138.531C301.891 138.745 301.438 138.852 300.906 138.852C300.661 138.852 300.445 138.836 300.258 138.805C300.07 138.779 299.909 138.747 299.773 138.711V137.672C299.888 137.698 300.026 137.721 300.188 137.742C300.354 137.763 300.526 137.773 300.703 137.773C301.026 137.773 301.305 137.711 301.539 137.586C301.779 137.466 301.984 137.289 302.156 137.055C302.328 136.82 302.477 136.542 302.602 136.219L303.07 135.016L299.641 126.438ZM311.773 134.094C311.987 134.094 312.206 134.076 312.43 134.039C312.654 134.003 312.836 133.958 312.977 133.906V134.914C312.826 134.982 312.615 135.039 312.344 135.086C312.078 135.133 311.818 135.156 311.562 135.156C311.109 135.156 310.698 135.078 310.328 134.922C309.958 134.76 309.661 134.49 309.438 134.109C309.219 133.729 309.109 133.203 309.109 132.531V127.453H307.891V126.82L309.117 126.312L309.633 124.453H310.414V126.438H312.922V127.453H310.414V132.492C310.414 133.029 310.536 133.43 310.781 133.695C311.031 133.961 311.362 134.094 311.773 134.094ZM316.008 122.844V126.477C316.008 126.685 316.003 126.896 315.992 127.109C315.982 127.318 315.964 127.51 315.938 127.688H316.023C316.201 127.385 316.424 127.133 316.695 126.93C316.971 126.721 317.284 126.565 317.633 126.461C317.982 126.352 318.352 126.297 318.742 126.297C319.43 126.297 320.003 126.406 320.461 126.625C320.924 126.844 321.271 127.182 321.5 127.641C321.734 128.099 321.852 128.693 321.852 129.422V135H320.57V129.508C320.57 128.794 320.406 128.26 320.078 127.906C319.755 127.552 319.258 127.375 318.586 127.375C317.951 127.375 317.443 127.497 317.062 127.742C316.688 127.982 316.417 128.336 316.25 128.805C316.089 129.273 316.008 129.846 316.008 130.523V135H314.711V122.844H316.008ZM325.82 126.438V135H324.523V126.438H325.82ZM325.188 123.234C325.401 123.234 325.583 123.305 325.734 123.445C325.891 123.581 325.969 123.794 325.969 124.086C325.969 124.372 325.891 124.586 325.734 124.727C325.583 124.867 325.401 124.938 325.188 124.938C324.964 124.938 324.776 124.867 324.625 124.727C324.479 124.586 324.406 124.372 324.406 124.086C324.406 123.794 324.479 123.581 324.625 123.445C324.776 123.305 324.964 123.234 325.188 123.234ZM332.625 126.281C333.641 126.281 334.409 126.531 334.93 127.031C335.451 127.526 335.711 128.323 335.711 129.422V135H334.43V129.508C334.43 128.794 334.266 128.26 333.938 127.906C333.615 127.552 333.117 127.375 332.445 127.375C331.497 127.375 330.831 127.643 330.445 128.18C330.06 128.716 329.867 129.495 329.867 130.516V135H328.57V126.438H329.617L329.812 127.672H329.883C330.065 127.37 330.297 127.117 330.578 126.914C330.859 126.706 331.174 126.549 331.523 126.445C331.872 126.336 332.24 126.281 332.625 126.281ZM340.773 138.844C339.648 138.844 338.781 138.633 338.172 138.211C337.562 137.794 337.258 137.208 337.258 136.453C337.258 135.917 337.427 135.458 337.766 135.078C338.109 134.698 338.583 134.445 339.188 134.32C338.964 134.216 338.771 134.06 338.609 133.852C338.453 133.643 338.375 133.404 338.375 133.133C338.375 132.82 338.461 132.547 338.633 132.312C338.81 132.073 339.078 131.844 339.438 131.625C338.99 131.443 338.625 131.135 338.344 130.703C338.068 130.266 337.93 129.758 337.93 129.18C337.93 128.565 338.057 128.042 338.312 127.609C338.568 127.172 338.938 126.839 339.422 126.609C339.906 126.38 340.492 126.266 341.18 126.266C341.331 126.266 341.482 126.273 341.633 126.289C341.789 126.299 341.938 126.318 342.078 126.344C342.219 126.365 342.341 126.391 342.445 126.422H345.383V127.258L343.805 127.453C343.961 127.656 344.091 127.901 344.195 128.188C344.299 128.474 344.352 128.792 344.352 129.141C344.352 129.995 344.062 130.674 343.484 131.18C342.906 131.68 342.112 131.93 341.102 131.93C340.862 131.93 340.617 131.909 340.367 131.867C340.112 132.008 339.917 132.164 339.781 132.336C339.651 132.508 339.586 132.706 339.586 132.93C339.586 133.096 339.635 133.229 339.734 133.328C339.839 133.427 339.987 133.5 340.18 133.547C340.372 133.589 340.604 133.609 340.875 133.609H342.383C343.315 133.609 344.029 133.805 344.523 134.195C345.023 134.586 345.273 135.156 345.273 135.906C345.273 136.854 344.888 137.581 344.117 138.086C343.346 138.591 342.232 138.844 340.773 138.844ZM340.812 137.828C341.521 137.828 342.107 137.755 342.57 137.609C343.039 137.469 343.388 137.263 343.617 136.992C343.852 136.727 343.969 136.409 343.969 136.039C343.969 135.695 343.891 135.435 343.734 135.258C343.578 135.086 343.349 134.971 343.047 134.914C342.745 134.852 342.375 134.82 341.938 134.82H340.453C340.068 134.82 339.732 134.88 339.445 135C339.159 135.12 338.938 135.297 338.781 135.531C338.63 135.766 338.555 136.057 338.555 136.406C338.555 136.87 338.75 137.221 339.141 137.461C339.531 137.706 340.089 137.828 340.812 137.828ZM341.148 130.984C341.768 130.984 342.234 130.828 342.547 130.516C342.859 130.203 343.016 129.747 343.016 129.148C343.016 128.508 342.857 128.029 342.539 127.711C342.221 127.388 341.753 127.227 341.133 127.227C340.539 127.227 340.081 127.393 339.758 127.727C339.44 128.055 339.281 128.536 339.281 129.172C339.281 129.755 339.443 130.203 339.766 130.516C340.089 130.828 340.549 130.984 341.148 130.984ZM28.1328 156.094C28.3464 156.094 28.5651 156.076 28.7891 156.039C29.013 156.003 29.1953 155.958 29.3359 155.906V156.914C29.1849 156.982 28.974 157.039 28.7031 157.086C28.4375 157.133 28.1771 157.156 27.9219 157.156C27.4688 157.156 27.0573 157.078 26.6875 156.922C26.3177 156.76 26.0208 156.49 25.7969 156.109C25.5781 155.729 25.4688 155.203 25.4688 154.531V149.453H24.25V148.82L25.4766 148.312L25.9922 146.453H26.7734V148.438H29.2812V149.453H26.7734V154.492C26.7734 155.029 26.8958 155.43 27.1406 155.695C27.3906 155.961 27.7214 156.094 28.1328 156.094ZM38.4531 152.703C38.4531 153.406 38.362 154.034 38.1797 154.586C37.9974 155.138 37.7344 155.604 37.3906 155.984C37.0469 156.365 36.6302 156.656 36.1406 156.859C35.6562 157.057 35.1068 157.156 34.4922 157.156C33.9193 157.156 33.3932 157.057 32.9141 156.859C32.4401 156.656 32.0286 156.365 31.6797 155.984C31.3359 155.604 31.0677 155.138 30.875 154.586C30.6875 154.034 30.5938 153.406 30.5938 152.703C30.5938 151.766 30.7526 150.969 31.0703 150.312C31.388 149.651 31.8411 149.148 32.4297 148.805C33.0234 148.456 33.7292 148.281 34.5469 148.281C35.3281 148.281 36.0104 148.456 36.5938 148.805C37.1823 149.154 37.638 149.659 37.9609 150.32C38.2891 150.977 38.4531 151.771 38.4531 152.703ZM31.9375 152.703C31.9375 153.391 32.0286 153.987 32.2109 154.492C32.3932 154.997 32.6745 155.388 33.0547 155.664C33.4349 155.94 33.9245 156.078 34.5234 156.078C35.1172 156.078 35.6042 155.94 35.9844 155.664C36.3698 155.388 36.6536 154.997 36.8359 154.492C37.0182 153.987 37.1094 153.391 37.1094 152.703C37.1094 152.021 37.0182 151.432 36.8359 150.938C36.6536 150.438 36.3724 150.052 35.9922 149.781C35.612 149.51 35.1198 149.375 34.5156 149.375C33.625 149.375 32.9714 149.669 32.5547 150.258C32.1432 150.846 31.9375 151.661 31.9375 152.703ZM46.1562 157H44.8516V144.844H46.1562V157ZM52.1016 148.297C53.1224 148.297 53.8802 148.526 54.375 148.984C54.8698 149.443 55.1172 150.174 55.1172 151.18V157H54.1719L53.9219 155.734H53.8594C53.6198 156.047 53.3698 156.31 53.1094 156.523C52.849 156.732 52.5469 156.891 52.2031 157C51.8646 157.104 51.4479 157.156 50.9531 157.156C50.4323 157.156 49.9688 157.065 49.5625 156.883C49.1615 156.701 48.8438 156.424 48.6094 156.055C48.3802 155.685 48.2656 155.216 48.2656 154.648C48.2656 153.794 48.6042 153.138 49.2812 152.68C49.9583 152.221 50.9896 151.971 52.375 151.93L53.8516 151.867V151.344C53.8516 150.604 53.6927 150.086 53.375 149.789C53.0573 149.492 52.6094 149.344 52.0312 149.344C51.5833 149.344 51.1562 149.409 50.75 149.539C50.3438 149.669 49.9583 149.823 49.5938 150L49.1953 149.016C49.5807 148.818 50.0234 148.648 50.5234 148.508C51.0234 148.367 51.5495 148.297 52.1016 148.297ZM53.8359 152.781L52.5312 152.836C51.4635 152.878 50.7109 153.052 50.2734 153.359C49.8359 153.667 49.6172 154.102 49.6172 154.664C49.6172 155.154 49.7656 155.516 50.0625 155.75C50.3594 155.984 50.7526 156.102 51.2422 156.102C52.0026 156.102 52.625 155.891 53.1094 155.469C53.5938 155.047 53.8359 154.414 53.8359 153.57V152.781ZM64.8594 148.438V157H63.7969L63.6094 155.797H63.5391C63.362 156.094 63.1328 156.344 62.8516 156.547C62.5703 156.75 62.2526 156.901 61.8984 157C61.5495 157.104 61.1771 157.156 60.7812 157.156C60.1042 157.156 59.5365 157.047 59.0781 156.828C58.6198 156.609 58.2734 156.271 58.0391 155.812C57.8099 155.354 57.6953 154.766 57.6953 154.047V148.438H59.0078V153.953C59.0078 154.667 59.1693 155.201 59.4922 155.555C59.8151 155.904 60.3073 156.078 60.9688 156.078C61.6042 156.078 62.1094 155.958 62.4844 155.719C62.8646 155.479 63.138 155.128 63.3047 154.664C63.4714 154.195 63.5547 153.622 63.5547 152.945V148.438H64.8594ZM71.6562 148.281C72.6719 148.281 73.4401 148.531 73.9609 149.031C74.4818 149.526 74.7422 150.323 74.7422 151.422V157H73.4609V151.508C73.4609 150.794 73.2969 150.26 72.9688 149.906C72.6458 149.552 72.1484 149.375 71.4766 149.375C70.5286 149.375 69.862 149.643 69.4766 150.18C69.0911 150.716 68.8984 151.495 68.8984 152.516V157H67.6016V148.438H68.6484L68.8438 149.672H68.9141C69.0964 149.37 69.3281 149.117 69.6094 148.914C69.8906 148.706 70.2057 148.549 70.5547 148.445C70.9036 148.336 71.2708 148.281 71.6562 148.281ZM80.8438 157.156C80.0729 157.156 79.3932 156.997 78.8047 156.68C78.2161 156.362 77.7578 155.878 77.4297 155.227C77.1016 154.576 76.9375 153.755 76.9375 152.766C76.9375 151.729 77.1094 150.883 77.4531 150.227C77.8021 149.565 78.2812 149.076 78.8906 148.758C79.5 148.44 80.1927 148.281 80.9688 148.281C81.3958 148.281 81.8073 148.326 82.2031 148.414C82.6042 148.497 82.9323 148.604 83.1875 148.734L82.7969 149.82C82.5365 149.716 82.2344 149.622 81.8906 149.539C81.5521 149.456 81.2344 149.414 80.9375 149.414C80.3438 149.414 79.849 149.542 79.4531 149.797C79.0625 150.052 78.7682 150.427 78.5703 150.922C78.3776 151.417 78.2812 152.026 78.2812 152.75C78.2812 153.443 78.375 154.034 78.5625 154.523C78.7552 155.013 79.0391 155.388 79.4141 155.648C79.7943 155.904 80.2682 156.031 80.8359 156.031C81.2891 156.031 81.6979 155.984 82.0625 155.891C82.4271 155.792 82.7578 155.677 83.0547 155.547V156.703C82.7682 156.849 82.4479 156.961 82.0938 157.039C81.7448 157.117 81.3281 157.156 80.8438 157.156ZM86.3828 144.844V148.477C86.3828 148.685 86.3776 148.896 86.3672 149.109C86.3568 149.318 86.3385 149.51 86.3125 149.688H86.3984C86.5755 149.385 86.7995 149.133 87.0703 148.93C87.3464 148.721 87.6589 148.565 88.0078 148.461C88.3568 148.352 88.7266 148.297 89.1172 148.297C89.8047 148.297 90.3776 148.406 90.8359 148.625C91.2995 148.844 91.6458 149.182 91.875 149.641C92.1094 150.099 92.2266 150.693 92.2266 151.422V157H90.9453V151.508C90.9453 150.794 90.7812 150.26 90.4531 149.906C90.1302 149.552 89.6328 149.375 88.9609 149.375C88.3255 149.375 87.8177 149.497 87.4375 149.742C87.0625 149.982 86.7917 150.336 86.625 150.805C86.4635 151.273 86.3828 151.846 86.3828 152.523V157H85.0859V144.844H86.3828ZM94.7031 156.188C94.7031 155.823 94.7917 155.565 94.9688 155.414C95.1458 155.258 95.362 155.18 95.6172 155.18C95.8828 155.18 96.1068 155.258 96.2891 155.414C96.4714 155.565 96.5625 155.823 96.5625 156.188C96.5625 156.547 96.4714 156.81 96.2891 156.977C96.1068 157.138 95.8828 157.219 95.6172 157.219C95.362 157.219 95.1458 157.138 94.9688 156.977C94.7917 156.81 94.7031 156.547 94.7031 156.188Z" fill="#4C4648"/>
</svg>
