<svg width="24" height="34" viewBox="0 0 24 34" fill="none" xmlns="http://www.w3.org/2000/svg">
<path d="M9 9H4C3.44771 9 3 9.44771 3 10V15C3 15.5523 3.44771 16 4 16H9C9.5523 16 10 15.5523 10 15V10C10 9.44771 9.5523 9 9 9Z" stroke="#B8B4B3" stroke-linejoin="round"/>
<path d="M20 9H15C14.4477 9 14 9.44771 14 10V15C14 15.5523 14.4477 16 15 16H20C20.5523 16 21 15.5523 21 15V10C21 9.44771 20.5523 9 20 9Z" stroke="#B8B4B3" stroke-linejoin="round"/>
<path d="M9 20H4C3.44771 20 3 20.4477 3 21V26C3 26.5523 3.44771 27 4 27H9C9.5523 27 10 26.5523 10 26V21C10 20.4477 9.5523 20 9 20Z" stroke="#B8B4B3" stroke-linejoin="round"/>
<path d="M20 20H15C14.4477 20 14 20.4477 14 21V26C14 26.5523 14.4477 27 15 27H20C20.5523 27 21 26.5523 21 26V21C21 20.4477 20.5523 20 20 20Z" stroke="#B8B4B3" stroke-linejoin="round"/>
</svg>
